<svg xmlns="http://www.w3.org/2000/svg" width="1280" height="150" viewBox="0 0 1280 150"><path d="M0 75 L3.5 84.8 L7 94.1 L10.5 102.8 L14 110.3 L17.5 116.5 L21 121.1 L24.5 123.9 L28 124.9 L31.5 124.2 L35 121.7 L38.5 117.8 L42 112.4 L45.5 106.1 L49 98.9 L52.5 91.4 L56 83.7 L59.5 76.3 L63 69.3 L66.5 63.1 L70 57.8 L73.5 53.5 L77 50.4 L80.5 48.3 L84 47.4 L87.5 47.4 L91 48.3 L94.5 49.8 L98 51.8 L101.5 54 L105 56.4 L108.5 58.6 L112 60.7 L115.5 62.5 L119 63.9 L122.5 65 L126 65.8 L129.5 66.4 L133 66.9 L136.5 67.3 L140 68 L143.5 68.9 L147 70.2 L150.5 72.1 L154 74.5 L157.5 77.5 L161 81.1 L164.5 85.2 L168 89.7 L171.5 94.3 L175 99 L178.5 103.4 L182 107.3 L185.5 110.5 L189 112.7 L192.5 113.7 L196 113.5 L199.5 111.8 L203 108.7 L206.5 104.1 L210 98.2 L213.5 91.1 L217 83.1 L220.5 74.4 L224 65.4 L227.5 56.5 L231 47.9 L234.5 40.1 L238 33.4 L241.5 28 L245 24.3 L248.5 22.4 L252 22.3 L255.5 24.2 L259 27.9 L262.5 33.2 L266 40 L269.5 48 L273 56.9 L276.5 66.2 L280 75.6 L283.5 84.8 L287 93.4 L290.5 101 L294 107.5 L297.5 112.5 L301 116 L304.5 118 L308 118.3 L311.5 117.1 L315 114.6 L318.5 110.9 L322 106.3 L325.5 101 L329 95.3 L332.5 89.6 L336 83.9 L339.5 78.6 L343 73.9 L346.5 69.8 L350 66.5 L353.5 63.9 L357 62.1 L360.5 61 L364 60.4 L367.5 60.2 L371 60.3 L374.5 60.5 L378 60.7 L381.5 60.8 L385 60.7 L388.5 60.2 L392 59.5 L395.5 58.5 L399 57.4 L402.5 56.2 L406 55 L409.5 54.1 L413 53.6 L416.5 53.7 L420 54.6 L423.5 56.2 L427 58.8 L430.5 62.4 L434 66.8 L437.5 72.1 L441 78.1 L444.5 84.6 L448 91.3 L451.5 98.1 L455 104.5 L458.5 110.3 L462 115.2 L465.5 119 L469 121.3 L472.5 122.1 L476 121.2 L479.5 118.6 L483 114.3 L486.5 108.4 L490 101.1 L493.5 92.8 L497 83.6 L500.5 74 L504 64.3 L507.5 54.9 L511 46.2 L514.5 38.5 L518 32.1 L521.5 27.3 L525 24.3 L528.5 23.1 L532 23.8 L535.5 26.3 L539 30.4 L542.5 36.1 L546 42.8 L549.5 50.5 L553 58.7 L556.5 67.2 L560 75.4 L563.5 83.2 L567 90.3 L570.5 96.4 L574 101.3 L577.5 105 L581 107.4 L584.5 108.5 L588 108.4 L591.5 107.2 L595 105.2 L598.5 102.4 L602 99.2 L605.5 95.7 L609 92.2 L612.5 88.8 L616 85.7 L619.5 83 L623 80.7 L626.5 78.9 L630 77.5 L633.5 76.4 L637 75.6 L640.5 74.9 L644 74.2 L647.5 73.3 L651 72.2 L654.5 70.6 L658 68.7 L661.5 66.3 L665 63.4 L668.5 60.2 L672 56.8 L675.5 53.3 L679 49.9 L682.5 46.8 L686 44.2 L689.5 42.4 L693 41.5 L696.5 41.7 L700 43.2 L703.5 45.9 L707 50 L710.5 55.2 L714 61.6 L717.5 68.9 L721 76.9 L724.5 85.2 L728 93.6 L731.5 101.7 L735 109.2 L738.5 115.7 L742 120.9 L745.5 124.6 L749 126.6 L752.5 126.7 L756 125 L759.5 121.5 L763 116.2 L766.5 109.5 L770 101.4 L773.5 92.5 L777 83 L780.5 73.2 L784 63.7 L787.5 54.7 L791 46.7 L794.5 39.8 L798 34.4 L801.5 30.5 L805 28.4 L808.5 28 L812 29.2 L815.5 32 L819 36.1 L822.5 41.3 L826 47.3 L829.5 53.8 L833 60.6 L836.5 67.3 L840 73.7 L843.5 79.5 L847 84.5 L850.5 88.7 L854 92 L857.5 94.3 L861 95.7 L864.5 96.3 L868 96.3 L871.5 95.7 L875 94.7 L878.5 93.5 L882 92.3 L885.5 91.2 L889 90.3 L892.5 89.6 L896 89.3 L899.5 89.2 L903 89.3 L906.5 89.5 L910 89.7 L913.5 89.8 L917 89.5 L920.5 88.8 L924 87.4 L927.5 85.4 L931 82.6 L934.5 79.1 L938 74.8 L941.5 69.9 L945 64.5 L948.5 58.8 L952 53 L955.5 47.5 L959 42.3 L962.5 38 L966 34.6 L969.5 32.4 L973 31.7 L976.5 32.4 L980 34.8 L983.5 38.8 L987 44.2 L990.5 51 L994 59 L997.5 67.8 L1001 77.1 L1004.5 86.5 L1008 95.7 L1011.5 104.4 L1015 112.1 L1018.5 118.5 L1022 123.4 L1025.5 126.5 L1029 127.8 L1032.5 127.2 L1036 124.8 L1039.5 120.6 L1043 114.8 L1046.5 107.8 L1050 99.7 L1053.5 91 L1057 82 L1060.5 73.1 L1064 64.5 L1067.5 56.8 L1071 50 L1074.5 44.5 L1078 40.3 L1081.5 37.6 L1085 36.3 L1088.5 36.4 L1092 37.8 L1095.5 40.3 L1099 43.8 L1102.5 47.8 L1106 52.3 L1109.5 57 L1113 61.6 L1116.5 66 L1120 70 L1123.5 73.4 L1127 76.3 L1130.5 78.5 L1134 80.2 L1137.5 81.4 L1141 82.2 L1144.5 82.8 L1148 83.3 L1151.5 83.7 L1155 84.4 L1158.5 85.2 L1162 86.4 L1165.5 88 L1169 89.9 L1172.5 92 L1176 94.3 L1179.5 96.7 L1183 98.8 L1186.5 100.7 L1190 102.1 L1193.5 102.7 L1197 102.4 L1200.5 101.2 L1204 98.9 L1207.5 95.4 L1211 90.8 L1214.5 85.2 L1218 78.8 L1221.5 71.6 L1225 64.1 L1228.5 56.4 L1232 49 L1235.5 42 L1239 35.9 L1242.5 31 L1246 27.4 L1249.5 25.4 L1253 25.2 L1256.5 26.7 L1260 30.1 L1263.5 35.1 L1267 41.7 L1270.5 49.6 L1274 58.5 L1277.5 68 " fill="none" stroke="#C8A24A" stroke-width="0.55" stroke-opacity="0.7"/><path d="M0 80.1 L3.5 89.4 L7 98.3 L10.5 106.6 L14 113.9 L17.5 120 L21 124.4 L24.5 127.1 L28 128 L31.5 126.9 L35 124 L38.5 119.4 L42 113.2 L45.5 105.7 L49 97.3 L52.5 88.3 L56 79 L59.5 69.8 L63 61.2 L66.5 53.3 L70 46.5 L73.5 41.1 L77 37 L80.5 34.5 L84 33.6 L87.5 34.1 L91 36 L94.5 39 L98 43 L101.5 47.6 L105 52.8 L108.5 58 L112 63.3 L115.5 68.2 L119 72.7 L122.5 76.6 L126 79.8 L129.5 82.4 L133 84.3 L136.5 85.5 L140 86.3 L143.5 86.7 L147 86.9 L150.5 87.1 L154 87.2 L157.5 87.6 L161 88.2 L164.5 89.1 L168 90.3 L171.5 91.7 L175 93.4 L178.5 95.1 L182 96.7 L185.5 98.1 L189 99 L192.5 99.2 L196 98.8 L199.5 97.4 L203 95 L206.5 91.6 L210 87.2 L213.5 81.8 L217 75.7 L220.5 68.9 L224 61.8 L227.5 54.7 L231 47.7 L234.5 41.3 L238 35.7 L241.5 31.2 L245 28.2 L248.5 26.7 L252 26.8 L255.5 28.8 L259 32.5 L262.5 37.8 L266 44.6 L269.5 52.7 L273 61.7 L276.5 71.2 L280 81 L283.5 90.6 L287 99.7 L290.5 107.8 L294 114.7 L297.5 120.2 L301 123.9 L304.5 125.9 L308 126 L311.5 124.3 L315 120.9 L318.5 116 L322 109.8 L325.5 102.7 L329 94.9 L332.5 86.8 L336 78.8 L339.5 71.1 L343 64 L346.5 57.8 L350 52.7 L353.5 48.7 L357 45.9 L360.5 44.4 L364 44 L367.5 44.6 L371 46.1 L374.5 48.3 L378 50.9 L381.5 53.8 L385 56.8 L388.5 59.7 L392 62.4 L395.5 64.7 L399 66.7 L402.5 68.2 L406 69.4 L409.5 70.3 L413 71 L416.5 71.6 L420 72.3 L423.5 73.3 L427 74.6 L430.5 76.3 L434 78.5 L437.5 81.2 L441 84.4 L444.5 88 L448 91.9 L451.5 96 L455 99.9 L458.5 103.6 L462 106.8 L465.5 109.2 L469 110.6 L472.5 110.9 L476 110 L479.5 107.7 L483 104 L486.5 99 L490 92.7 L493.5 85.5 L497 77.4 L500.5 68.9 L504 60.2 L507.5 51.7 L511 43.7 L514.5 36.6 L518 30.7 L521.5 26.3 L525 23.5 L528.5 22.5 L532 23.5 L535.5 26.3 L539 30.9 L542.5 37 L546 44.6 L549.5 53.1 L553 62.4 L556.5 72 L560 81.5 L563.5 90.7 L567 99 L570.5 106.3 L574 112.2 L577.5 116.6 L581 119.4 L584.5 120.5 L588 120 L591.5 117.9 L595 114.5 L598.5 110 L602 104.6 L605.5 98.6 L609 92.3 L612.5 86 L616 79.9 L619.5 74.3 L623 69.3 L626.5 65.1 L630 61.8 L633.5 59.3 L637 57.7 L640.5 56.8 L644 56.5 L647.5 56.8 L651 57.3 L654.5 58 L658 58.8 L661.5 59.4 L665 59.8 L668.5 60 L672 59.9 L675.5 59.5 L679 59 L682.5 58.3 L686 57.7 L689.5 57.3 L693 57.3 L696.5 57.8 L700 59 L703.5 60.9 L707 63.6 L710.5 67.2 L714 71.6 L717.5 76.7 L721 82.4 L724.5 88.5 L728 94.7 L731.5 100.9 L735 106.6 L738.5 111.6 L742 115.7 L745.5 118.5 L749 120 L752.5 119.9 L756 118.1 L759.5 114.7 L763 109.7 L766.5 103.3 L770 95.6 L773.5 87 L777 77.7 L780.5 68.1 L784 58.6 L787.5 49.6 L791 41.4 L794.5 34.4 L798 28.8 L801.5 24.9 L805 22.8 L808.5 22.6 L812 24.3 L815.5 27.7 L819 32.8 L822.5 39.2 L826 46.7 L829.5 55 L833 63.7 L836.5 72.5 L840 80.9 L843.5 88.8 L847 95.7 L850.5 101.5 L854 106.1 L857.5 109.3 L861 111.1 L864.5 111.5 L868 110.7 L871.5 108.9 L875 106.1 L878.5 102.6 L882 98.7 L885.5 94.5 L889 90.4 L892.5 86.4 L896 82.8 L899.5 79.6 L903 77 L906.5 74.9 L910 73.3 L913.5 72.1 L917 71.2 L920.5 70.6 L924 70 L927.5 69.3 L931 68.4 L934.5 67.2 L938 65.6 L941.5 63.6 L945 61.3 L948.5 58.7 L952 55.9 L955.5 53 L959 50.3 L962.5 47.9 L966 46 L969.5 44.9 L973 44.7 L976.5 45.5 L980 47.5 L983.5 50.7 L987 55.1 L990.5 60.6 L994 67 L997.5 74.3 L1001 82.1 L1004.5 90.1 L1008 98 L1011.5 105.5 L1015 112.2 L1018.5 117.9 L1022 122.2 L1025.5 124.9 L1029 125.9 L1032.5 125.1 L1036 122.5 L1039.5 118.1 L1043 112 L1046.5 104.6 L1050 96.1 L1053.5 86.7 L1057 77 L1060.5 67.2 L1064 57.9 L1067.5 49.2 L1071 41.6 L1074.5 35.3 L1078 30.5 L1081.5 27.5 L1085 26.2 L1088.5 26.7 L1092 28.9 L1095.5 32.6 L1099 37.6 L1102.5 43.6 L1106 50.3 L1109.5 57.5 L1113 64.8 L1116.5 71.8 L1120 78.5 L1123.5 84.4 L1127 89.5 L1130.5 93.6 L1134 96.7 L1137.5 98.7 L1141 99.8 L1144.5 99.9 L1148 99.3 L1151.5 98.2 L1155 96.6 L1158.5 94.8 L1162 93 L1165.5 91.2 L1169 89.7 L1172.5 88.5 L1176 87.6 L1179.5 86.9 L1183 86.6 L1186.5 86.3 L1190 86.1 L1193.5 85.8 L1197 85.3 L1200.5 84.3 L1204 82.9 L1207.5 80.8 L1211 78.1 L1214.5 74.7 L1218 70.7 L1221.5 66.1 L1225 61.2 L1228.5 56 L1232 50.9 L1235.5 46 L1239 41.7 L1242.5 38.1 L1246 35.6 L1249.5 34.2 L1253 34.3 L1256.5 35.8 L1260 38.9 L1263.5 43.5 L1267 49.4 L1270.5 56.6 L1274 64.7 L1277.5 73.6 " fill="none" stroke="#C8A24A" stroke-width="0.55" stroke-opacity="0.7"/><path d="M0 84.6 L3.5 92.2 L7 99.7 L10.5 106.6 L14 112.9 L17.5 118 L21 121.8 L24.5 124.1 L28 124.7 L31.5 123.4 L35 120.4 L38.5 115.7 L42 109.4 L45.5 101.7 L49 93 L52.5 83.6 L56 73.8 L59.5 64.1 L63 54.7 L66.5 46.2 L70 38.8 L73.5 32.7 L77 28.3 L80.5 25.6 L84 24.8 L87.5 25.7 L91 28.4 L94.5 32.5 L98 38 L101.5 44.6 L105 51.8 L108.5 59.5 L112 67.2 L115.5 74.7 L119 81.7 L122.5 88 L126 93.3 L129.5 97.5 L133 100.6 L136.5 102.5 L140 103.3 L143.5 103.2 L147 102.2 L150.5 100.6 L154 98.5 L157.5 96.1 L161 93.6 L164.5 91.2 L168 89 L171.5 87.1 L175 85.6 L178.5 84.4 L182 83.5 L185.5 82.8 L189 82.3 L192.5 81.8 L196 81.2 L199.5 80.2 L203 78.9 L206.5 77.1 L210 74.7 L213.5 71.7 L217 68.2 L220.5 64.2 L224 59.8 L227.5 55.3 L231 50.8 L234.5 46.5 L238 42.8 L241.5 39.7 L245 37.7 L248.5 36.8 L252 37.2 L255.5 39 L259 42.3 L262.5 46.9 L266 52.9 L269.5 60 L273 68.1 L276.5 76.7 L280 85.6 L283.5 94.5 L287 103 L290.5 110.6 L294 117.2 L297.5 122.4 L301 125.9 L304.5 127.6 L308 127.5 L311.5 125.5 L315 121.6 L318.5 116.1 L322 109.1 L325.5 101 L329 92.1 L332.5 82.7 L336 73.2 L339.5 64 L343 55.5 L346.5 47.9 L350 41.5 L353.5 36.6 L357 33.2 L360.5 31.5 L364 31.3 L367.5 32.7 L371 35.4 L374.5 39.2 L378 44 L381.5 49.4 L385 55.2 L388.5 61.1 L392 66.8 L395.5 72.2 L399 77 L402.5 81.1 L406 84.4 L409.5 87 L413 88.8 L416.5 89.9 L420 90.4 L423.5 90.5 L427 90.3 L430.5 90 L434 89.7 L437.5 89.5 L441 89.6 L444.5 89.9 L448 90.5 L451.5 91.3 L455 92.4 L458.5 93.5 L462 94.5 L465.5 95.3 L469 95.7 L472.5 95.5 L476 94.6 L479.5 92.8 L483 90.2 L486.5 86.7 L490 82.2 L493.5 76.9 L497 71 L500.5 64.6 L504 57.9 L507.5 51.3 L511 45 L514.5 39.4 L518 34.6 L521.5 31.1 L525 28.9 L528.5 28.3 L532 29.4 L535.5 32.2 L539 36.6 L542.5 42.6 L546 49.9 L549.5 58.4 L553 67.6 L556.5 77.2 L560 86.9 L563.5 96.2 L567 104.8 L570.5 112.4 L574 118.6 L577.5 123.2 L581 126.1 L584.5 127.1 L588 126.2 L591.5 123.5 L595 119.2 L598.5 113.4 L602 106.4 L605.5 98.6 L609 90.3 L612.5 81.8 L616 73.5 L619.5 65.7 L623 58.6 L626.5 52.6 L630 47.7 L633.5 44.1 L637 41.8 L640.5 40.9 L644 41.1 L647.5 42.4 L651 44.6 L654.5 47.5 L658 50.9 L661.5 54.5 L665 58.1 L668.5 61.6 L672 64.8 L675.5 67.6 L679 70 L682.5 71.9 L686 73.3 L689.5 74.4 L693 75.3 L696.5 76 L700 76.7 L703.5 77.5 L707 78.6 L710.5 80.1 L714 82 L717.5 84.3 L721 87.1 L724.5 90.1 L728 93.5 L731.5 96.8 L735 100.1 L738.5 103.1 L742 105.5 L745.5 107.2 L749 107.9 L752.5 107.6 L756 106 L759.5 103.1 L763 99 L766.5 93.7 L770 87.3 L773.5 80 L777 72 L780.5 63.7 L784 55.4 L787.5 47.5 L791 40.1 L794.5 33.8 L798 28.8 L801.5 25.3 L805 23.5 L808.5 23.5 L812 25.4 L815.5 29.2 L819 34.6 L822.5 41.5 L826 49.6 L829.5 58.6 L833 68.2 L836.5 78 L840 87.5 L843.5 96.4 L847 104.4 L850.5 111.2 L854 116.5 L857.5 120.1 L861 122.1 L864.5 122.3 L868 120.9 L871.5 118 L875 113.7 L878.5 108.3 L882 102.2 L885.5 95.5 L889 88.6 L892.5 81.8 L896 75.4 L899.5 69.6 L903 64.5 L906.5 60.3 L910 57 L913.5 54.8 L917 53.4 L920.5 52.9 L924 53.1 L927.5 53.8 L931 54.9 L934.5 56.2 L938 57.5 L941.5 58.8 L945 59.8 L948.5 60.5 L952 61 L955.5 61.2 L959 61.2 L962.5 61.1 L966 60.9 L969.5 61 L973 61.3 L976.5 62.1 L980 63.5 L983.5 65.5 L987 68.3 L990.5 71.8 L994 76.1 L997.5 80.9 L1001 86.2 L1004.5 91.8 L1008 97.5 L1011.5 102.9 L1015 107.9 L1018.5 112.1 L1022 115.3 L1025.5 117.3 L1029 117.9 L1032.5 116.9 L1036 114.4 L1039.5 110.3 L1043 104.8 L1046.5 97.9 L1050 89.9 L1053.5 81.1 L1057 71.8 L1060.5 62.4 L1064 53.2 L1067.5 44.7 L1071 37.1 L1074.5 30.9 L1078 26.2 L1081.5 23.2 L1085 22.1 L1088.5 22.9 L1092 25.5 L1095.5 29.9 L1099 35.9 L1102.5 43.1 L1106 51.2 L1109.5 60.1 L1113 69.1 L1116.5 78.1 L1120 86.6 L1123.5 94.3 L1127 101 L1130.5 106.5 L1134 110.6 L1137.5 113.2 L1141 114.3 L1144.5 114 L1148 112.5 L1151.5 109.8 L1155 106.2 L1158.5 102 L1162 97.3 L1165.5 92.5 L1169 87.8 L1172.5 83.3 L1176 79.3 L1179.5 75.8 L1183 72.9 L1186.5 70.6 L1190 68.9 L1193.5 67.7 L1197 66.9 L1200.5 66.4 L1204 66 L1207.5 65.6 L1211 65 L1214.5 64.2 L1218 63.1 L1221.5 61.7 L1225 59.9 L1228.5 57.9 L1232 55.7 L1235.5 53.5 L1239 51.4 L1242.5 49.7 L1246 48.5 L1249.5 48 L1253 48.3 L1256.5 49.7 L1260 52.1 L1263.5 55.6 L1267 60.2 L1270.5 65.8 L1274 72.2 L1277.5 79.3 " fill="none" stroke="#C8A24A" stroke-width="0.55" stroke-opacity="0.7"/><path d="M0 88 L3.5 93 L7 98 L10.5 102.9 L14 107.2 L17.5 110.9 L21 113.6 L24.5 115.1 L28 115.3 L31.5 114.1 L35 111.3 L38.5 107 L42 101.4 L45.5 94.5 L49 86.5 L52.5 77.8 L56 68.7 L59.5 59.6 L63 50.7 L66.5 42.5 L70 35.4 L73.5 29.5 L77 25.2 L80.5 22.7 L84 22 L87.5 23.3 L91 26.4 L94.5 31.2 L98 37.6 L101.5 45.2 L105 53.7 L108.5 62.8 L112 72.2 L115.5 81.3 L119 90 L122.5 97.8 L126 104.5 L129.5 109.9 L133 113.8 L136.5 116.1 L140 116.9 L143.5 116.2 L147 114.2 L150.5 111 L154 106.9 L157.5 102.1 L161 96.8 L164.5 91.4 L168 86.1 L171.5 81 L175 76.5 L178.5 72.5 L182 69.3 L185.5 66.7 L189 64.8 L192.5 63.6 L196 62.8 L199.5 62.5 L203 62.3 L206.5 62.3 L210 62.2 L213.5 62 L217 61.5 L220.5 60.7 L224 59.6 L227.5 58.3 L231 56.8 L234.5 55.2 L238 53.7 L241.5 52.5 L245 51.7 L248.5 51.5 L252 52.1 L255.5 53.5 L259 56 L262.5 59.4 L266 63.8 L269.5 69.2 L273 75.3 L276.5 82 L280 89 L283.5 96.1 L287 102.9 L290.5 109.2 L294 114.6 L297.5 118.9 L301 121.7 L304.5 123.1 L308 122.7 L311.5 120.6 L315 116.7 L318.5 111.3 L322 104.3 L325.5 96.2 L329 87.2 L332.5 77.6 L336 67.8 L339.5 58.2 L343 49.3 L346.5 41.2 L350 34.4 L353.5 29.2 L357 25.6 L360.5 23.8 L364 23.9 L367.5 25.8 L371 29.4 L374.5 34.5 L378 40.8 L381.5 48.1 L385 56 L388.5 64.1 L392 72.2 L395.5 80 L399 87 L402.5 93.2 L406 98.3 L409.5 102.2 L413 104.9 L416.5 106.4 L420 106.6 L423.5 105.9 L427 104.3 L430.5 101.9 L434 99.1 L437.5 96.1 L441 93 L444.5 89.9 L448 87.2 L451.5 84.7 L455 82.7 L458.5 81.1 L462 79.9 L465.5 78.9 L469 78.2 L472.5 77.5 L476 76.8 L479.5 75.9 L483 74.6 L486.5 72.9 L490 70.8 L493.5 68.1 L497 65 L500.5 61.5 L504 57.7 L507.5 53.8 L511 50 L514.5 46.4 L518 43.4 L521.5 41.2 L525 39.9 L528.5 39.7 L532 40.8 L535.5 43.2 L539 47 L542.5 52.1 L546 58.4 L549.5 65.6 L553 73.7 L556.5 82.1 L560 90.8 L563.5 99.2 L567 107.1 L570.5 114 L574 119.7 L577.5 124 L581 126.6 L584.5 127.3 L588 126.2 L591.5 123.2 L595 118.4 L598.5 112.1 L602 104.5 L605.5 95.8 L609 86.5 L612.5 76.8 L616 67.3 L619.5 58.2 L623 49.9 L626.5 42.7 L630 36.9 L633.5 32.6 L637 30 L640.5 29.1 L644 29.8 L647.5 32 L651 35.6 L654.5 40.3 L658 45.8 L661.5 52 L665 58.4 L668.5 64.8 L672 71 L675.5 76.6 L679 81.6 L682.5 85.8 L686 89.2 L689.5 91.6 L693 93.2 L696.5 94 L700 94.2 L703.5 93.9 L707 93.2 L710.5 92.4 L714 91.5 L717.5 90.8 L721 90.2 L724.5 89.9 L728 89.9 L731.5 90.2 L735 90.7 L738.5 91.2 L742 91.7 L745.5 92 L749 91.9 L752.5 91.3 L756 90.1 L759.5 88.2 L763 85.4 L766.5 81.8 L770 77.5 L773.5 72.4 L777 66.8 L780.5 60.8 L784 54.7 L787.5 48.7 L791 43.1 L794.5 38.2 L798 34.4 L801.5 31.7 L805 30.4 L808.5 30.7 L812 32.6 L815.5 36.1 L819 41.2 L822.5 47.8 L826 55.5 L829.5 64.2 L833 73.5 L836.5 83.1 L840 92.5 L843.5 101.5 L847 109.5 L850.5 116.4 L854 121.8 L857.5 125.5 L861 127.4 L864.5 127.4 L868 125.6 L871.5 121.9 L875 116.7 L878.5 110.1 L882 102.4 L885.5 94 L889 85.2 L892.5 76.4 L896 67.9 L899.5 60.1 L903 53.2 L906.5 47.4 L910 43 L913.5 39.9 L917 38.2 L920.5 37.9 L924 38.9 L927.5 40.9 L931 43.9 L934.5 47.5 L938 51.5 L941.5 55.8 L945 60.1 L948.5 64.2 L952 67.9 L955.5 71.1 L959 73.8 L962.5 75.9 L966 77.6 L969.5 78.8 L973 79.6 L976.5 80.3 L980 80.9 L983.5 81.5 L987 82.4 L990.5 83.5 L994 85 L997.5 86.8 L1001 89 L1004.5 91.5 L1008 94.2 L1011.5 97 L1015 99.5 L1018.5 101.8 L1022 103.5 L1025.5 104.5 L1029 104.6 L1032.5 103.7 L1036 101.6 L1039.5 98.4 L1043 93.9 L1046.5 88.4 L1050 81.9 L1053.5 74.7 L1057 67 L1060.5 59 L1064 51.2 L1067.5 43.9 L1071 37.3 L1074.5 31.8 L1078 27.7 L1081.5 25.1 L1085 24.3 L1088.5 25.3 L1092 28.1 L1095.5 32.7 L1099 38.9 L1102.5 46.4 L1106 55.1 L1109.5 64.4 L1113 74.2 L1116.5 83.9 L1120 93.3 L1123.5 101.9 L1127 109.4 L1130.5 115.6 L1134 120.1 L1137.5 123 L1141 124.1 L1144.5 123.4 L1148 121.1 L1151.5 117.2 L1155 112.1 L1158.5 105.9 L1162 99 L1165.5 91.7 L1169 84.3 L1172.5 77.2 L1176 70.5 L1179.5 64.5 L1183 59.5 L1186.5 55.4 L1190 52.4 L1193.5 50.4 L1197 49.5 L1200.5 49.4 L1204 50.1 L1207.5 51.4 L1211 53.1 L1214.5 55 L1218 57 L1221.5 58.8 L1225 60.5 L1228.5 61.8 L1232 62.9 L1235.5 63.6 L1239 64 L1242.5 64.4 L1246 64.6 L1249.5 65 L1253 65.6 L1256.5 66.5 L1260 68 L1263.5 70.1 L1267 72.8 L1270.5 76.1 L1274 80.1 L1277.5 84.6 " fill="none" stroke="#C8A24A" stroke-width="0.55" stroke-opacity="0.7"/><path d="M0 89.8 L3.5 91.6 L7 93.6 L10.5 95.7 L14 97.7 L17.5 99.4 L21 100.7 L24.5 101.3 L28 101.1 L31.5 100 L35 97.8 L38.5 94.5 L42 90.2 L45.5 84.9 L49 78.7 L52.5 71.8 L56 64.4 L59.5 57 L63 49.6 L66.5 42.8 L70 36.7 L73.5 31.8 L77 28.1 L80.5 26 L84 25.7 L87.5 27.1 L91 30.3 L94.5 35.2 L98 41.6 L101.5 49.4 L105 58.2 L108.5 67.6 L112 77.4 L115.5 87.1 L119 96.4 L122.5 104.8 L126 112.1 L129.5 118 L133 122.3 L136.5 124.8 L140 125.5 L143.5 124.3 L147 121.5 L150.5 117.1 L154 111.5 L157.5 104.8 L161 97.4 L164.5 89.6 L168 81.8 L171.5 74.2 L175 67.2 L178.5 61 L182 55.7 L185.5 51.6 L189 48.5 L192.5 46.7 L196 46 L199.5 46.2 L203 47.3 L206.5 49.1 L210 51.3 L213.5 53.9 L217 56.5 L220.5 59 L224 61.3 L227.5 63.3 L231 65 L234.5 66.2 L238 67.2 L241.5 67.9 L245 68.5 L248.5 69 L252 69.7 L255.5 70.6 L259 72 L262.5 73.8 L266 76.1 L269.5 79.1 L273 82.5 L276.5 86.4 L280 90.7 L283.5 95.1 L287 99.5 L290.5 103.6 L294 107.2 L297.5 110 L301 111.9 L304.5 112.7 L308 112.1 L311.5 110.2 L315 106.8 L318.5 102.1 L322 96 L325.5 88.8 L329 80.8 L332.5 72.2 L336 63.3 L339.5 54.5 L343 46.2 L346.5 38.6 L350 32.2 L353.5 27.2 L357 23.9 L360.5 22.4 L364 22.7 L367.5 24.9 L371 29 L374.5 34.7 L378 41.8 L381.5 50 L385 59 L388.5 68.5 L392 78 L395.5 87.2 L399 95.7 L402.5 103.2 L406 109.4 L409.5 114.2 L413 117.5 L416.5 119.1 L420 119.1 L423.5 117.5 L427 114.7 L430.5 110.6 L434 105.7 L437.5 100.1 L441 94.2 L444.5 88.2 L448 82.4 L451.5 77 L455 72.1 L458.5 68 L462 64.6 L465.5 62.1 L469 60.3 L472.5 59.3 L476 58.8 L479.5 58.8 L483 59 L486.5 59.5 L490 59.9 L493.5 60.2 L497 60.2 L500.5 60 L504 59.6 L507.5 58.8 L511 57.9 L514.5 56.9 L518 56 L521.5 55.3 L525 55.1 L528.5 55.3 L532 56.3 L535.5 58.1 L539 60.8 L542.5 64.3 L546 68.8 L549.5 74 L553 79.9 L556.5 86.2 L560 92.8 L563.5 99.3 L567 105.4 L570.5 110.9 L574 115.5 L577.5 118.9 L581 120.9 L584.5 121.3 L588 120 L591.5 117.1 L595 112.5 L598.5 106.4 L602 99 L605.5 90.5 L609 81.2 L612.5 71.6 L616 62 L619.5 52.7 L623 44.2 L626.5 36.8 L630 30.7 L633.5 26.3 L637 23.6 L640.5 22.8 L644 23.9 L647.5 26.8 L651 31.3 L654.5 37.2 L658 44.3 L661.5 52.3 L665 60.7 L668.5 69.2 L672 77.6 L675.5 85.4 L679 92.5 L682.5 98.5 L686 103.3 L689.5 106.8 L693 108.9 L696.5 109.8 L700 109.4 L703.5 107.9 L707 105.6 L710.5 102.6 L714 99.1 L717.5 95.3 L721 91.6 L724.5 87.9 L728 84.6 L731.5 81.7 L735 79.3 L738.5 77.3 L742 75.8 L745.5 74.7 L749 73.9 L752.5 73.2 L756 72.5 L759.5 71.6 L763 70.6 L766.5 69.2 L770 67.4 L773.5 65.1 L777 62.5 L780.5 59.5 L784 56.3 L787.5 53.1 L791 49.9 L794.5 47.1 L798 44.8 L801.5 43.3 L805 42.7 L808.5 43.2 L812 44.9 L815.5 47.8 L819 52 L822.5 57.4 L826 63.8 L829.5 71.1 L833 79 L836.5 87.2 L840 95.4 L843.5 103.3 L847 110.5 L850.5 116.7 L854 121.5 L857.5 124.8 L861 126.4 L864.5 126.2 L868 124.1 L871.5 120.2 L875 114.6 L878.5 107.6 L882 99.3 L885.5 90.2 L889 80.6 L892.5 70.8 L896 61.3 L899.5 52.5 L903 44.6 L906.5 37.9 L910 32.8 L913.5 29.2 L917 27.4 L920.5 27.4 L924 29 L927.5 32.1 L931 36.6 L934.5 42.1 L938 48.4 L941.5 55.2 L945 62.2 L948.5 69.1 L952 75.5 L955.5 81.4 L959 86.5 L962.5 90.7 L966 93.9 L969.5 96.1 L973 97.4 L976.5 97.8 L980 97.6 L983.5 96.7 L987 95.5 L990.5 94.1 L994 92.7 L997.5 91.3 L1001 90.1 L1004.5 89.3 L1008 88.7 L1011.5 88.4 L1015 88.3 L1018.5 88.3 L1022 88.4 L1025.5 88.2 L1029 87.8 L1032.5 87 L1036 85.6 L1039.5 83.6 L1043 80.8 L1046.5 77.3 L1050 73.1 L1053.5 68.3 L1057 63.1 L1060.5 57.6 L1064 52.1 L1067.5 46.8 L1071 42 L1074.5 37.9 L1078 34.9 L1081.5 33.1 L1085 32.6 L1088.5 33.7 L1092 36.4 L1095.5 40.6 L1099 46.3 L1102.5 53.2 L1106 61.3 L1109.5 70.1 L1113 79.4 L1116.5 88.7 L1120 97.8 L1123.5 106.2 L1127 113.6 L1130.5 119.7 L1134 124.3 L1137.5 127.1 L1141 128 L1144.5 127 L1148 124.1 L1151.5 119.5 L1155 113.4 L1158.5 106.1 L1162 97.8 L1165.5 88.9 L1169 79.8 L1172.5 70.8 L1176 62.3 L1179.5 54.6 L1183 47.9 L1186.5 42.5 L1190 38.6 L1193.5 36.1 L1197 35.1 L1200.5 35.6 L1204 37.3 L1207.5 40.1 L1211 43.9 L1214.5 48.2 L1218 53 L1221.5 57.9 L1225 62.8 L1228.5 67.3 L1232 71.5 L1235.5 75 L1239 78 L1242.5 80.3 L1246 82 L1249.5 83.2 L1253 84 L1256.5 84.4 L1260 84.8 L1263.5 85.1 L1267 85.6 L1270.5 86.3 L1274 87.3 L1277.5 88.6 " fill="none" stroke="#C8A24A" stroke-width="0.55" stroke-opacity="0.7"/><path d="M0 89.8 L3.5 88.2 L7 87 L10.5 86.1 L14 85.5 L17.5 85 L21 84.7 L24.5 84.3 L28 83.8 L31.5 82.9 L35 81.6 L38.5 79.7 L42 77.2 L45.5 74.1 L49 70.3 L52.5 66.1 L56 61.4 L59.5 56.5 L63 51.6 L66.5 46.9 L70 42.7 L73.5 39.2 L77 36.7 L80.5 35.3 L84 35.3 L87.5 36.7 L91 39.6 L94.5 43.9 L98 49.7 L101.5 56.7 L105 64.6 L108.5 73.3 L112 82.4 L115.5 91.5 L119 100.2 L122.5 108.3 L126 115.3 L129.5 121 L133 125.1 L136.5 127.4 L140 127.9 L143.5 126.4 L147 123.2 L150.5 118.1 L154 111.6 L157.5 103.9 L161 95.3 L164.5 86.1 L168 76.7 L171.5 67.5 L175 58.9 L178.5 51.1 L182 44.5 L185.5 39.2 L189 35.5 L192.5 33.2 L196 32.6 L199.5 33.4 L203 35.6 L206.5 39 L210 43.3 L213.5 48.3 L217 53.7 L220.5 59.2 L224 64.6 L227.5 69.7 L231 74.4 L234.5 78.4 L238 81.7 L241.5 84.2 L245 86.1 L248.5 87.3 L252 88 L255.5 88.3 L259 88.3 L262.5 88.3 L266 88.3 L269.5 88.4 L273 88.8 L276.5 89.5 L280 90.4 L283.5 91.7 L287 93.1 L290.5 94.5 L294 95.9 L297.5 97 L301 97.7 L304.5 97.8 L308 97.1 L311.5 95.6 L315 93.1 L318.5 89.6 L322 85.2 L325.5 79.8 L329 73.7 L332.5 67.1 L336 60.2 L339.5 53.2 L343 46.5 L346.5 40.4 L350 35.2 L353.5 31.1 L357 28.4 L360.5 27.2 L364 27.8 L367.5 30.1 L371 34.1 L374.5 39.7 L378 46.7 L381.5 54.9 L385 64 L388.5 73.6 L392 83.4 L395.5 92.9 L399 101.8 L402.5 109.7 L406 116.4 L409.5 121.5 L413 124.9 L416.5 126.4 L420 126.1 L423.5 124 L427 120.3 L430.5 115 L434 108.5 L437.5 101.1 L441 93.1 L444.5 84.9 L448 76.7 L451.5 68.9 L455 61.9 L458.5 55.7 L462 50.7 L465.5 46.8 L469 44.2 L472.5 42.9 L476 42.8 L479.5 43.6 L483 45.4 L486.5 47.9 L490 50.8 L493.5 54 L497 57.3 L500.5 60.4 L504 63.3 L507.5 65.8 L511 67.9 L514.5 69.6 L518 70.9 L521.5 71.9 L525 72.7 L528.5 73.4 L532 74.1 L535.5 75 L539 76.2 L542.5 77.8 L546 79.9 L549.5 82.5 L553 85.5 L556.5 89 L560 92.6 L563.5 96.4 L567 100.1 L570.5 103.5 L574 106.4 L577.5 108.5 L581 109.6 L584.5 109.7 L588 108.4 L591.5 105.9 L595 102 L598.5 96.9 L602 90.6 L605.5 83.3 L609 75.3 L612.5 66.8 L616 58.2 L619.5 49.9 L623 42.2 L626.5 35.4 L630 29.8 L633.5 25.8 L637 23.4 L640.5 22.8 L644 24.2 L647.5 27.4 L651 32.3 L654.5 38.7 L658 46.5 L661.5 55.3 L665 64.7 L668.5 74.4 L672 83.9 L675.5 93 L679 101.2 L682.5 108.3 L686 114 L689.5 118.1 L693 120.6 L696.5 121.3 L700 120.5 L703.5 118 L707 114.3 L710.5 109.4 L714 103.7 L717.5 97.4 L721 90.9 L724.5 84.4 L728 78.2 L731.5 72.4 L735 67.4 L738.5 63.2 L742 59.9 L745.5 57.5 L749 55.9 L752.5 55.2 L756 55.1 L759.5 55.5 L763 56.3 L766.5 57.2 L770 58.2 L773.5 59.1 L777 59.7 L780.5 60.1 L784 60.3 L787.5 60.1 L791 59.8 L794.5 59.3 L798 58.9 L801.5 58.7 L805 58.9 L808.5 59.5 L812 60.8 L815.5 62.7 L819 65.5 L822.5 69.1 L826 73.4 L829.5 78.5 L833 84 L836.5 89.9 L840 95.9 L843.5 101.8 L847 107.2 L850.5 111.9 L854 115.6 L857.5 118.1 L861 119.2 L864.5 118.8 L868 116.7 L871.5 113 L875 107.8 L878.5 101.1 L882 93.3 L885.5 84.6 L889 75.3 L892.5 65.8 L896 56.4 L899.5 47.6 L903 39.6 L906.5 32.9 L910 27.6 L913.5 24.1 L917 22.4 L920.5 22.6 L924 24.7 L927.5 28.5 L931 33.9 L934.5 40.7 L938 48.5 L941.5 57 L945 65.8 L948.5 74.7 L952 83.2 L955.5 91 L959 97.9 L962.5 103.6 L966 107.9 L969.5 110.9 L973 112.4 L976.5 112.6 L980 111.5 L983.5 109.3 L987 106.2 L990.5 102.4 L994 98.2 L997.5 93.8 L1001 89.4 L1004.5 85.3 L1008 81.5 L1011.5 78.2 L1015 75.4 L1018.5 73.2 L1022 71.6 L1025.5 70.3 L1029 69.5 L1032.5 68.9 L1036 68.3 L1039.5 67.7 L1043 67 L1046.5 65.9 L1050 64.5 L1053.5 62.8 L1057 60.7 L1060.5 58.3 L1064 55.7 L1067.5 53.1 L1071 50.7 L1074.5 48.5 L1078 46.9 L1081.5 46.1 L1085 46.1 L1088.5 47.1 L1092 49.3 L1095.5 52.6 L1099 57.1 L1102.5 62.7 L1106 69.1 L1109.5 76.3 L1113 84 L1116.5 91.9 L1120 99.6 L1123.5 106.8 L1127 113.2 L1130.5 118.5 L1134 122.5 L1137.5 124.8 L1141 125.4 L1144.5 124.3 L1148 121.2 L1151.5 116.5 L1155 110.2 L1158.5 102.5 L1162 93.8 L1165.5 84.4 L1169 74.6 L1172.5 64.9 L1176 55.6 L1179.5 47 L1183 39.6 L1186.5 33.6 L1190 29.2 L1193.5 26.5 L1197 25.6 L1200.5 26.5 L1204 29 L1207.5 33 L1211 38.4 L1214.5 44.7 L1218 51.7 L1221.5 59.1 L1225 66.6 L1228.5 73.8 L1232 80.5 L1235.5 86.5 L1239 91.5 L1242.5 95.6 L1246 98.5 L1249.5 100.4 L1253 101.3 L1256.5 101.2 L1260 100.4 L1263.5 99 L1267 97.2 L1270.5 95.1 L1274 93 L1277.5 91.1 " fill="none" stroke="#C8A24A" stroke-width="0.55" stroke-opacity="0.7"/><path d="M0 88 L3.5 83.2 L7 78.9 L10.5 75.1 L14 71.9 L17.5 69.4 L21 67.5 L24.5 66.2 L28 65.4 L31.5 64.9 L35 64.5 L38.5 64.3 L42 63.9 L45.5 63.4 L49 62.6 L52.5 61.5 L56 60 L59.5 58.3 L63 56.4 L66.5 54.5 L70 52.6 L73.5 51 L77 49.9 L80.5 49.4 L84 49.7 L87.5 50.9 L91 53.1 L94.5 56.4 L98 60.8 L101.5 66.2 L105 72.4 L108.5 79.2 L112 86.4 L115.5 93.8 L119 101 L122.5 107.7 L126 113.6 L129.5 118.4 L133 121.9 L136.5 123.8 L140 124 L143.5 122.4 L147 119 L150.5 114 L154 107.4 L157.5 99.5 L161 90.7 L164.5 81.2 L168 71.4 L171.5 61.7 L175 52.5 L178.5 44.1 L182 37 L185.5 31.2 L189 27.1 L192.5 24.8 L196 24.3 L199.5 25.7 L203 28.7 L206.5 33.2 L210 39.1 L213.5 45.9 L217 53.4 L220.5 61.3 L224 69.2 L227.5 76.8 L231 83.8 L234.5 90.1 L238 95.3 L241.5 99.4 L245 102.3 L248.5 104.1 L252 104.7 L255.5 104.3 L259 103.1 L262.5 101.2 L266 98.8 L269.5 96.2 L273 93.4 L276.5 90.8 L280 88.4 L283.5 86.2 L287 84.5 L290.5 83.1 L294 82.1 L297.5 81.3 L301 80.7 L304.5 80.1 L308 79.4 L311.5 78.5 L315 77.2 L318.5 75.4 L322 73.1 L325.5 70.2 L329 66.8 L332.5 63 L336 58.9 L339.5 54.6 L343 50.4 L346.5 46.4 L350 42.9 L353.5 40.2 L357 38.5 L360.5 37.9 L364 38.6 L367.5 40.6 L371 44.1 L374.5 49 L378 55.1 L381.5 62.3 L385 70.3 L388.5 78.9 L392 87.7 L395.5 96.5 L399 104.7 L402.5 112.1 L406 118.3 L409.5 123.1 L413 126.3 L416.5 127.6 L420 127.1 L423.5 124.6 L427 120.4 L430.5 114.6 L434 107.3 L437.5 99 L441 89.9 L444.5 80.3 L448 70.8 L451.5 61.7 L455 53.2 L458.5 45.8 L462 39.6 L465.5 35 L469 31.9 L472.5 30.4 L476 30.6 L479.5 32.3 L483 35.4 L486.5 39.6 L490 44.6 L493.5 50.4 L497 56.4 L500.5 62.5 L504 68.4 L507.5 73.9 L511 78.8 L514.5 83 L518 86.3 L521.5 88.8 L525 90.6 L528.5 91.6 L532 92 L535.5 91.9 L539 91.6 L542.5 91 L546 90.5 L549.5 90.1 L553 89.9 L556.5 90 L560 90.4 L563.5 91 L567 91.8 L570.5 92.6 L574 93.4 L577.5 94 L581 94.2 L584.5 93.9 L588 92.8 L591.5 91 L595 88.3 L598.5 84.7 L602 80.3 L605.5 75.1 L609 69.2 L612.5 63 L616 56.5 L619.5 50.2 L623 44.2 L626.5 38.8 L630 34.4 L633.5 31.2 L637 29.4 L640.5 29.2 L644 30.6 L647.5 33.7 L651 38.4 L654.5 44.6 L658 52.2 L661.5 60.7 L665 70 L668.5 79.6 L672 89.2 L675.5 98.4 L679 106.8 L682.5 114.1 L686 120 L689.5 124.2 L693 126.7 L696.5 127.3 L700 126 L703.5 123 L707 118.2 L710.5 112.1 L714 104.9 L717.5 96.8 L721 88.3 L724.5 79.7 L728 71.3 L731.5 63.5 L735 56.5 L738.5 50.5 L742 45.8 L745.5 42.4 L749 40.3 L752.5 39.6 L756 40.1 L759.5 41.7 L763 44.2 L766.5 47.4 L770 51 L773.5 54.9 L777 58.8 L780.5 62.5 L784 66 L787.5 68.9 L791 71.5 L794.5 73.5 L798 75 L801.5 76.2 L805 77 L808.5 77.7 L812 78.4 L815.5 79.2 L819 80.2 L822.5 81.5 L826 83.2 L829.5 85.4 L833 87.9 L836.5 90.8 L840 93.9 L843.5 97 L847 100 L850.5 102.7 L854 104.8 L857.5 106.2 L861 106.7 L864.5 106.1 L868 104.3 L871.5 101.3 L875 97 L878.5 91.6 L882 85.1 L885.5 77.8 L889 70 L892.5 61.8 L896 53.7 L899.5 45.9 L903 38.9 L906.5 32.9 L910 28.2 L913.5 25.1 L917 23.7 L920.5 24.1 L924 26.4 L927.5 30.5 L931 36.2 L934.5 43.4 L938 51.7 L941.5 60.9 L945 70.6 L948.5 80.4 L952 89.8 L955.5 98.6 L959 106.4 L962.5 113 L966 118 L969.5 121.4 L973 123 L976.5 122.9 L980 121.1 L983.5 117.8 L987 113.1 L990.5 107.4 L994 101 L997.5 94.1 L1001 87 L1004.5 80 L1008 73.5 L1011.5 67.6 L1015 62.5 L1018.5 58.3 L1022 55.2 L1025.5 53 L1029 51.8 L1032.5 51.5 L1036 51.8 L1039.5 52.8 L1043 54.1 L1046.5 55.6 L1050 57.2 L1053.5 58.7 L1057 60 L1060.5 61 L1064 61.7 L1067.5 62.1 L1071 62.3 L1074.5 62.3 L1078 62.4 L1081.5 62.5 L1085 63 L1088.5 63.9 L1092 65.3 L1095.5 67.4 L1099 70.1 L1102.5 73.6 L1106 77.7 L1109.5 82.4 L1113 87.6 L1116.5 92.9 L1120 98.3 L1123.5 103.5 L1127 108.2 L1130.5 112 L1134 114.9 L1137.5 116.6 L1141 116.8 L1144.5 115.6 L1148 112.8 L1151.5 108.5 L1155 102.7 L1158.5 95.6 L1162 87.6 L1165.5 78.7 L1169 69.5 L1172.5 60.2 L1176 51.2 L1179.5 42.9 L1183 35.6 L1186.5 29.7 L1190 25.3 L1193.5 22.7 L1197 22 L1200.5 23.2 L1204 26.3 L1207.5 31 L1211 37.3 L1214.5 44.8 L1218 53.2 L1221.5 62.2 L1225 71.4 L1228.5 80.4 L1232 88.9 L1235.5 96.5 L1239 103.1 L1242.5 108.4 L1246 112.2 L1249.5 114.6 L1253 115.4 L1256.5 114.8 L1260 112.9 L1263.5 109.9 L1267 106 L1270.5 101.5 L1274 96.6 L1277.5 91.6 " fill="none" stroke="#C8A24A" stroke-width="0.55" stroke-opacity="0.7"/><path d="M0 84.6 L3.5 77.3 L7 70.3 L10.5 64.1 L14 58.8 L17.5 54.5 L21 51.3 L24.5 49.2 L28 48.1 L31.5 48 L35 48.8 L38.5 50.2 L42 52 L45.5 54.1 L49 56.3 L52.5 58.5 L56 60.5 L59.5 62.1 L63 63.5 L66.5 64.5 L70 65.2 L73.5 65.7 L77 66.1 L80.5 66.5 L84 67.1 L87.5 68 L91 69.3 L94.5 71.2 L98 73.7 L101.5 76.7 L105 80.4 L108.5 84.6 L112 89.1 L115.5 93.9 L119 98.7 L122.5 103.2 L126 107.3 L129.5 110.6 L133 113 L136.5 114.2 L140 114.1 L143.5 112.6 L147 109.6 L150.5 105.1 L154 99.2 L157.5 92.2 L161 84.2 L164.5 75.6 L168 66.5 L171.5 57.5 L175 48.8 L178.5 40.9 L182 34 L185.5 28.5 L189 24.6 L192.5 22.5 L196 22.2 L199.5 23.8 L203 27.3 L206.5 32.5 L210 39.2 L213.5 47 L217 55.8 L220.5 65.1 L224 74.5 L227.5 83.7 L231 92.3 L234.5 100 L238 106.5 L241.5 111.7 L245 115.3 L248.5 117.4 L252 117.9 L255.5 116.9 L259 114.5 L262.5 111 L266 106.5 L269.5 101.4 L273 95.9 L276.5 90.2 L280 84.7 L283.5 79.5 L287 74.8 L290.5 70.7 L294 67.4 L297.5 64.9 L301 63 L304.5 61.8 L308 61.2 L311.5 60.9 L315 61 L318.5 61.1 L322 61.2 L325.5 61.2 L329 60.9 L332.5 60.4 L336 59.5 L339.5 58.4 L343 57.1 L346.5 55.8 L350 54.6 L353.5 53.5 L357 53 L360.5 53 L364 53.7 L367.5 55.3 L371 57.9 L374.5 61.4 L378 65.8 L381.5 71.2 L385 77.2 L388.5 83.7 L392 90.6 L395.5 97.4 L399 104 L402.5 110 L406 115 L409.5 119 L413 121.5 L416.5 122.4 L420 121.7 L423.5 119.3 L427 115.1 L430.5 109.4 L434 102.2 L437.5 93.9 L441 84.8 L444.5 75.2 L448 65.4 L451.5 56 L455 47.2 L458.5 39.4 L462 32.9 L465.5 27.9 L469 24.7 L472.5 23.3 L476 23.8 L479.5 26.1 L483 30.1 L486.5 35.5 L490 42.1 L493.5 49.7 L497 57.8 L500.5 66.1 L504 74.4 L507.5 82.1 L511 89.2 L514.5 95.3 L518 100.3 L521.5 104.1 L525 106.6 L528.5 107.8 L532 107.8 L535.5 106.8 L539 104.9 L542.5 102.3 L546 99.2 L549.5 95.9 L553 92.5 L556.5 89.2 L560 86.2 L563.5 83.6 L567 81.4 L570.5 79.6 L574 78.3 L577.5 77.3 L581 76.5 L584.5 75.8 L588 75 L591.5 74.1 L595 73 L598.5 71.4 L602 69.4 L605.5 66.9 L609 63.9 L612.5 60.6 L616 57.1 L619.5 53.4 L623 49.9 L626.5 46.6 L630 43.9 L633.5 41.9 L637 40.9 L640.5 41 L644 42.4 L647.5 45 L651 49 L654.5 54.2 L658 60.5 L661.5 67.8 L665 75.8 L668.5 84.2 L672 92.7 L675.5 100.9 L679 108.5 L682.5 115.2 L686 120.5 L689.5 124.4 L693 126.6 L696.5 127 L700 125.4 L703.5 122.1 L707 117 L710.5 110.4 L714 102.5 L717.5 93.6 L721 84.1 L724.5 74.4 L728 64.9 L731.5 55.9 L735 47.7 L738.5 40.7 L742 35.2 L745.5 31.2 L749 28.9 L752.5 28.3 L756 29.4 L759.5 31.9 L763 35.9 L766.5 40.9 L770 46.8 L773.5 53.2 L777 59.8 L780.5 66.4 L784 72.7 L787.5 78.5 L791 83.6 L794.5 87.8 L798 91.1 L801.5 93.4 L805 94.9 L808.5 95.6 L812 95.6 L815.5 95.1 L819 94.2 L822.5 93.2 L826 92.1 L829.5 91.1 L833 90.3 L836.5 89.8 L840 89.5 L843.5 89.5 L847 89.8 L850.5 90.1 L854 90.4 L857.5 90.5 L861 90.3 L864.5 89.6 L868 88.3 L871.5 86.3 L875 83.6 L878.5 80 L882 75.7 L885.5 70.7 L889 65.2 L892.5 59.4 L896 53.5 L899.5 47.8 L903 42.6 L906.5 38 L910 34.5 L913.5 32.1 L917 31.2 L920.5 31.8 L924 34 L927.5 37.9 L931 43.2 L934.5 49.9 L938 57.8 L941.5 66.6 L945 75.9 L948.5 85.4 L952 94.7 L955.5 103.4 L959 111.2 L962.5 117.8 L966 122.9 L969.5 126.2 L973 127.7 L976.5 127.3 L980 125.1 L983.5 121.1 L987 115.5 L990.5 108.6 L994 100.6 L997.5 92 L1001 83.1 L1004.5 74.2 L1008 65.7 L1011.5 57.9 L1015 51.1 L1018.5 45.4 L1022 41.2 L1025.5 38.3 L1029 36.9 L1032.5 36.9 L1036 38.1 L1039.5 40.5 L1043 43.8 L1046.5 47.7 L1050 52 L1053.5 56.6 L1057 61.1 L1060.5 65.4 L1064 69.2 L1067.5 72.6 L1071 75.4 L1074.5 77.6 L1078 79.3 L1081.5 80.5 L1085 81.4 L1088.5 82 L1092 82.5 L1095.5 83 L1099 83.7 L1102.5 84.7 L1106 86 L1109.5 87.6 L1113 89.6 L1116.5 91.9 L1120 94.3 L1123.5 96.8 L1127 99.1 L1130.5 101.1 L1134 102.6 L1137.5 103.3 L1141 103.2 L1144.5 102.1 L1148 99.8 L1151.5 96.4 L1155 91.9 L1158.5 86.3 L1162 79.8 L1165.5 72.6 L1169 65 L1172.5 57.3 L1176 49.7 L1179.5 42.6 L1183 36.4 L1186.5 31.2 L1190 27.4 L1193.5 25.3 L1197 24.8 L1200.5 26.2 L1204 29.4 L1207.5 34.3 L1211 40.8 L1214.5 48.5 L1218 57.3 L1221.5 66.8 L1225 76.6 L1228.5 86.3 L1232 95.6 L1235.5 104 L1239 111.3 L1242.5 117.2 L1246 121.4 L1249.5 124 L1253 124.7 L1256.5 123.6 L1260 120.9 L1263.5 116.7 L1267 111.2 L1270.5 104.7 L1274 97.6 L1277.5 90 " fill="none" stroke="#C8A24A" stroke-width="0.55" stroke-opacity="0.7"/><path d="M0 80.1 L3.5 71 L7 62.3 L10.5 54.4 L14 47.6 L17.5 42 L21 37.9 L24.5 35.2 L28 34.1 L31.5 34.5 L35 36.2 L38.5 39 L42 42.9 L45.5 47.4 L49 52.3 L52.5 57.5 L56 62.6 L59.5 67.5 L63 71.9 L66.5 75.7 L70 78.9 L73.5 81.5 L77 83.4 L80.5 84.7 L84 85.5 L87.5 86 L91 86.2 L94.5 86.4 L98 86.7 L101.5 87.1 L105 87.8 L108.5 88.8 L112 90.1 L115.5 91.7 L119 93.5 L122.5 95.3 L126 97.1 L129.5 98.5 L133 99.6 L136.5 100 L140 99.6 L143.5 98.2 L147 95.9 L150.5 92.6 L154 88.2 L157.5 82.8 L161 76.6 L164.5 69.9 L168 62.7 L171.5 55.4 L175 48.3 L178.5 41.8 L182 36 L185.5 31.4 L189 28.1 L192.5 26.4 L196 26.4 L199.5 28.2 L203 31.7 L206.5 36.9 L210 43.6 L213.5 51.6 L217 60.5 L220.5 70 L224 79.8 L227.5 89.5 L231 98.6 L234.5 106.8 L238 113.9 L241.5 119.5 L245 123.4 L248.5 125.5 L252 125.8 L255.5 124.3 L259 121.1 L262.5 116.4 L266 110.4 L269.5 103.4 L273 95.8 L276.5 87.8 L280 79.8 L283.5 72.1 L287 65.1 L290.5 58.9 L294 53.7 L297.5 49.6 L301 46.8 L304.5 45.1 L308 44.6 L311.5 45.1 L315 46.5 L318.5 48.5 L322 51 L325.5 53.8 L329 56.7 L332.5 59.5 L336 62 L339.5 64.2 L343 66.1 L346.5 67.5 L350 68.6 L353.5 69.5 L357 70.1 L360.5 70.7 L364 71.5 L367.5 72.4 L371 73.7 L374.5 75.5 L378 77.7 L381.5 80.5 L385 83.8 L388.5 87.5 L392 91.5 L395.5 95.7 L399 99.8 L402.5 103.6 L406 106.9 L409.5 109.5 L413 111.1 L416.5 111.6 L420 110.7 L423.5 108.5 L427 104.9 L430.5 100 L434 93.8 L437.5 86.6 L441 78.6 L444.5 70 L448 61.2 L451.5 52.6 L455 44.5 L458.5 37.3 L462 31.2 L465.5 26.6 L469 23.6 L472.5 22.4 L476 23.2 L479.5 25.8 L483 30.2 L486.5 36.2 L490 43.6 L493.5 52.1 L497 61.3 L500.5 70.8 L504 80.4 L507.5 89.5 L511 97.9 L514.5 105.3 L518 111.3 L521.5 115.8 L525 118.8 L528.5 120.1 L532 119.7 L535.5 117.8 L539 114.6 L542.5 110.2 L546 105 L549.5 99.1 L553 93 L556.5 86.7 L560 80.8 L563.5 75.2 L567 70.3 L570.5 66.1 L574 62.7 L577.5 60.2 L581 58.6 L584.5 57.6 L588 57.3 L591.5 57.4 L595 57.9 L598.5 58.5 L602 59.1 L605.5 59.6 L609 60 L612.5 60 L616 59.8 L619.5 59.3 L623 58.6 L626.5 57.8 L630 57.1 L633.5 56.7 L637 56.5 L640.5 57 L644 58.1 L647.5 59.9 L651 62.7 L654.5 66.3 L658 70.7 L661.5 75.8 L665 81.6 L668.5 87.8 L672 94.1 L675.5 100.4 L679 106.2 L682.5 111.4 L686 115.6 L689.5 118.7 L693 120.3 L696.5 120.4 L700 118.8 L703.5 115.5 L707 110.7 L710.5 104.3 L714 96.7 L717.5 88.1 L721 78.8 L724.5 69.2 L728 59.7 L731.5 50.6 L735 42.3 L738.5 35.1 L742 29.4 L745.5 25.3 L749 23 L752.5 22.6 L756 24.1 L759.5 27.4 L763 32.2 L766.5 38.5 L770 45.9 L773.5 54.1 L777 62.7 L780.5 71.4 L784 79.8 L787.5 87.7 L791 94.6 L794.5 100.5 L798 105.2 L801.5 108.5 L805 110.4 L808.5 111 L812 110.3 L815.5 108.6 L819 105.9 L822.5 102.6 L826 98.8 L829.5 94.8 L833 90.8 L836.5 87 L840 83.4 L843.5 80.4 L847 77.8 L850.5 75.7 L854 74.1 L857.5 73 L861 72.1 L864.5 71.4 L868 70.8 L871.5 70 L875 69.1 L878.5 67.8 L882 66.2 L885.5 64.1 L889 61.7 L892.5 58.9 L896 56 L899.5 53 L903 50.1 L906.5 47.6 L910 45.6 L913.5 44.3 L917 44 L920.5 44.7 L924 46.6 L927.5 49.7 L931 54 L934.5 59.5 L938 66 L941.5 73.2 L945 81.1 L948.5 89.1 L952 97.2 L955.5 104.8 L959 111.7 L962.5 117.5 L966 122 L969.5 124.9 L973 126.1 L976.5 125.5 L980 123 L983.5 118.8 L987 112.9 L990.5 105.6 L994 97.2 L997.5 87.9 L1001 78.2 L1004.5 68.4 L1008 59 L1011.5 50.3 L1015 42.5 L1018.5 36.1 L1022 31.3 L1025.5 28.1 L1029 26.6 L1032.5 26.9 L1036 28.9 L1039.5 32.4 L1043 37.2 L1046.5 43 L1050 49.6 L1053.5 56.7 L1057 63.9 L1060.5 70.9 L1064 77.5 L1067.5 83.4 L1071 88.5 L1074.5 92.7 L1078 95.8 L1081.5 97.9 L1085 99 L1088.5 99.2 L1092 98.8 L1095.5 97.7 L1099 96.3 L1102.5 94.6 L1106 92.9 L1109.5 91.3 L1113 89.9 L1116.5 88.8 L1120 88 L1123.5 87.4 L1127 87.2 L1130.5 87 L1134 86.9 L1137.5 86.7 L1141 86.2 L1144.5 85.2 L1148 83.8 L1151.5 81.7 L1155 79 L1158.5 75.6 L1162 71.5 L1165.5 66.8 L1169 61.8 L1172.5 56.5 L1176 51.3 L1179.5 46.2 L1183 41.7 L1186.5 38 L1190 35.3 L1193.5 33.8 L1197 33.7 L1200.5 35.1 L1204 38 L1207.5 42.5 L1211 48.4 L1214.5 55.5 L1218 63.6 L1221.5 72.4 L1225 81.6 L1228.5 90.9 L1232 99.8 L1235.5 108 L1239 115.1 L1242.5 120.9 L1246 125 L1249.5 127.4 L1253 127.9 L1256.5 126.6 L1260 123.3 L1263.5 118.4 L1267 112 L1270.5 104.3 L1274 95.8 L1277.5 86.7 " fill="none" stroke="#C8A24A" stroke-width="0.55" stroke-opacity="0.7"/><path d="M0 75 L3.5 65.2 L7 55.9 L10.5 47.2 L14 39.7 L17.5 33.5 L21 28.9 L24.5 26.1 L28 25.1 L31.5 25.8 L35 28.3 L38.5 32.2 L42 37.6 L45.5 43.9 L49 51.1 L52.5 58.6 L56 66.3 L59.5 73.7 L63 80.7 L66.5 86.9 L70 92.2 L73.5 96.5 L77 99.6 L80.5 101.7 L84 102.6 L87.5 102.6 L91 101.7 L94.5 100.2 L98 98.2 L101.5 96 L105 93.6 L108.5 91.4 L112 89.3 L115.5 87.5 L119 86.1 L122.5 85 L126 84.2 L129.5 83.6 L133 83.1 L136.5 82.7 L140 82 L143.5 81.1 L147 79.8 L150.5 77.9 L154 75.5 L157.5 72.5 L161 68.9 L164.5 64.8 L168 60.3 L171.5 55.7 L175 51 L178.5 46.6 L182 42.7 L185.5 39.5 L189 37.3 L192.5 36.3 L196 36.5 L199.5 38.2 L203 41.3 L206.5 45.9 L210 51.8 L213.5 58.9 L217 66.9 L220.5 75.6 L224 84.6 L227.5 93.5 L231 102.1 L234.5 109.9 L238 116.6 L241.5 122 L245 125.7 L248.5 127.6 L252 127.7 L255.5 125.8 L259 122.1 L262.5 116.8 L266 110 L269.5 102 L273 93.1 L276.5 83.8 L280 74.4 L283.5 65.2 L287 56.6 L290.5 49 L294 42.5 L297.5 37.5 L301 34 L304.5 32 L308 31.7 L311.5 32.9 L315 35.4 L318.5 39.1 L322 43.7 L325.5 49 L329 54.7 L332.5 60.4 L336 66.1 L339.5 71.4 L343 76.1 L346.5 80.2 L350 83.5 L353.5 86.1 L357 87.9 L360.5 89 L364 89.6 L367.5 89.8 L371 89.7 L374.5 89.5 L378 89.3 L381.5 89.2 L385 89.3 L388.5 89.8 L392 90.5 L395.5 91.5 L399 92.6 L402.5 93.8 L406 95 L409.5 95.9 L413 96.4 L416.5 96.3 L420 95.4 L423.5 93.8 L427 91.2 L430.5 87.6 L434 83.2 L437.5 77.9 L441 71.9 L444.5 65.4 L448 58.7 L451.5 51.9 L455 45.5 L458.5 39.7 L462 34.8 L465.5 31 L469 28.7 L472.5 27.9 L476 28.8 L479.5 31.4 L483 35.7 L486.5 41.6 L490 48.9 L493.5 57.2 L497 66.4 L500.5 76 L504 85.7 L507.5 95.1 L511 103.8 L514.5 111.5 L518 117.9 L521.5 122.7 L525 125.7 L528.5 126.9 L532 126.2 L535.5 123.7 L539 119.6 L542.5 113.9 L546 107.2 L549.5 99.5 L553 91.3 L556.5 82.8 L560 74.6 L563.5 66.8 L567 59.7 L570.5 53.6 L574 48.7 L577.5 45 L581 42.6 L584.5 41.5 L588 41.6 L591.5 42.8 L595 44.8 L598.5 47.6 L602 50.8 L605.5 54.3 L609 57.8 L612.5 61.2 L616 64.3 L619.5 67 L623 69.3 L626.5 71.1 L630 72.5 L633.5 73.6 L637 74.4 L640.5 75.1 L644 75.8 L647.5 76.7 L651 77.8 L654.5 79.4 L658 81.3 L661.5 83.7 L665 86.6 L668.5 89.8 L672 93.2 L675.5 96.7 L679 100.1 L682.5 103.2 L686 105.8 L689.5 107.6 L693 108.5 L696.5 108.3 L700 106.8 L703.5 104.1 L707 100 L710.5 94.8 L714 88.4 L717.5 81.1 L721 73.1 L724.5 64.8 L728 56.4 L731.5 48.3 L735 40.8 L738.5 34.3 L742 29.1 L745.5 25.4 L749 23.4 L752.5 23.3 L756 25 L759.5 28.5 L763 33.8 L766.5 40.5 L770 48.6 L773.5 57.5 L777 67 L780.5 76.8 L784 86.3 L787.5 95.3 L791 103.3 L794.5 110.2 L798 115.6 L801.5 119.5 L805 121.6 L808.5 122 L812 120.8 L815.5 118 L819 113.9 L822.5 108.7 L826 102.7 L829.5 96.2 L833 89.4 L836.5 82.7 L840 76.3 L843.5 70.5 L847 65.5 L850.5 61.3 L854 58 L857.5 55.7 L861 54.3 L864.5 53.7 L868 53.7 L871.5 54.3 L875 55.3 L878.5 56.5 L882 57.7 L885.5 58.8 L889 59.7 L892.5 60.4 L896 60.7 L899.5 60.8 L903 60.7 L906.5 60.5 L910 60.3 L913.5 60.2 L917 60.5 L920.5 61.2 L924 62.6 L927.5 64.6 L931 67.4 L934.5 70.9 L938 75.2 L941.5 80.1 L945 85.5 L948.5 91.2 L952 97 L955.5 102.5 L959 107.7 L962.5 112 L966 115.4 L969.5 117.6 L973 118.3 L976.5 117.6 L980 115.2 L983.5 111.2 L987 105.8 L990.5 99 L994 91 L997.5 82.2 L1001 72.9 L1004.5 63.5 L1008 54.3 L1011.5 45.6 L1015 37.9 L1018.5 31.5 L1022 26.6 L1025.5 23.5 L1029 22.2 L1032.5 22.8 L1036 25.2 L1039.5 29.4 L1043 35.2 L1046.5 42.2 L1050 50.3 L1053.5 59 L1057 68 L1060.5 76.9 L1064 85.5 L1067.5 93.2 L1071 100 L1074.5 105.5 L1078 109.7 L1081.5 112.4 L1085 113.7 L1088.5 113.6 L1092 112.2 L1095.5 109.7 L1099 106.2 L1102.5 102.2 L1106 97.7 L1109.5 93 L1113 88.4 L1116.5 84 L1120 80 L1123.5 76.6 L1127 73.7 L1130.5 71.5 L1134 69.8 L1137.5 68.6 L1141 67.8 L1144.5 67.2 L1148 66.7 L1151.5 66.3 L1155 65.6 L1158.5 64.8 L1162 63.6 L1165.5 62 L1169 60.1 L1172.5 58 L1176 55.7 L1179.5 53.3 L1183 51.2 L1186.5 49.3 L1190 47.9 L1193.5 47.3 L1197 47.6 L1200.5 48.8 L1204 51.1 L1207.5 54.6 L1211 59.2 L1214.5 64.8 L1218 71.2 L1221.5 78.4 L1225 85.9 L1228.5 93.6 L1232 101 L1235.5 108 L1239 114.1 L1242.5 119 L1246 122.6 L1249.5 124.6 L1253 124.8 L1256.5 123.3 L1260 119.9 L1263.5 114.9 L1267 108.3 L1270.5 100.4 L1274 91.5 L1277.5 82 " fill="none" stroke="#C8A24A" stroke-width="0.55" stroke-opacity="0.7"/><path d="M0 69.9 L3.5 60.6 L7 51.7 L10.5 43.4 L14 36.1 L17.5 30 L21 25.6 L24.5 22.9 L28 22 L31.5 23.1 L35 26 L38.5 30.6 L42 36.8 L45.5 44.3 L49 52.7 L52.5 61.7 L56 71 L59.5 80.2 L63 88.8 L66.5 96.7 L70 103.5 L73.5 108.9 L77 113 L80.5 115.5 L84 116.4 L87.5 115.9 L91 114 L94.5 111 L98 107 L101.5 102.4 L105 97.2 L108.5 92 L112 86.7 L115.5 81.8 L119 77.3 L122.5 73.4 L126 70.2 L129.5 67.6 L133 65.7 L136.5 64.5 L140 63.7 L143.5 63.3 L147 63.1 L150.5 62.9 L154 62.8 L157.5 62.4 L161 61.8 L164.5 60.9 L168 59.7 L171.5 58.3 L175 56.6 L178.5 54.9 L182 53.3 L185.5 51.9 L189 51 L192.5 50.8 L196 51.2 L199.5 52.6 L203 55 L206.5 58.4 L210 62.8 L213.5 68.2 L217 74.3 L220.5 81.1 L224 88.2 L227.5 95.3 L231 102.3 L234.5 108.7 L238 114.3 L241.5 118.8 L245 121.8 L248.5 123.3 L252 123.2 L255.5 121.2 L259 117.5 L262.5 112.2 L266 105.4 L269.5 97.3 L273 88.3 L276.5 78.8 L280 69 L283.5 59.4 L287 50.3 L290.5 42.2 L294 35.3 L297.5 29.8 L301 26.1 L304.5 24.1 L308 24 L311.5 25.7 L315 29.1 L318.5 34 L322 40.2 L325.5 47.3 L329 55.1 L332.5 63.2 L336 71.2 L339.5 78.9 L343 86 L346.5 92.2 L350 97.3 L353.5 101.3 L357 104.1 L360.5 105.6 L364 106 L367.5 105.4 L371 103.9 L374.5 101.7 L378 99.1 L381.5 96.2 L385 93.2 L388.5 90.3 L392 87.6 L395.5 85.3 L399 83.3 L402.5 81.8 L406 80.6 L409.5 79.7 L413 79 L416.5 78.4 L420 77.7 L423.5 76.7 L427 75.4 L430.5 73.7 L434 71.5 L437.5 68.8 L441 65.6 L444.5 62 L448 58.1 L451.5 54 L455 50.1 L458.5 46.4 L462 43.2 L465.5 40.8 L469 39.4 L472.5 39.1 L476 40 L479.5 42.3 L483 46 L486.5 51 L490 57.3 L493.5 64.5 L497 72.6 L500.5 81.1 L504 89.8 L507.5 98.3 L511 106.3 L514.5 113.4 L518 119.3 L521.5 123.7 L525 126.5 L528.5 127.5 L532 126.5 L535.5 123.7 L539 119.1 L542.5 113 L546 105.4 L549.5 96.9 L553 87.6 L556.5 78 L560 68.5 L563.5 59.3 L567 51 L570.5 43.7 L574 37.8 L577.5 33.4 L581 30.6 L584.5 29.5 L588 30 L591.5 32.1 L595 35.5 L598.5 40 L602 45.4 L605.5 51.4 L609 57.7 L612.5 64 L616 70.1 L619.5 75.7 L623 80.7 L626.5 84.9 L630 88.2 L633.5 90.7 L637 92.3 L640.5 93.2 L644 93.5 L647.5 93.2 L651 92.7 L654.5 92 L658 91.2 L661.5 90.6 L665 90.2 L668.5 90 L672 90.1 L675.5 90.5 L679 91 L682.5 91.7 L686 92.3 L689.5 92.7 L693 92.7 L696.5 92.2 L700 91 L703.5 89.1 L707 86.4 L710.5 82.8 L714 78.4 L717.5 73.3 L721 67.6 L724.5 61.5 L728 55.3 L731.5 49.1 L735 43.4 L738.5 38.4 L742 34.3 L745.5 31.5 L749 30 L752.5 30.1 L756 31.9 L759.5 35.3 L763 40.3 L766.5 46.7 L770 54.4 L773.5 63 L777 72.3 L780.5 81.9 L784 91.4 L787.5 100.4 L791 108.6 L794.5 115.6 L798 121.2 L801.5 125.1 L805 127.2 L808.5 127.4 L812 125.7 L815.5 122.3 L819 117.2 L822.5 110.8 L826 103.3 L829.5 95 L833 86.3 L836.5 77.5 L840 69.1 L843.5 61.2 L847 54.3 L850.5 48.5 L854 43.9 L857.5 40.7 L861 38.9 L864.5 38.5 L868 39.3 L871.5 41.1 L875 43.9 L878.5 47.4 L882 51.3 L885.5 55.5 L889 59.6 L892.5 63.6 L896 67.2 L899.5 70.4 L903 73 L906.5 75.1 L910 76.7 L913.5 77.9 L917 78.8 L920.5 79.4 L924 80 L927.5 80.7 L931 81.6 L934.5 82.8 L938 84.4 L941.5 86.4 L945 88.7 L948.5 91.3 L952 94.1 L955.5 97 L959 99.7 L962.5 102.1 L966 104 L969.5 105.1 L973 105.3 L976.5 104.5 L980 102.5 L983.5 99.3 L987 94.9 L990.5 89.4 L994 83 L997.5 75.7 L1001 67.9 L1004.5 59.9 L1008 52 L1011.5 44.5 L1015 37.8 L1018.5 32.1 L1022 27.8 L1025.5 25.1 L1029 24.1 L1032.5 24.9 L1036 27.5 L1039.5 31.9 L1043 38 L1046.5 45.4 L1050 53.9 L1053.5 63.3 L1057 73 L1060.5 82.8 L1064 92.1 L1067.5 100.8 L1071 108.4 L1074.5 114.7 L1078 119.5 L1081.5 122.5 L1085 123.8 L1088.5 123.3 L1092 121.1 L1095.5 117.4 L1099 112.4 L1102.5 106.4 L1106 99.7 L1109.5 92.5 L1113 85.2 L1116.5 78.2 L1120 71.5 L1123.5 65.6 L1127 60.5 L1130.5 56.4 L1134 53.3 L1137.5 51.3 L1141 50.2 L1144.5 50.1 L1148 50.7 L1151.5 51.8 L1155 53.4 L1158.5 55.2 L1162 57 L1165.5 58.8 L1169 60.3 L1172.5 61.5 L1176 62.4 L1179.5 63.1 L1183 63.4 L1186.5 63.7 L1190 63.9 L1193.5 64.2 L1197 64.7 L1200.5 65.7 L1204 67.1 L1207.5 69.2 L1211 71.9 L1214.5 75.3 L1218 79.3 L1221.5 83.9 L1225 88.8 L1228.5 94 L1232 99.1 L1235.5 104 L1239 108.3 L1242.5 111.9 L1246 114.4 L1249.5 115.8 L1253 115.7 L1256.5 114.2 L1260 111.1 L1263.5 106.5 L1267 100.6 L1270.5 93.4 L1274 85.3 L1277.5 76.4 " fill="none" stroke="#C8A24A" stroke-width="0.55" stroke-opacity="0.7"/><path d="M0 65.4 L3.5 57.8 L7 50.3 L10.5 43.4 L14 37.1 L17.5 32 L21 28.2 L24.5 25.9 L28 25.3 L31.5 26.6 L35 29.6 L38.5 34.3 L42 40.6 L45.5 48.3 L49 57 L52.5 66.4 L56 76.2 L59.5 85.9 L63 95.3 L66.5 103.8 L70 111.2 L73.5 117.3 L77 121.7 L80.5 124.4 L84 125.2 L87.5 124.3 L91 121.6 L94.5 117.5 L98 112 L101.5 105.4 L105 98.2 L108.5 90.5 L112 82.8 L115.5 75.3 L119 68.3 L122.5 62 L126 56.7 L129.5 52.5 L133 49.4 L136.5 47.5 L140 46.7 L143.5 46.8 L147 47.8 L150.5 49.4 L154 51.5 L157.5 53.9 L161 56.4 L164.5 58.8 L168 61 L171.5 62.9 L175 64.4 L178.5 65.6 L182 66.5 L185.5 67.2 L189 67.7 L192.5 68.2 L196 68.8 L199.5 69.8 L203 71.1 L206.5 72.9 L210 75.3 L213.5 78.3 L217 81.8 L220.5 85.8 L224 90.2 L227.5 94.7 L231 99.2 L234.5 103.5 L238 107.2 L241.5 110.3 L245 112.3 L248.5 113.2 L252 112.8 L255.5 111 L259 107.7 L262.5 103.1 L266 97.1 L269.5 90 L273 81.9 L276.5 73.3 L280 64.4 L283.5 55.5 L287 47 L290.5 39.4 L294 32.8 L297.5 27.6 L301 24.1 L304.5 22.4 L308 22.5 L311.5 24.5 L315 28.4 L318.5 33.9 L322 40.9 L325.5 49 L329 57.9 L332.5 67.3 L336 76.8 L339.5 86 L343 94.5 L346.5 102.1 L350 108.5 L353.5 113.4 L357 116.8 L360.5 118.5 L364 118.7 L367.5 117.3 L371 114.6 L374.5 110.8 L378 106 L381.5 100.6 L385 94.8 L388.5 88.9 L392 83.2 L395.5 77.8 L399 73 L402.5 68.9 L406 65.6 L409.5 63 L413 61.2 L416.5 60.1 L420 59.6 L423.5 59.5 L427 59.7 L430.5 60 L434 60.3 L437.5 60.5 L441 60.4 L444.5 60.1 L448 59.5 L451.5 58.7 L455 57.6 L458.5 56.5 L462 55.5 L465.5 54.7 L469 54.3 L472.5 54.5 L476 55.4 L479.5 57.2 L483 59.8 L486.5 63.3 L490 67.8 L493.5 73.1 L497 79 L500.5 85.4 L504 92.1 L507.5 98.7 L511 105 L514.5 110.6 L518 115.4 L521.5 118.9 L525 121.1 L528.5 121.7 L532 120.6 L535.5 117.8 L539 113.4 L542.5 107.4 L546 100.1 L549.5 91.6 L553 82.4 L556.5 72.8 L560 63.1 L563.5 53.8 L567 45.2 L570.5 37.6 L574 31.4 L577.5 26.8 L581 23.9 L584.5 22.9 L588 23.8 L591.5 26.5 L595 30.8 L598.5 36.6 L602 43.6 L605.5 51.4 L609 59.7 L612.5 68.2 L616 76.5 L619.5 84.3 L623 91.4 L626.5 97.4 L630 102.3 L633.5 105.9 L637 108.2 L640.5 109.1 L644 108.9 L647.5 107.6 L651 105.4 L654.5 102.5 L658 99.1 L661.5 95.5 L665 91.9 L668.5 88.4 L672 85.2 L675.5 82.4 L679 80 L682.5 78.1 L686 76.7 L689.5 75.6 L693 74.7 L696.5 74 L700 73.3 L703.5 72.5 L707 71.4 L710.5 69.9 L714 68 L717.5 65.7 L721 62.9 L724.5 59.9 L728 56.5 L731.5 53.2 L735 49.9 L738.5 46.9 L742 44.5 L745.5 42.8 L749 42.1 L752.5 42.4 L756 44 L759.5 46.9 L763 51 L766.5 56.3 L770 62.7 L773.5 70 L777 78 L780.5 86.3 L784 94.6 L787.5 102.5 L791 109.9 L794.5 116.2 L798 121.2 L801.5 124.7 L805 126.5 L808.5 126.5 L812 124.6 L815.5 120.8 L819 115.4 L822.5 108.5 L826 100.4 L829.5 91.4 L833 81.8 L836.5 72 L840 62.5 L843.5 53.6 L847 45.6 L850.5 38.8 L854 33.5 L857.5 29.9 L861 27.9 L864.5 27.7 L868 29.1 L871.5 32 L875 36.3 L878.5 41.7 L882 47.8 L885.5 54.5 L889 61.4 L892.5 68.2 L896 74.6 L899.5 80.4 L903 85.5 L906.5 89.7 L910 93 L913.5 95.2 L917 96.6 L920.5 97.1 L924 96.9 L927.5 96.2 L931 95.1 L934.5 93.8 L938 92.5 L941.5 91.2 L945 90.2 L948.5 89.5 L952 89 L955.5 88.8 L959 88.8 L962.5 88.9 L966 89.1 L969.5 89 L973 88.7 L976.5 87.9 L980 86.5 L983.5 84.5 L987 81.7 L990.5 78.2 L994 73.9 L997.5 69.1 L1001 63.8 L1004.5 58.2 L1008 52.5 L1011.5 47.1 L1015 42.1 L1018.5 37.9 L1022 34.7 L1025.5 32.7 L1029 32.1 L1032.5 33.1 L1036 35.6 L1039.5 39.7 L1043 45.2 L1046.5 52.1 L1050 60.1 L1053.5 68.9 L1057 78.2 L1060.5 87.6 L1064 96.8 L1067.5 105.3 L1071 112.9 L1074.5 119.1 L1078 123.8 L1081.5 126.8 L1085 127.9 L1088.5 127.1 L1092 124.5 L1095.5 120.1 L1099 114.1 L1102.5 106.9 L1106 98.8 L1109.5 89.9 L1113 80.9 L1116.5 71.9 L1120 63.4 L1123.5 55.7 L1127 49 L1130.5 43.5 L1134 39.4 L1137.5 36.8 L1141 35.7 L1144.5 36 L1148 37.5 L1151.5 40.2 L1155 43.8 L1158.5 48 L1162 52.7 L1165.5 57.5 L1169 62.2 L1172.5 66.7 L1176 70.7 L1179.5 74.2 L1183 77.1 L1186.5 79.4 L1190 81.1 L1193.5 82.3 L1197 83.1 L1200.5 83.6 L1204 84 L1207.5 84.4 L1211 85 L1214.5 85.8 L1218 86.9 L1221.5 88.3 L1225 90.1 L1228.5 92.1 L1232 94.3 L1235.5 96.5 L1239 98.6 L1242.5 100.3 L1246 101.5 L1249.5 102 L1253 101.7 L1256.5 100.3 L1260 97.9 L1263.5 94.4 L1267 89.8 L1270.5 84.2 L1274 77.8 L1277.5 70.7 " fill="none" stroke="#C8A24A" stroke-width="0.55" stroke-opacity="0.7"/><path d="M0 62 L3.5 57 L7 52 L10.5 47.1 L14 42.8 L17.5 39.1 L21 36.4 L24.5 34.9 L28 34.7 L31.5 35.9 L35 38.7 L38.5 43 L42 48.6 L45.5 55.5 L49 63.5 L52.5 72.2 L56 81.3 L59.5 90.4 L63 99.3 L66.5 107.5 L70 114.6 L73.5 120.5 L77 124.8 L80.5 127.3 L84 128 L87.5 126.7 L91 123.6 L94.5 118.8 L98 112.4 L101.5 104.8 L105 96.3 L108.5 87.2 L112 77.8 L115.5 68.7 L119 60 L122.5 52.2 L126 45.5 L129.5 40.1 L133 36.2 L136.5 33.9 L140 33.1 L143.5 33.8 L147 35.8 L150.5 39 L154 43.1 L157.5 47.9 L161 53.2 L164.5 58.6 L168 63.9 L171.5 69 L175 73.5 L178.5 77.5 L182 80.7 L185.5 83.3 L189 85.2 L192.5 86.4 L196 87.2 L199.5 87.5 L203 87.7 L206.5 87.7 L210 87.8 L213.5 88 L217 88.5 L220.5 89.3 L224 90.4 L227.5 91.7 L231 93.2 L234.5 94.8 L238 96.3 L241.5 97.5 L245 98.3 L248.5 98.5 L252 97.9 L255.5 96.5 L259 94 L262.5 90.6 L266 86.2 L269.5 80.8 L273 74.7 L276.5 68 L280 61 L283.5 53.9 L287 47.1 L290.5 40.8 L294 35.4 L297.5 31.1 L301 28.3 L304.5 26.9 L308 27.3 L311.5 29.4 L315 33.3 L318.5 38.7 L322 45.7 L325.5 53.8 L329 62.8 L332.5 72.4 L336 82.2 L339.5 91.8 L343 100.7 L346.5 108.8 L350 115.6 L353.5 120.8 L357 124.4 L360.5 126.2 L364 126.1 L367.5 124.2 L371 120.6 L374.5 115.5 L378 109.2 L381.5 101.9 L385 94 L388.5 85.9 L392 77.8 L395.5 70 L399 63 L402.5 56.8 L406 51.7 L409.5 47.8 L413 45.1 L416.5 43.6 L420 43.4 L423.5 44.1 L427 45.7 L430.5 48.1 L434 50.9 L437.5 53.9 L441 57 L444.5 60.1 L448 62.8 L451.5 65.3 L455 67.3 L458.5 68.9 L462 70.1 L465.5 71.1 L469 71.8 L472.5 72.5 L476 73.2 L479.5 74.1 L483 75.4 L486.5 77.1 L490 79.2 L493.5 81.9 L497 85 L500.5 88.5 L504 92.3 L507.5 96.2 L511 100 L514.5 103.6 L518 106.6 L521.5 108.8 L525 110.1 L528.5 110.3 L532 109.2 L535.5 106.8 L539 103 L542.5 97.9 L546 91.6 L549.5 84.4 L553 76.3 L556.5 67.9 L560 59.2 L563.5 50.8 L567 42.9 L570.5 36 L574 30.3 L577.5 26 L581 23.4 L584.5 22.7 L588 23.8 L591.5 26.8 L595 31.6 L598.5 37.9 L602 45.5 L605.5 54.2 L609 63.5 L612.5 73.2 L616 82.7 L619.5 91.8 L623 100.1 L626.5 107.3 L630 113.1 L633.5 117.4 L637 120 L640.5 120.9 L644 120.2 L647.5 118 L651 114.4 L654.5 109.7 L658 104.2 L661.5 98 L665 91.6 L668.5 85.2 L672 79 L675.5 73.4 L679 68.4 L682.5 64.2 L686 60.8 L689.5 58.4 L693 56.8 L696.5 56 L700 55.8 L703.5 56.1 L707 56.8 L710.5 57.6 L714 58.5 L717.5 59.2 L721 59.8 L724.5 60.1 L728 60.1 L731.5 59.8 L735 59.3 L738.5 58.8 L742 58.3 L745.5 58 L749 58.1 L752.5 58.7 L756 59.9 L759.5 61.8 L763 64.6 L766.5 68.2 L770 72.5 L773.5 77.6 L777 83.2 L780.5 89.2 L784 95.3 L787.5 101.3 L791 106.9 L794.5 111.8 L798 115.6 L801.5 118.3 L805 119.6 L808.5 119.3 L812 117.4 L815.5 113.9 L819 108.8 L822.5 102.2 L826 94.5 L829.5 85.8 L833 76.5 L836.5 66.9 L840 57.5 L843.5 48.5 L847 40.5 L850.5 33.6 L854 28.2 L857.5 24.5 L861 22.6 L864.5 22.6 L868 24.4 L871.5 28.1 L875 33.3 L878.5 39.9 L882 47.6 L885.5 56 L889 64.8 L892.5 73.6 L896 82.1 L899.5 89.9 L903 96.8 L906.5 102.6 L910 107 L913.5 110.1 L917 111.8 L920.5 112.1 L924 111.1 L927.5 109.1 L931 106.1 L934.5 102.5 L938 98.5 L941.5 94.2 L945 89.9 L948.5 85.8 L952 82.1 L955.5 78.9 L959 76.2 L962.5 74.1 L966 72.4 L969.5 71.2 L973 70.4 L976.5 69.7 L980 69.1 L983.5 68.5 L987 67.6 L990.5 66.5 L994 65 L997.5 63.2 L1001 61 L1004.5 58.5 L1008 55.8 L1011.5 53 L1015 50.5 L1018.5 48.2 L1022 46.5 L1025.5 45.5 L1029 45.4 L1032.5 46.3 L1036 48.4 L1039.5 51.6 L1043 56.1 L1046.5 61.6 L1050 68.1 L1053.5 75.3 L1057 83 L1060.5 91 L1064 98.8 L1067.5 106.1 L1071 112.7 L1074.5 118.2 L1078 122.3 L1081.5 124.9 L1085 125.7 L1088.5 124.7 L1092 121.9 L1095.5 117.3 L1099 111.1 L1102.5 103.6 L1106 94.9 L1109.5 85.6 L1113 75.8 L1116.5 66.1 L1120 56.7 L1123.5 48.1 L1127 40.6 L1130.5 34.4 L1134 29.9 L1137.5 27 L1141 25.9 L1144.5 26.6 L1148 28.9 L1151.5 32.8 L1155 37.9 L1158.5 44.1 L1162 51 L1165.5 58.3 L1169 65.7 L1172.5 72.8 L1176 79.5 L1179.5 85.5 L1183 90.5 L1186.5 94.6 L1190 97.6 L1193.5 99.6 L1197 100.5 L1200.5 100.6 L1204 99.9 L1207.5 98.6 L1211 96.9 L1214.5 95 L1218 93 L1221.5 91.2 L1225 89.5 L1228.5 88.2 L1232 87.1 L1235.5 86.4 L1239 86 L1242.5 85.6 L1246 85.4 L1249.5 85 L1253 84.4 L1256.5 83.5 L1260 82 L1263.5 79.9 L1267 77.2 L1270.5 73.9 L1274 69.9 L1277.5 65.4 " fill="none" stroke="#C8A24A" stroke-width="0.55" stroke-opacity="0.7"/><path d="M0 60.2 L3.5 58.4 L7 56.4 L10.5 54.3 L14 52.3 L17.5 50.6 L21 49.3 L24.5 48.7 L28 48.9 L31.5 50 L35 52.2 L38.5 55.5 L42 59.8 L45.5 65.1 L49 71.3 L52.5 78.2 L56 85.6 L59.5 93 L63 100.4 L66.5 107.2 L70 113.3 L73.5 118.2 L77 121.9 L80.5 124 L84 124.3 L87.5 122.9 L91 119.7 L94.5 114.8 L98 108.4 L101.5 100.6 L105 91.8 L108.5 82.4 L112 72.6 L115.5 62.9 L119 53.6 L122.5 45.2 L126 37.9 L129.5 32 L133 27.7 L136.5 25.2 L140 24.5 L143.5 25.7 L147 28.5 L150.5 32.9 L154 38.5 L157.5 45.2 L161 52.6 L164.5 60.4 L168 68.2 L171.5 75.8 L175 82.8 L178.5 89 L182 94.3 L185.5 98.4 L189 101.5 L192.5 103.3 L196 104 L199.5 103.8 L203 102.7 L206.5 100.9 L210 98.7 L213.5 96.1 L217 93.5 L220.5 91 L224 88.7 L227.5 86.7 L231 85 L234.5 83.8 L238 82.8 L241.5 82.1 L245 81.5 L248.5 81 L252 80.3 L255.5 79.4 L259 78 L262.5 76.2 L266 73.9 L269.5 70.9 L273 67.5 L276.5 63.6 L280 59.3 L283.5 54.9 L287 50.5 L290.5 46.4 L294 42.8 L297.5 40 L301 38.1 L304.5 37.3 L308 37.9 L311.5 39.8 L315 43.2 L318.5 47.9 L322 54 L325.5 61.2 L329 69.2 L332.5 77.8 L336 86.7 L339.5 95.5 L343 103.8 L346.5 111.4 L350 117.8 L353.5 122.8 L357 126.1 L360.5 127.6 L364 127.3 L367.5 125.1 L371 121 L374.5 115.3 L378 108.2 L381.5 100 L385 91 L388.5 81.5 L392 72 L395.5 62.8 L399 54.3 L402.5 46.8 L406 40.6 L409.5 35.8 L413 32.5 L416.5 30.9 L420 30.9 L423.5 32.5 L427 35.3 L430.5 39.4 L434 44.3 L437.5 49.9 L441 55.8 L444.5 61.8 L448 67.6 L451.5 73 L455 77.9 L458.5 82 L462 85.4 L465.5 87.9 L469 89.7 L472.5 90.7 L476 91.2 L479.5 91.2 L483 91 L486.5 90.5 L490 90.1 L493.5 89.8 L497 89.8 L500.5 90 L504 90.4 L507.5 91.2 L511 92.1 L514.5 93.1 L518 94 L521.5 94.7 L525 94.9 L528.5 94.7 L532 93.7 L535.5 91.9 L539 89.2 L542.5 85.7 L546 81.2 L549.5 76 L553 70.1 L556.5 63.8 L560 57.2 L563.5 50.7 L567 44.6 L570.5 39.1 L574 34.5 L577.5 31.1 L581 29.1 L584.5 28.7 L588 30 L591.5 32.9 L595 37.5 L598.5 43.6 L602 51 L605.5 59.5 L609 68.8 L612.5 78.4 L616 88 L619.5 97.3 L623 105.8 L626.5 113.2 L630 119.3 L633.5 123.7 L637 126.4 L640.5 127.2 L644 126.1 L647.5 123.2 L651 118.7 L654.5 112.8 L658 105.7 L661.5 97.7 L665 89.3 L668.5 80.8 L672 72.4 L675.5 64.6 L679 57.5 L682.5 51.5 L686 46.7 L689.5 43.2 L693 41.1 L696.5 40.2 L700 40.6 L703.5 42.1 L707 44.4 L710.5 47.4 L714 50.9 L717.5 54.7 L721 58.4 L724.5 62.1 L728 65.4 L731.5 68.3 L735 70.7 L738.5 72.7 L742 74.2 L745.5 75.3 L749 76.1 L752.5 76.8 L756 77.5 L759.5 78.4 L763 79.4 L766.5 80.8 L770 82.6 L773.5 84.9 L777 87.5 L780.5 90.5 L784 93.7 L787.5 96.9 L791 100.1 L794.5 102.9 L798 105.2 L801.5 106.7 L805 107.3 L808.5 106.8 L812 105.1 L815.5 102.2 L819 98 L822.5 92.6 L826 86.2 L829.5 78.9 L833 71 L836.5 62.8 L840 54.6 L843.5 46.7 L847 39.5 L850.5 33.3 L854 28.5 L857.5 25.2 L861 23.6 L864.5 23.8 L868 25.9 L871.5 29.8 L875 35.4 L878.5 42.4 L882 50.7 L885.5 59.8 L889 69.4 L892.5 79.2 L896 88.7 L899.5 97.5 L903 105.4 L906.5 112.1 L910 117.2 L913.5 120.8 L917 122.6 L920.5 122.6 L924 121 L927.5 117.9 L931 113.4 L934.5 107.9 L938 101.6 L941.5 94.8 L945 87.8 L948.5 80.9 L952 74.5 L955.5 68.6 L959 63.5 L962.5 59.3 L966 56.1 L969.5 53.9 L973 52.6 L976.5 52.2 L980 52.4 L983.5 53.3 L987 54.5 L990.5 55.9 L994 57.3 L997.5 58.7 L1001 59.9 L1004.5 60.7 L1008 61.3 L1011.5 61.6 L1015 61.7 L1018.5 61.7 L1022 61.6 L1025.5 61.8 L1029 62.2 L1032.5 63 L1036 64.4 L1039.5 66.4 L1043 69.2 L1046.5 72.7 L1050 76.9 L1053.5 81.7 L1057 86.9 L1060.5 92.4 L1064 97.9 L1067.5 103.2 L1071 108 L1074.5 112.1 L1078 115.1 L1081.5 116.9 L1085 117.4 L1088.5 116.3 L1092 113.6 L1095.5 109.4 L1099 103.7 L1102.5 96.8 L1106 88.7 L1109.5 79.9 L1113 70.6 L1116.5 61.3 L1120 52.2 L1123.5 43.8 L1127 36.4 L1130.5 30.3 L1134 25.7 L1137.5 22.9 L1141 22 L1144.5 23 L1148 25.9 L1151.5 30.5 L1155 36.6 L1158.5 43.9 L1162 52.2 L1165.5 61.1 L1169 70.2 L1172.5 79.2 L1176 87.7 L1179.5 95.4 L1183 102.1 L1186.5 107.5 L1190 111.4 L1193.5 113.9 L1197 114.9 L1200.5 114.4 L1204 112.7 L1207.5 109.9 L1211 106.1 L1214.5 101.8 L1218 97 L1221.5 92.1 L1225 87.2 L1228.5 82.7 L1232 78.5 L1235.5 75 L1239 72 L1242.5 69.7 L1246 68 L1249.5 66.8 L1253 66 L1256.5 65.6 L1260 65.2 L1263.5 64.9 L1267 64.4 L1270.5 63.7 L1274 62.7 L1277.5 61.4 " fill="none" stroke="#C8A24A" stroke-width="0.55" stroke-opacity="0.7"/><path d="M0 60.2 L3.5 61.8 L7 63 L10.5 63.9 L14 64.5 L17.5 65 L21 65.3 L24.5 65.7 L28 66.2 L31.5 67.1 L35 68.4 L38.5 70.3 L42 72.8 L45.5 75.9 L49 79.7 L52.5 83.9 L56 88.6 L59.5 93.5 L63 98.4 L66.5 103.1 L70 107.3 L73.5 110.8 L77 113.3 L80.5 114.7 L84 114.7 L87.5 113.3 L91 110.4 L94.5 106.1 L98 100.3 L101.5 93.3 L105 85.4 L108.5 76.7 L112 67.6 L115.5 58.5 L119 49.8 L122.5 41.7 L126 34.7 L129.5 29 L133 24.9 L136.5 22.6 L140 22.1 L143.5 23.6 L147 26.8 L150.5 31.9 L154 38.4 L157.5 46.1 L161 54.7 L164.5 63.9 L168 73.3 L171.5 82.5 L175 91.1 L178.5 98.9 L182 105.5 L185.5 110.8 L189 114.5 L192.5 116.8 L196 117.4 L199.5 116.6 L203 114.4 L206.5 111 L210 106.7 L213.5 101.7 L217 96.3 L220.5 90.8 L224 85.4 L227.5 80.3 L231 75.6 L234.5 71.6 L238 68.3 L241.5 65.8 L245 63.9 L248.5 62.7 L252 62 L255.5 61.7 L259 61.7 L262.5 61.7 L266 61.7 L269.5 61.6 L273 61.2 L276.5 60.5 L280 59.6 L283.5 58.3 L287 56.9 L290.5 55.5 L294 54.1 L297.5 53 L301 52.3 L304.5 52.2 L308 52.9 L311.5 54.4 L315 56.9 L318.5 60.4 L322 64.8 L325.5 70.2 L329 76.3 L332.5 82.9 L336 89.8 L339.5 96.8 L343 103.5 L346.5 109.6 L350 114.8 L353.5 118.9 L357 121.6 L360.5 122.8 L364 122.2 L367.5 119.9 L371 115.9 L374.5 110.3 L378 103.3 L381.5 95.1 L385 86 L388.5 76.4 L392 66.6 L395.5 57.1 L399 48.2 L402.5 40.3 L406 33.6 L409.5 28.5 L413 25.1 L416.5 23.6 L420 23.9 L423.5 26 L427 29.7 L430.5 35 L434 41.5 L437.5 48.9 L441 56.9 L444.5 65.1 L448 73.3 L451.5 81.1 L455 88.1 L458.5 94.3 L462 99.3 L465.5 103.2 L469 105.8 L472.5 107.1 L476 107.2 L479.5 106.4 L483 104.6 L486.5 102.1 L490 99.2 L493.5 96 L497 92.7 L500.5 89.6 L504 86.7 L507.5 84.2 L511 82.1 L514.5 80.4 L518 79.1 L521.5 78.1 L525 77.3 L528.5 76.6 L532 75.9 L535.5 75 L539 73.8 L542.5 72.2 L546 70.1 L549.5 67.5 L553 64.5 L556.5 61 L560 57.4 L563.5 53.6 L567 49.9 L570.5 46.5 L574 43.6 L577.5 41.5 L581 40.4 L584.5 40.3 L588 41.6 L591.5 44.1 L595 48 L598.5 53.1 L602 59.4 L605.5 66.7 L609 74.7 L612.5 83.2 L616 91.8 L619.5 100.1 L623 107.8 L626.5 114.6 L630 120.2 L633.5 124.2 L637 126.6 L640.5 127.2 L644 125.8 L647.5 122.6 L651 117.7 L654.5 111.3 L658 103.5 L661.5 94.7 L665 85.3 L668.5 75.6 L672 66.1 L675.5 57 L679 48.8 L682.5 41.7 L686 36 L689.5 31.9 L693 29.4 L696.5 28.7 L700 29.5 L703.5 32 L707 35.7 L710.5 40.6 L714 46.3 L717.5 52.6 L721 59.1 L724.5 65.6 L728 71.8 L731.5 77.6 L735 82.6 L738.5 86.8 L742 90.1 L745.5 92.5 L749 94.1 L752.5 94.8 L756 94.9 L759.5 94.5 L763 93.7 L766.5 92.8 L770 91.8 L773.5 90.9 L777 90.3 L780.5 89.9 L784 89.7 L787.5 89.9 L791 90.2 L794.5 90.7 L798 91.1 L801.5 91.3 L805 91.1 L808.5 90.5 L812 89.2 L815.5 87.3 L819 84.5 L822.5 80.9 L826 76.6 L829.5 71.5 L833 66 L836.5 60.1 L840 54.1 L843.5 48.2 L847 42.8 L850.5 38.1 L854 34.4 L857.5 31.9 L861 30.8 L864.5 31.2 L868 33.3 L871.5 37 L875 42.2 L878.5 48.9 L882 56.7 L885.5 65.4 L889 74.7 L892.5 84.2 L896 93.6 L899.5 102.4 L903 110.4 L906.5 117.1 L910 122.4 L913.5 125.9 L917 127.6 L920.5 127.4 L924 125.3 L927.5 121.5 L931 116.1 L934.5 109.3 L938 101.5 L941.5 93 L945 84.2 L948.5 75.3 L952 66.8 L955.5 59 L959 52.1 L962.5 46.4 L966 42.1 L969.5 39.1 L973 37.6 L976.5 37.4 L980 38.5 L983.5 40.7 L987 43.8 L990.5 47.6 L994 51.8 L997.5 56.2 L1001 60.6 L1004.5 64.7 L1008 68.5 L1011.5 71.8 L1015 74.6 L1018.5 76.8 L1022 78.4 L1025.5 79.7 L1029 80.5 L1032.5 81.1 L1036 81.7 L1039.5 82.3 L1043 83 L1046.5 84.1 L1050 85.5 L1053.5 87.2 L1057 89.3 L1060.5 91.7 L1064 94.3 L1067.5 96.9 L1071 99.3 L1074.5 101.5 L1078 103.1 L1081.5 103.9 L1085 103.9 L1088.5 102.9 L1092 100.7 L1095.5 97.4 L1099 92.9 L1102.5 87.3 L1106 80.9 L1109.5 73.7 L1113 66 L1116.5 58.1 L1120 50.4 L1123.5 43.2 L1127 36.8 L1130.5 31.5 L1134 27.5 L1137.5 25.2 L1141 24.6 L1144.5 25.7 L1148 28.8 L1151.5 33.5 L1155 39.8 L1158.5 47.5 L1162 56.2 L1165.5 65.6 L1169 75.4 L1172.5 85.1 L1176 94.4 L1179.5 103 L1183 110.4 L1186.5 116.4 L1190 120.8 L1193.5 123.5 L1197 124.4 L1200.5 123.5 L1204 121 L1207.5 117 L1211 111.6 L1214.5 105.3 L1218 98.3 L1221.5 90.9 L1225 83.4 L1228.5 76.2 L1232 69.5 L1235.5 63.5 L1239 58.5 L1242.5 54.4 L1246 51.5 L1249.5 49.6 L1253 48.7 L1256.5 48.8 L1260 49.6 L1263.5 51 L1267 52.8 L1270.5 54.9 L1274 57 L1277.5 58.9 " fill="none" stroke="#C8A24A" stroke-width="0.55" stroke-opacity="0.7"/><path d="M0 62 L3.5 66.8 L7 71.1 L10.5 74.9 L14 78.1 L17.5 80.6 L21 82.5 L24.5 83.8 L28 84.6 L31.5 85.1 L35 85.5 L38.5 85.7 L42 86.1 L45.5 86.6 L49 87.4 L52.5 88.5 L56 90 L59.5 91.7 L63 93.6 L66.5 95.5 L70 97.4 L73.5 99 L77 100.1 L80.5 100.6 L84 100.3 L87.5 99.1 L91 96.9 L94.5 93.6 L98 89.2 L101.5 83.8 L105 77.6 L108.5 70.8 L112 63.6 L115.5 56.2 L119 49 L122.5 42.3 L126 36.4 L129.5 31.6 L133 28.1 L136.5 26.2 L140 26 L143.5 27.6 L147 31 L150.5 36 L154 42.6 L157.5 50.5 L161 59.3 L164.5 68.8 L168 78.6 L171.5 88.3 L175 97.5 L178.5 105.9 L182 113 L185.5 118.8 L189 122.9 L192.5 125.2 L196 125.7 L199.5 124.3 L203 121.3 L206.5 116.8 L210 110.9 L213.5 104.1 L217 96.6 L220.5 88.7 L224 80.8 L227.5 73.2 L231 66.2 L234.5 59.9 L238 54.7 L241.5 50.6 L245 47.7 L248.5 45.9 L252 45.3 L255.5 45.7 L259 46.9 L262.5 48.8 L266 51.2 L269.5 53.8 L273 56.6 L276.5 59.2 L280 61.6 L283.5 63.8 L287 65.5 L290.5 66.9 L294 67.9 L297.5 68.7 L301 69.3 L304.5 69.9 L308 70.6 L311.5 71.5 L315 72.8 L318.5 74.6 L322 76.9 L325.5 79.8 L329 83.2 L332.5 87 L336 91.1 L339.5 95.4 L343 99.6 L346.5 103.6 L350 107.1 L353.5 109.8 L357 111.5 L360.5 112.1 L364 111.4 L367.5 109.4 L371 105.9 L374.5 101 L378 94.9 L381.5 87.7 L385 79.7 L388.5 71.1 L392 62.3 L395.5 53.5 L399 45.3 L402.5 37.9 L406 31.7 L409.5 26.9 L413 23.7 L416.5 22.4 L420 22.9 L423.5 25.4 L427 29.6 L430.5 35.4 L434 42.7 L437.5 51 L441 60.1 L444.5 69.7 L448 79.2 L451.5 88.3 L455 96.8 L458.5 104.2 L462 110.4 L465.5 115 L469 118.1 L472.5 119.6 L476 119.4 L479.5 117.7 L483 114.6 L486.5 110.4 L490 105.4 L493.5 99.6 L497 93.6 L500.5 87.5 L504 81.6 L507.5 76.1 L511 71.2 L514.5 67 L518 63.7 L521.5 61.2 L525 59.4 L528.5 58.4 L532 58 L535.5 58.1 L539 58.4 L542.5 59 L546 59.5 L549.5 59.9 L553 60.1 L556.5 60 L560 59.6 L563.5 59 L567 58.2 L570.5 57.4 L574 56.6 L577.5 56 L581 55.8 L584.5 56.1 L588 57.2 L591.5 59 L595 61.7 L598.5 65.3 L602 69.7 L605.5 74.9 L609 80.8 L612.5 87 L616 93.5 L619.5 99.8 L623 105.8 L626.5 111.2 L630 115.6 L633.5 118.8 L637 120.6 L640.5 120.8 L644 119.4 L647.5 116.3 L651 111.6 L654.5 105.4 L658 97.8 L661.5 89.3 L665 80 L668.5 70.4 L672 60.8 L675.5 51.6 L679 43.2 L682.5 35.9 L686 30 L689.5 25.8 L693 23.3 L696.5 22.7 L700 24 L703.5 27 L707 31.8 L710.5 37.9 L714 45.1 L717.5 53.2 L721 61.7 L724.5 70.3 L728 78.7 L731.5 86.5 L735 93.5 L738.5 99.5 L742 104.2 L745.5 107.6 L749 109.7 L752.5 110.4 L756 109.9 L759.5 108.3 L763 105.8 L766.5 102.6 L770 99 L773.5 95.1 L777 91.2 L780.5 87.5 L784 84 L787.5 81.1 L791 78.5 L794.5 76.5 L798 75 L801.5 73.8 L805 73 L808.5 72.3 L812 71.6 L815.5 70.8 L819 69.8 L822.5 68.5 L826 66.8 L829.5 64.6 L833 62.1 L836.5 59.2 L840 56.1 L843.5 53 L847 50 L850.5 47.3 L854 45.2 L857.5 43.8 L861 43.3 L864.5 43.9 L868 45.7 L871.5 48.7 L875 53 L878.5 58.4 L882 64.9 L885.5 72.2 L889 80 L892.5 88.2 L896 96.3 L899.5 104.1 L903 111.1 L906.5 117.1 L910 121.8 L913.5 124.9 L917 126.3 L920.5 125.9 L924 123.6 L927.5 119.5 L931 113.8 L934.5 106.6 L938 98.3 L941.5 89.1 L945 79.4 L948.5 69.6 L952 60.2 L955.5 51.4 L959 43.6 L962.5 37 L966 32 L969.5 28.6 L973 27 L976.5 27.1 L980 28.9 L983.5 32.2 L987 36.9 L990.5 42.6 L994 49 L997.5 55.9 L1001 63 L1004.5 70 L1008 76.5 L1011.5 82.4 L1015 87.5 L1018.5 91.7 L1022 94.8 L1025.5 97 L1029 98.2 L1032.5 98.5 L1036 98.2 L1039.5 97.2 L1043 95.9 L1046.5 94.4 L1050 92.8 L1053.5 91.3 L1057 90 L1060.5 89 L1064 88.3 L1067.5 87.9 L1071 87.7 L1074.5 87.7 L1078 87.6 L1081.5 87.5 L1085 87 L1088.5 86.1 L1092 84.7 L1095.5 82.6 L1099 79.9 L1102.5 76.4 L1106 72.3 L1109.5 67.6 L1113 62.4 L1116.5 57.1 L1120 51.7 L1123.5 46.5 L1127 41.8 L1130.5 38 L1134 35.1 L1137.5 33.4 L1141 33.2 L1144.5 34.4 L1148 37.2 L1151.5 41.5 L1155 47.3 L1158.5 54.4 L1162 62.4 L1165.5 71.3 L1169 80.5 L1172.5 89.8 L1176 98.8 L1179.5 107.1 L1183 114.4 L1186.5 120.3 L1190 124.7 L1193.5 127.3 L1197 128 L1200.5 126.8 L1204 123.7 L1207.5 119 L1211 112.7 L1214.5 105.2 L1218 96.8 L1221.5 87.8 L1225 78.6 L1228.5 69.6 L1232 61.1 L1235.5 53.5 L1239 46.9 L1242.5 41.6 L1246 37.8 L1249.5 35.4 L1253 34.6 L1256.5 35.2 L1260 37.1 L1263.5 40.1 L1267 44 L1270.5 48.5 L1274 53.4 L1277.5 58.4 " fill="none" stroke="#C8A24A" stroke-width="0.55" stroke-opacity="0.7"/><path d="M0 65.4 L3.5 72.7 L7 79.7 L10.5 85.9 L14 91.2 L17.5 95.5 L21 98.7 L24.5 100.8 L28 101.9 L31.5 102 L35 101.2 L38.5 99.8 L42 98 L45.5 95.9 L49 93.7 L52.5 91.5 L56 89.5 L59.5 87.9 L63 86.5 L66.5 85.5 L70 84.8 L73.5 84.3 L77 83.9 L80.5 83.5 L84 82.9 L87.5 82 L91 80.7 L94.5 78.8 L98 76.3 L101.5 73.3 L105 69.6 L108.5 65.4 L112 60.9 L115.5 56.1 L119 51.3 L122.5 46.8 L126 42.7 L129.5 39.4 L133 37 L136.5 35.8 L140 35.9 L143.5 37.4 L147 40.4 L150.5 44.9 L154 50.8 L157.5 57.8 L161 65.8 L164.5 74.4 L168 83.5 L171.5 92.5 L175 101.2 L178.5 109.1 L182 116 L185.5 121.5 L189 125.4 L192.5 127.5 L196 127.8 L199.5 126.2 L203 122.7 L206.5 117.5 L210 110.8 L213.5 103 L217 94.2 L220.5 84.9 L224 75.5 L227.5 66.3 L231 57.7 L234.5 50 L238 43.5 L241.5 38.3 L245 34.7 L248.5 32.6 L252 32.1 L255.5 33.1 L259 35.5 L262.5 39 L266 43.5 L269.5 48.6 L273 54.1 L276.5 59.8 L280 65.3 L283.5 70.5 L287 75.2 L290.5 79.3 L294 82.6 L297.5 85.1 L301 87 L304.5 88.2 L308 88.8 L311.5 89.1 L315 89 L318.5 88.9 L322 88.8 L325.5 88.8 L329 89.1 L332.5 89.6 L336 90.5 L339.5 91.6 L343 92.9 L346.5 94.2 L350 95.4 L353.5 96.5 L357 97 L360.5 97 L364 96.3 L367.5 94.7 L371 92.1 L374.5 88.6 L378 84.2 L381.5 78.8 L385 72.8 L388.5 66.3 L392 59.4 L395.5 52.6 L399 46 L402.5 40 L406 35 L409.5 31 L413 28.5 L416.5 27.6 L420 28.3 L423.5 30.7 L427 34.9 L430.5 40.6 L434 47.8 L437.5 56.1 L441 65.2 L444.5 74.8 L448 84.6 L451.5 94 L455 102.8 L458.5 110.6 L462 117.1 L465.5 122.1 L469 125.3 L472.5 126.7 L476 126.2 L479.5 123.9 L483 119.9 L486.5 114.5 L490 107.9 L493.5 100.3 L497 92.2 L500.5 83.9 L504 75.6 L507.5 67.9 L511 60.8 L514.5 54.7 L518 49.7 L521.5 45.9 L525 43.4 L528.5 42.2 L532 42.2 L535.5 43.2 L539 45.1 L542.5 47.7 L546 50.8 L549.5 54.1 L553 57.5 L556.5 60.8 L560 63.8 L563.5 66.4 L567 68.6 L570.5 70.4 L574 71.7 L577.5 72.7 L581 73.5 L584.5 74.2 L588 75 L591.5 75.9 L595 77 L598.5 78.6 L602 80.6 L605.5 83.1 L609 86.1 L612.5 89.4 L616 92.9 L619.5 96.6 L623 100.1 L626.5 103.4 L630 106.1 L633.5 108.1 L637 109.1 L640.5 109 L644 107.6 L647.5 105 L651 101 L654.5 95.8 L658 89.5 L661.5 82.2 L665 74.2 L668.5 65.8 L672 57.3 L675.5 49.1 L679 41.5 L682.5 34.8 L686 29.5 L689.5 25.6 L693 23.4 L696.5 23 L700 24.6 L703.5 27.9 L707 33 L710.5 39.6 L714 47.5 L717.5 56.4 L721 65.9 L724.5 75.6 L728 85.1 L731.5 94.1 L735 102.3 L738.5 109.3 L742 114.8 L745.5 118.8 L749 121.1 L752.5 121.7 L756 120.6 L759.5 118.1 L763 114.1 L766.5 109.1 L770 103.2 L773.5 96.8 L777 90.2 L780.5 83.6 L784 77.3 L787.5 71.5 L791 66.4 L794.5 62.2 L798 58.9 L801.5 56.6 L805 55.1 L808.5 54.4 L812 54.4 L815.5 54.9 L819 55.8 L822.5 56.8 L826 57.9 L829.5 58.9 L833 59.7 L836.5 60.2 L840 60.5 L843.5 60.5 L847 60.2 L850.5 59.9 L854 59.6 L857.5 59.5 L861 59.7 L864.5 60.4 L868 61.7 L871.5 63.7 L875 66.4 L878.5 70 L882 74.3 L885.5 79.3 L889 84.8 L892.5 90.6 L896 96.5 L899.5 102.2 L903 107.4 L906.5 112 L910 115.5 L913.5 117.9 L917 118.8 L920.5 118.2 L924 116 L927.5 112.1 L931 106.8 L934.5 100.1 L938 92.2 L941.5 83.4 L945 74.1 L948.5 64.6 L952 55.3 L955.5 46.6 L959 38.8 L962.5 32.2 L966 27.1 L969.5 23.8 L973 22.3 L976.5 22.7 L980 24.9 L983.5 28.9 L987 34.5 L990.5 41.4 L994 49.4 L997.5 58 L1001 66.9 L1004.5 75.8 L1008 84.3 L1011.5 92.1 L1015 98.9 L1018.5 104.6 L1022 108.8 L1025.5 111.7 L1029 113.1 L1032.5 113.1 L1036 111.9 L1039.5 109.5 L1043 106.2 L1046.5 102.3 L1050 98 L1053.5 93.4 L1057 88.9 L1060.5 84.6 L1064 80.8 L1067.5 77.4 L1071 74.6 L1074.5 72.4 L1078 70.7 L1081.5 69.5 L1085 68.6 L1088.5 68 L1092 67.5 L1095.5 67 L1099 66.3 L1102.5 65.3 L1106 64 L1109.5 62.4 L1113 60.4 L1116.5 58.1 L1120 55.7 L1123.5 53.2 L1127 50.9 L1130.5 48.9 L1134 47.4 L1137.5 46.7 L1141 46.8 L1144.5 47.9 L1148 50.2 L1151.5 53.6 L1155 58.1 L1158.5 63.7 L1162 70.2 L1165.5 77.4 L1169 85 L1172.5 92.7 L1176 100.3 L1179.5 107.4 L1183 113.6 L1186.5 118.8 L1190 122.6 L1193.5 124.7 L1197 125.2 L1200.5 123.8 L1204 120.6 L1207.5 115.7 L1211 109.2 L1214.5 101.5 L1218 92.7 L1221.5 83.2 L1225 73.4 L1228.5 63.7 L1232 54.4 L1235.5 46 L1239 38.7 L1242.5 32.8 L1246 28.6 L1249.5 26 L1253 25.3 L1256.5 26.4 L1260 29.1 L1263.5 33.3 L1267 38.8 L1270.5 45.3 L1274 52.4 L1277.5 60 " fill="none" stroke="#C8A24A" stroke-width="0.55" stroke-opacity="0.7"/><path d="M0 69.9 L3.5 79 L7 87.7 L10.5 95.6 L14 102.4 L17.5 108 L21 112.1 L24.5 114.8 L28 115.9 L31.5 115.5 L35 113.8 L38.5 111 L42 107.1 L45.5 102.6 L49 97.7 L52.5 92.5 L56 87.4 L59.5 82.5 L63 78.1 L66.5 74.3 L70 71.1 L73.5 68.5 L77 66.6 L80.5 65.3 L84 64.5 L87.5 64 L91 63.8 L94.5 63.6 L98 63.3 L101.5 62.9 L105 62.2 L108.5 61.2 L112 59.9 L115.5 58.3 L119 56.5 L122.5 54.7 L126 52.9 L129.5 51.5 L133 50.4 L136.5 50 L140 50.4 L143.5 51.8 L147 54.1 L150.5 57.4 L154 61.8 L157.5 67.2 L161 73.4 L164.5 80.1 L168 87.3 L171.5 94.6 L175 101.7 L178.5 108.2 L182 114 L185.5 118.6 L189 121.9 L192.5 123.6 L196 123.6 L199.5 121.8 L203 118.3 L206.5 113.1 L210 106.4 L213.5 98.4 L217 89.5 L220.5 80 L224 70.2 L227.5 60.5 L231 51.4 L234.5 43.2 L238 36.1 L241.5 30.5 L245 26.6 L248.5 24.5 L252 24.2 L255.5 25.7 L259 28.9 L262.5 33.6 L266 39.6 L269.5 46.6 L273 54.2 L276.5 62.2 L280 70.2 L283.5 77.9 L287 84.9 L290.5 91.1 L294 96.3 L297.5 100.4 L301 103.2 L304.5 104.9 L308 105.4 L311.5 104.9 L315 103.5 L318.5 101.5 L322 99 L325.5 96.2 L329 93.3 L332.5 90.5 L336 88 L339.5 85.8 L343 83.9 L346.5 82.5 L350 81.4 L353.5 80.5 L357 79.9 L360.5 79.3 L364 78.5 L367.5 77.6 L371 76.3 L374.5 74.5 L378 72.3 L381.5 69.5 L385 66.2 L388.5 62.5 L392 58.5 L395.5 54.3 L399 50.2 L402.5 46.4 L406 43.1 L409.5 40.5 L413 38.9 L416.5 38.4 L420 39.3 L423.5 41.5 L427 45.1 L430.5 50 L434 56.2 L437.5 63.4 L441 71.4 L444.5 80 L448 88.8 L451.5 97.4 L455 105.5 L458.5 112.7 L462 118.8 L465.5 123.4 L469 126.4 L472.5 127.6 L476 126.8 L479.5 124.2 L483 119.8 L486.5 113.8 L490 106.4 L493.5 97.9 L497 88.7 L500.5 79.2 L504 69.6 L507.5 60.5 L511 52.1 L514.5 44.7 L518 38.7 L521.5 34.2 L525 31.2 L528.5 29.9 L532 30.3 L535.5 32.2 L539 35.4 L542.5 39.8 L546 45 L549.5 50.9 L553 57 L556.5 63.3 L560 69.2 L563.5 74.8 L567 79.7 L570.5 83.9 L574 87.3 L577.5 89.8 L581 91.4 L584.5 92.4 L588 92.7 L591.5 92.6 L595 92.1 L598.5 91.5 L602 90.9 L605.5 90.4 L609 90 L612.5 90 L616 90.2 L619.5 90.7 L623 91.4 L626.5 92.2 L630 92.9 L633.5 93.3 L637 93.5 L640.5 93 L644 91.9 L647.5 90.1 L651 87.3 L654.5 83.7 L658 79.3 L661.5 74.2 L665 68.4 L668.5 62.2 L672 55.9 L675.5 49.6 L679 43.8 L682.5 38.6 L686 34.4 L689.5 31.3 L693 29.7 L696.5 29.6 L700 31.2 L703.5 34.5 L707 39.3 L710.5 45.7 L714 53.3 L717.5 61.9 L721 71.2 L724.5 80.8 L728 90.3 L731.5 99.4 L735 107.7 L738.5 114.9 L742 120.6 L745.5 124.7 L749 127 L752.5 127.4 L756 125.9 L759.5 122.6 L763 117.8 L766.5 111.5 L770 104.1 L773.5 95.9 L777 87.3 L780.5 78.6 L784 70.2 L787.5 62.3 L791 55.4 L794.5 49.5 L798 44.8 L801.5 41.5 L805 39.6 L808.5 39 L812 39.7 L815.5 41.4 L819 44.1 L822.5 47.4 L826 51.2 L829.5 55.2 L833 59.2 L836.5 63 L840 66.6 L843.5 69.6 L847 72.2 L850.5 74.3 L854 75.9 L857.5 77 L861 77.9 L864.5 78.6 L868 79.2 L871.5 80 L875 80.9 L878.5 82.2 L882 83.8 L885.5 85.9 L889 88.3 L892.5 91.1 L896 94 L899.5 97 L903 99.9 L906.5 102.4 L910 104.4 L913.5 105.7 L917 106 L920.5 105.3 L924 103.4 L927.5 100.3 L931 96 L934.5 90.5 L938 84 L941.5 76.8 L945 68.9 L948.5 60.9 L952 52.8 L955.5 45.2 L959 38.3 L962.5 32.5 L966 28 L969.5 25.1 L973 23.9 L976.5 24.5 L980 27 L983.5 31.2 L987 37.1 L990.5 44.4 L994 52.8 L997.5 62.1 L1001 71.8 L1004.5 81.6 L1008 91 L1011.5 99.7 L1015 107.5 L1018.5 113.9 L1022 118.7 L1025.5 121.9 L1029 123.4 L1032.5 123.1 L1036 121.1 L1039.5 117.6 L1043 112.8 L1046.5 107 L1050 100.4 L1053.5 93.3 L1057 86.1 L1060.5 79.1 L1064 72.5 L1067.5 66.6 L1071 61.5 L1074.5 57.3 L1078 54.2 L1081.5 52.1 L1085 51 L1088.5 50.8 L1092 51.2 L1095.5 52.3 L1099 53.7 L1102.5 55.4 L1106 57.1 L1109.5 58.7 L1113 60.1 L1116.5 61.2 L1120 62 L1123.5 62.6 L1127 62.8 L1130.5 63 L1134 63.1 L1137.5 63.3 L1141 63.8 L1144.5 64.8 L1148 66.2 L1151.5 68.3 L1155 71 L1158.5 74.4 L1162 78.5 L1165.5 83.2 L1169 88.2 L1172.5 93.5 L1176 98.7 L1179.5 103.8 L1183 108.3 L1186.5 112 L1190 114.7 L1193.5 116.2 L1197 116.3 L1200.5 114.9 L1204 112 L1207.5 107.5 L1211 101.6 L1214.5 94.5 L1218 86.4 L1221.5 77.6 L1225 68.4 L1228.5 59.1 L1232 50.2 L1235.5 42 L1239 34.9 L1242.5 29.1 L1246 25 L1249.5 22.6 L1253 22.1 L1256.5 23.4 L1260 26.7 L1263.5 31.6 L1267 38 L1270.5 45.7 L1274 54.2 L1277.5 63.3 " fill="none" stroke="#C8A24A" stroke-width="0.55" stroke-opacity="0.7"/></svg>