<svg xmlns="http://www.w3.org/2000/svg" width="240" height="240" viewBox="0 0 240 240"><path d="M232 120 L232 120 L231.8 120 L231.6 120 L231.3 120 L231 120 L230.5 120 L230 120 L229.4 120 L228.7 120 L227.9 120.1 L227 120.1 L226.1 120.1 L225.1 120.1 L224 120.2 L222.8 120.2 L221.6 120.2 L220.3 120.3 L218.9 120.3 L217.4 120.4 L215.9 120.4 L214.3 120.5 L212.6 120.6 L210.9 120.7 L209.1 120.8 L207.2 120.9 L205.3 121 L203.3 121.1 L201.2 121.2 L199.1 121.3 L196.9 121.5 L194.7 121.6 L192.4 121.7 L190.1 121.9 L187.7 122.1 L185.2 122.3 L182.7 122.4 L180.2 122.6 L177.6 122.8 L175 123 L172.3 123.3 L169.7 123.5 L166.9 123.7 L164.2 124 L161.4 124.2 L158.5 124.5 L155.7 124.8 L152.8 125.1 L149.9 125.3 L147 125.6 L144 125.9 L141.1 126.3 L138.1 126.6 L135.1 126.9 L132.1 127.2 L129.1 127.6 L126.1 127.9 L123.1 128.3 L120.1 128.7 L117.1 129 L114.1 129.4 L111.1 129.8 L108.1 130.2 L105.1 130.6 L102.2 131 L99.2 131.4 L96.3 131.8 L93.4 132.2 L90.5 132.6 L87.6 133 L84.8 133.4 L81.9 133.8 L79.1 134.3 L76.4 134.7 L73.7 135.1 L71 135.5 L68.3 136 L65.7 136.4 L63.2 136.8 L60.6 137.2 L58.2 137.6 L55.7 138 L53.3 138.5 L51 138.9 L48.7 139.3 L46.5 139.7 L44.3 140.1 L42.2 140.4 L40.2 140.8 L38.2 141.2 L36.3 141.6 L34.4 141.9 L32.6 142.3 L30.9 142.6 L29.2 142.9 L27.6 143.3 L26.1 143.6 L24.6 143.9 L23.2 144.2 L21.9 144.4 L20.6 144.7 L19.5 145 L18.4 145.2 L17.4 145.4 L16.4 145.6 L15.6 145.8 L14.8 146 L14.1 146.1 L13.4 146.3 L12.9 146.4 L12.4 146.5 L12 146.6 L11.7 146.7 L11.5 146.7 L11.3 146.8 L11.3 146.8 L11.3 146.8 L11.4 146.8 L11.5 146.7 L11.8 146.7 L12.1 146.6 L12.5 146.5 L13 146.4 L13.6 146.2 L14.2 146 L14.9 145.8 L15.7 145.6 L16.6 145.4 L17.5 145.1 L18.6 144.9 L19.7 144.6 L20.8 144.2 L22.1 143.9 L23.4 143.5 L24.8 143.1 L26.2 142.7 L27.7 142.2 L29.3 141.8 L30.9 141.3 L32.7 140.8 L34.4 140.2 L36.3 139.7 L38.2 139.1 L40.1 138.5 L42.1 137.9 L44.2 137.2 L46.3 136.6 L48.4 135.9 L50.7 135.2 L52.9 134.5 L55.2 133.7 L57.6 132.9 L60 132.2 L62.4 131.4 L64.9 130.5 L67.4 129.7 L70 128.8 L72.5 127.9 L75.2 127.1 L77.8 126.1 L80.5 125.2 L83.2 124.3 L85.9 123.3 L88.6 122.3 L91.4 121.4 L94.2 120.4 L97 119.4 L99.8 118.3 L102.6 117.3 L105.4 116.3 L108.2 115.2 L111.1 114.2 L113.9 113.1 L116.7 112 L119.6 110.9 L122.4 109.9 L125.2 108.8 L128 107.7 L130.8 106.6 L133.6 105.5 L136.4 104.4 L139.2 103.3 L141.9 102.2 L144.6 101.1 L147.3 100 L150 98.9 L152.6 97.9 L155.3 96.8 L157.8 95.7 L160.4 94.6 L162.9 93.6 L165.4 92.5 L167.8 91.5 L170.3 90.5 L172.6 89.5 L174.9 88.5 L177.2 87.5 L179.5 86.5 L181.6 85.5 L183.8 84.6 L185.9 83.7 L187.9 82.8 L189.9 81.9 L191.8 81 L193.7 80.2 L195.5 79.3 L197.2 78.5 L198.9 77.8 L200.5 77 L202.1 76.3 L203.6 75.6 L205 74.9 L206.4 74.2 L207.7 73.6 L209 73 L210.1 72.4 L211.2 71.9 L212.3 71.4 L213.2 70.9 L214.1 70.5 L214.9 70.1 L215.7 69.7 L216.4 69.4 L217 69.1 L217.5 68.8 L218 68.6 L218.3 68.4 L218.7 68.2 L218.9 68.1 L219.1 68 L219.1 68 L219.2 68 L219.1 68 L219 68 L218.8 68.2 L218.5 68.3 L218.2 68.5 L217.8 68.7 L217.3 69 L216.7 69.3 L216.1 69.6 L215.4 70 L214.6 70.4 L213.8 70.9 L212.9 71.4 L211.9 71.9 L210.9 72.5 L209.8 73.1 L208.7 73.8 L207.4 74.5 L206.2 75.2 L204.8 76 L203.4 76.8 L201.9 77.7 L200.4 78.6 L198.9 79.5 L197.2 80.5 L195.6 81.5 L193.8 82.5 L192 83.6 L190.2 84.7 L188.3 85.8 L186.4 87 L184.5 88.2 L182.4 89.4 L180.4 90.7 L178.3 92 L176.2 93.3 L174 94.7 L171.8 96.1 L169.6 97.5 L167.3 98.9 L165.1 100.4 L162.7 101.8 L160.4 103.4 L158 104.9 L155.7 106.4 L153.3 108 L150.8 109.6 L148.4 111.2 L145.9 112.8 L143.5 114.5 L141 116.1 L138.5 117.8 L136 119.5 L133.5 121.2 L131 122.9 L128.5 124.6 L126 126.3 L123.6 128 L121.1 129.7 L118.6 131.5 L116.1 133.2 L113.6 134.9 L111.2 136.7 L108.7 138.4 L106.3 140.1 L103.9 141.8 L101.5 143.6 L99.2 145.3 L96.8 147 L94.5 148.7 L92.2 150.3 L89.9 152 L87.7 153.7 L85.5 155.3 L83.3 156.9 L81.2 158.5 L79.1 160.1 L77 161.7 L75 163.2 L73 164.7 L71 166.2 L69.1 167.7 L67.3 169.1 L65.4 170.5 L63.7 171.9 L61.9 173.2 L60.3 174.5 L58.6 175.8 L57.1 177.1 L55.5 178.3 L54.1 179.5 L52.6 180.6 L51.3 181.7 L50 182.8 L48.7 183.8 L47.5 184.8 L46.4 185.7 L45.3 186.6 L44.3 187.4 L43.3 188.2 L42.4 189 L41.5 189.7 L40.8 190.3 L40 191 L39.4 191.5 L38.8 192 L38.2 192.5 L37.8 192.9 L37.3 193.2 L37 193.5 L36.7 193.8 L36.5 194 L36.3 194.1 L36.2 194.2 L36.2 194.3 L36.2 194.3 L36.3 194.2 L36.4 194 L36.6 193.9 L36.9 193.6 L37.2 193.3 L37.6 193 L38 192.6 L38.5 192.1 L39.1 191.6 L39.7 191 L40.4 190.4 L41.1 189.7 L41.9 189 L42.8 188.2 L43.7 187.3 L44.6 186.4 L45.6 185.5 L46.6 184.5 L47.7 183.4 L48.9 182.3 L50.1 181.2 L51.3 180 L52.6 178.7 L53.9 177.4 L55.3 176 L56.7 174.6 L58.2 173.2 L59.7 171.7 L61.2 170.2 L62.8 168.6 L64.4 166.9 L66 165.3 L67.7 163.6 L69.4 161.8 L71.2 160.1 L72.9 158.2 L74.7 156.4 L76.5 154.5 L78.4 152.6 L80.2 150.6 L82.1 148.6 L84 146.6 L85.9 144.6 L87.9 142.5 L89.8 140.4 L91.8 138.3 L93.8 136.2 L95.8 134 L97.8 131.8 L99.8 129.6 L101.8 127.4 L103.8 125.2 L105.8 123 L107.8 120.7 L109.8 118.5 L111.8 116.2 L113.9 113.9 L115.9 111.7 L117.9 109.4 L119.9 107.1 L121.8 104.8 L123.8 102.6 L125.8 100.3 L127.7 98.1 L129.7 95.8 L131.6 93.6 L133.5 91.3 L135.3 89.1 L137.2 86.9 L139 84.7 L140.8 82.6 L142.6 80.4 L144.4 78.3 L146.1 76.2 L147.8 74.1 L149.5 72.1 L151.2 70 L152.8 68 L154.4 66.1 L155.9 64.2 L157.4 62.3 L158.9 60.4 L160.3 58.6 L161.8 56.8 L163.1 55.1 L164.5 53.4 L165.7 51.7 L167 50.1 L168.2 48.6 L169.4 47.1 L170.5 45.6 L171.6 44.2 L172.6 42.8 L173.6 41.5 L174.5 40.2 L175.4 39 L176.3 37.9 L177.1 36.8 L177.9 35.8 L178.6 34.8 L179.3 33.9 L179.9 33 L180.5 32.3 L181 31.5 L181.5 30.9 L181.9 30.3 L182.3 29.7 L182.6 29.3 L182.9 28.9 L183.1 28.5 L183.3 28.2 L183.5 28 L183.6 27.9 L183.6 27.8 L183.6 27.8 L183.6 27.9 L183.5 28 L183.3 28.2 L183.2 28.5 L182.9 28.8 L182.7 29.2 L182.3 29.7 L182 30.3 L181.6 30.9 L181.1 31.6 L180.6 32.3 L180.1 33.1 L179.5 34 L178.9 34.9 L178.3 35.9 L177.6 37 L176.9 38.2 L176.1 39.4 L175.3 40.6 L174.5 41.9 L173.6 43.3 L172.7 44.8 L171.7 46.3 L170.8 47.9 L169.8 49.5 L168.8 51.2 L167.7 52.9 L166.6 54.7 L165.5 56.5 L164.4 58.4 L163.2 60.3 L162 62.3 L160.8 64.4 L159.6 66.5 L158.3 68.6 L157.1 70.8 L155.8 73 L154.5 75.2 L153.1 77.5 L151.8 79.9 L150.5 82.2 L149.1 84.6 L147.7 87 L146.3 89.5 L144.9 92 L143.5 94.5 L142.1 97 L140.7 99.6 L139.3 102.2 L137.9 104.8 L136.5 107.4 L135 110.1 L133.6 112.7 L132.2 115.4 L130.8 118 L129.4 120.7 L128 123.4 L126.5 126.1 L125.1 128.8 L123.8 131.4 L122.4 134.1 L121 136.8 L119.6 139.5 L118.3 142.1 L116.9 144.8 L115.6 147.4 L114.3 150.1 L113 152.7 L111.7 155.3 L110.4 157.8 L109.2 160.4 L108 162.9 L106.8 165.4 L105.6 167.9 L104.4 170.3 L103.3 172.7 L102.1 175.1 L101 177.4 L100 179.7 L98.9 182 L97.9 184.2 L96.9 186.3 L95.9 188.5 L94.9 190.6 L94 192.6 L93.1 194.6 L92.3 196.5 L91.4 198.4 L90.6 200.2 L89.8 202 L89.1 203.7 L88.3 205.3 L87.7 206.9 L87 208.5 L86.4 209.9 L85.8 211.3 L85.2 212.7 L84.7 214 L84.1 215.2 L83.7 216.3 L83.2 217.4 L82.8 218.4 L82.4 219.3 L82.1 220.2 L81.8 221 L81.5 221.7 L81.2 222.3 L81 222.9 L80.8 223.4 L80.6 223.8 L80.5 224.1 L80.4 224.4 L80.3 224.6 L80.3 224.7 L80.3 224.7 L80.3 224.7 L80.3 224.6 L80.4 224.4 L80.5 224.1 L80.7 223.7 L80.8 223.3 L81 222.8 L81.2 222.2 L81.4 221.5 L81.7 220.8 L82 220 L82.3 219.1 L82.6 218.1 L83 217.1 L83.4 216 L83.8 214.8 L84.2 213.6 L84.7 212.3 L85.1 210.9 L85.6 209.4 L86.1 207.9 L86.6 206.3 L87.2 204.6 L87.7 202.9 L88.3 201.1 L88.9 199.2 L89.5 197.3 L90.1 195.4 L90.8 193.3 L91.4 191.2 L92.1 189.1 L92.7 186.9 L93.4 184.6 L94.1 182.3 L94.8 180 L95.5 177.6 L96.2 175.2 L97 172.7 L97.7 170.2 L98.4 167.6 L99.2 165 L99.9 162.3 L100.7 159.7 L101.4 157 L102.2 154.2 L102.9 151.5 L103.7 148.7 L104.5 145.8 L105.2 143 L106 140.1 L106.7 137.3 L107.5 134.4 L108.2 131.5 L109 128.6 L109.7 125.6 L110.5 122.7 L111.2 119.7 L111.9 116.8 L112.6 113.9 L113.3 110.9 L114.1 108 L114.7 105 L115.4 102.1 L116.1 99.2 L116.8 96.3 L117.5 93.4 L118.1 90.6 L118.7 87.7 L119.4 84.9 L120 82.1 L120.6 79.3 L121.2 76.5 L121.8 73.8 L122.3 71.1 L122.9 68.5 L123.4 65.8 L124 63.2 L124.5 60.7 L125 58.2 L125.5 55.7 L126 53.3 L126.4 50.9 L126.9 48.6 L127.3 46.4 L127.7 44.1 L128.1 42 L128.5 39.9 L128.9 37.8 L129.2 35.8 L129.6 33.9 L129.9 32 L130.2 30.2 L130.5 28.5 L130.8 26.8 L131 25.2 L131.3 23.7 L131.5 22.2 L131.7 20.8 L132 19.5 L132.1 18.3 L132.3 17.1 L132.5 16 L132.6 15 L132.8 14 L132.9 13.1 L133 12.3 L133.1 11.6 L133.2 11 L133.3 10.4 L133.4 10 L133.4 9.6 L133.4 9.3 L133.5 9 L133.5 8.9 L133.5 8.8 L133.5 8.8 L133.5 8.9 L133.5 9.1 L133.4 9.4 L133.4 9.7 L133.3 10.1 L133.3 10.6 L133.2 11.2 L133.2 11.9 L133.1 12.6 L133 13.5 L132.9 14.4 L132.8 15.4 L132.7 16.4 L132.6 17.6 L132.5 18.8 L132.4 20.1 L132.3 21.4 L132.2 22.9 L132 24.4 L131.9 26 L131.8 27.6 L131.7 29.3 L131.5 31.1 L131.4 33 L131.3 34.9 L131.1 36.8 L131 38.9 L130.9 41 L130.8 43.1 L130.6 45.4 L130.5 47.6 L130.4 50 L130.3 52.3 L130.1 54.8 L130 57.2 L129.9 59.8 L129.8 62.3 L129.7 65 L129.6 67.6 L129.5 70.3 L129.4 73 L129.3 75.8 L129.2 78.6 L129.1 81.4 L129.1 84.3 L129 87.2 L128.9 90.1 L128.9 93 L128.8 95.9 L128.8 98.9 L128.7 101.9 L128.7 104.9 L128.7 107.9 L128.6 110.9 L128.6 113.9 L128.6 117 L128.6 120 L128.6 123 L128.6 126.1 L128.6 129.1 L128.7 132.1 L128.7 135.1 L128.7 138.1 L128.8 141.1 L128.8 144.1 L128.9 147 L128.9 149.9 L129 152.8 L129.1 155.7 L129.1 158.6 L129.2 161.4 L129.3 164.2 L129.4 167 L129.5 169.7 L129.6 172.4 L129.7 175 L129.8 177.7 L129.9 180.2 L130 182.8 L130.1 185.2 L130.3 187.7 L130.4 190 L130.5 192.4 L130.6 194.6 L130.8 196.9 L130.9 199 L131 201.1 L131.1 203.2 L131.3 205.1 L131.4 207 L131.5 208.9 L131.7 210.7 L131.8 212.4 L131.9 214 L132 215.6 L132.2 217.1 L132.3 218.6 L132.4 219.9 L132.5 221.2 L132.6 222.4 L132.7 223.6 L132.8 224.6 L132.9 225.6 L133 226.5 L133.1 227.4 L133.2 228.1 L133.2 228.8 L133.3 229.4 L133.3 229.9 L133.4 230.3 L133.4 230.6 L133.5 230.9 L133.5 231.1 L133.5 231.2 L133.5 231.2 L133.5 231.1 L133.5 231 L133.4 230.7 L133.4 230.4 L133.4 230 L133.3 229.6 L133.2 229 L133.1 228.4 L133 227.7 L132.9 226.9 L132.8 226 L132.6 225 L132.5 224 L132.3 222.9 L132.1 221.7 L132 220.5 L131.7 219.2 L131.5 217.8 L131.3 216.3 L131 214.8 L130.8 213.2 L130.5 211.5 L130.2 209.8 L129.9 208 L129.6 206.1 L129.2 204.2 L128.9 202.2 L128.5 200.1 L128.1 198 L127.7 195.9 L127.3 193.6 L126.9 191.4 L126.4 189.1 L126 186.7 L125.5 184.3 L125 181.8 L124.5 179.3 L124 176.8 L123.4 174.2 L122.9 171.5 L122.3 168.9 L121.8 166.2 L121.2 163.5 L120.6 160.7 L120 157.9 L119.4 155.1 L118.7 152.3 L118.1 149.4 L117.5 146.6 L116.8 143.7 L116.1 140.8 L115.4 137.9 L114.7 135 L114.1 132 L113.3 129.1 L112.6 126.1 L111.9 123.2 L111.2 120.3 L110.5 117.3 L109.7 114.4 L109 111.4 L108.2 108.5 L107.5 105.6 L106.7 102.7 L106 99.9 L105.2 97 L104.5 94.2 L103.7 91.3 L102.9 88.5 L102.2 85.8 L101.4 83 L100.7 80.3 L99.9 77.7 L99.2 75 L98.4 72.4 L97.7 69.8 L97 67.3 L96.2 64.8 L95.5 62.4 L94.8 60 L94.1 57.7 L93.4 55.4 L92.7 53.1 L92.1 50.9 L91.4 48.8 L90.8 46.7 L90.1 44.6 L89.5 42.7 L88.9 40.8 L88.3 38.9 L87.7 37.1 L87.2 35.4 L86.6 33.7 L86.1 32.1 L85.6 30.6 L85.1 29.1 L84.7 27.7 L84.2 26.4 L83.8 25.2 L83.4 24 L83 22.9 L82.6 21.9 L82.3 20.9 L82 20 L81.7 19.2 L81.4 18.5 L81.2 17.8 L81 17.2 L80.8 16.7 L80.7 16.3 L80.5 15.9 L80.4 15.6 L80.3 15.4 L80.3 15.3 L80.3 15.3 L80.3 15.3 L80.3 15.4 L80.4 15.6 L80.5 15.9 L80.6 16.2 L80.8 16.6 L81 17.1 L81.2 17.7 L81.5 18.3 L81.8 19 L82.1 19.8 L82.4 20.7 L82.8 21.6 L83.2 22.6 L83.7 23.7 L84.1 24.8 L84.7 26 L85.2 27.3 L85.8 28.7 L86.4 30.1 L87 31.5 L87.7 33.1 L88.3 34.7 L89.1 36.3 L89.8 38 L90.6 39.8 L91.4 41.6 L92.3 43.5 L93.1 45.4 L94 47.4 L94.9 49.4 L95.9 51.5 L96.9 53.7 L97.9 55.8 L98.9 58 L100 60.3 L101 62.6 L102.1 64.9 L103.3 67.3 L104.4 69.7 L105.6 72.1 L106.8 74.6 L108 77.1 L109.2 79.6 L110.4 82.2 L111.7 84.7 L113 87.3 L114.3 89.9 L115.6 92.6 L116.9 95.2 L118.3 97.9 L119.6 100.5 L121 103.2 L122.4 105.9 L123.8 108.6 L125.1 111.2 L126.5 113.9 L128 116.6 L129.4 119.3 L130.8 122 L132.2 124.6 L133.6 127.3 L135 129.9 L136.5 132.6 L137.9 135.2 L139.3 137.8 L140.7 140.4 L142.1 143 L143.5 145.5 L144.9 148 L146.3 150.5 L147.7 153 L149.1 155.4 L150.5 157.8 L151.8 160.1 L153.1 162.5 L154.5 164.8 L155.8 167 L157.1 169.2 L158.3 171.4 L159.6 173.5 L160.8 175.6 L162 177.7 L163.2 179.7 L164.4 181.6 L165.5 183.5 L166.6 185.3 L167.7 187.1 L168.8 188.8 L169.8 190.5 L170.8 192.1 L171.7 193.7 L172.7 195.2 L173.6 196.7 L174.5 198.1 L175.3 199.4 L176.1 200.6 L176.9 201.8 L177.6 203 L178.3 204.1 L178.9 205.1 L179.5 206 L180.1 206.9 L180.6 207.7 L181.1 208.4 L181.6 209.1 L182 209.7 L182.3 210.3 L182.7 210.8 L182.9 211.2 L183.2 211.5 L183.3 211.8 L183.5 212 L183.6 212.1 L183.6 212.2 L183.6 212.2 L183.6 212.1 L183.5 212 L183.3 211.8 L183.1 211.5 L182.9 211.1 L182.6 210.7 L182.3 210.3 L181.9 209.7 L181.5 209.1 L181 208.5 L180.5 207.7 L179.9 207 L179.3 206.1 L178.6 205.2 L177.9 204.2 L177.1 203.2 L176.3 202.1 L175.4 201 L174.5 199.8 L173.6 198.5 L172.6 197.2 L171.6 195.8 L170.5 194.4 L169.4 192.9 L168.2 191.4 L167 189.9 L165.7 188.3 L164.5 186.6 L163.1 184.9 L161.8 183.2 L160.3 181.4 L158.9 179.6 L157.4 177.7 L155.9 175.8 L154.4 173.9 L152.8 172 L151.2 170 L149.5 167.9 L147.8 165.9 L146.1 163.8 L144.4 161.7 L142.6 159.6 L140.8 157.4 L139 155.3 L137.2 153.1 L135.3 150.9 L133.5 148.7 L131.6 146.4 L129.7 144.2 L127.7 141.9 L125.8 139.7 L123.8 137.4 L121.8 135.2 L119.9 132.9 L117.9 130.6 L115.9 128.3 L113.9 126.1 L111.8 123.8 L109.8 121.5 L107.8 119.3 L105.8 117 L103.8 114.8 L101.8 112.6 L99.8 110.4 L97.8 108.2 L95.8 106 L93.8 103.8 L91.8 101.7 L89.8 99.6 L87.9 97.5 L85.9 95.4 L84 93.4 L82.1 91.4 L80.2 89.4 L78.4 87.4 L76.5 85.5 L74.7 83.6 L72.9 81.8 L71.2 79.9 L69.4 78.2 L67.7 76.4 L66 74.7 L64.4 73.1 L62.8 71.4 L61.2 69.8 L59.7 68.3 L58.2 66.8 L56.7 65.4 L55.3 64 L53.9 62.6 L52.6 61.3 L51.3 60 L50.1 58.8 L48.9 57.7 L47.7 56.6 L46.6 55.5 L45.6 54.5 L44.6 53.6 L43.7 52.7 L42.8 51.8 L41.9 51 L41.1 50.3 L40.4 49.6 L39.7 49 L39.1 48.4 L38.5 47.9 L38 47.4 L37.6 47 L37.2 46.7 L36.9 46.4 L36.6 46.1 L36.4 46 L36.3 45.8 L36.2 45.7 L36.2 45.7 L36.2 45.8 L36.3 45.9 L36.5 46 L36.7 46.2 L37 46.5 L37.3 46.8 L37.8 47.1 L38.2 47.5 L38.8 48 L39.4 48.5 L40 49 L40.8 49.7 L41.5 50.3 L42.4 51 L43.3 51.8 L44.3 52.6 L45.3 53.4 L46.4 54.3 L47.5 55.2 L48.7 56.2 L50 57.2 L51.3 58.3 L52.6 59.4 L54.1 60.5 L55.5 61.7 L57.1 62.9 L58.6 64.2 L60.3 65.5 L61.9 66.8 L63.7 68.1 L65.4 69.5 L67.3 70.9 L69.1 72.3 L71 73.8 L73 75.3 L75 76.8 L77 78.3 L79.1 79.9 L81.2 81.5 L83.3 83.1 L85.5 84.7 L87.7 86.3 L89.9 88 L92.2 89.7 L94.5 91.3 L96.8 93 L99.2 94.7 L101.5 96.4 L103.9 98.2 L106.3 99.9 L108.7 101.6 L111.2 103.3 L113.6 105.1 L116.1 106.8 L118.6 108.5 L121.1 110.3 L123.6 112 L126 113.7 L128.5 115.4 L131 117.1 L133.5 118.8 L136 120.5 L138.5 122.2 L141 123.9 L143.5 125.5 L145.9 127.2 L148.4 128.8 L150.8 130.4 L153.3 132 L155.7 133.6 L158 135.1 L160.4 136.6 L162.7 138.2 L165.1 139.6 L167.3 141.1 L169.6 142.5 L171.8 143.9 L174 145.3 L176.2 146.7 L178.3 148 L180.4 149.3 L182.4 150.6 L184.5 151.8 L186.4 153 L188.3 154.2 L190.2 155.3 L192 156.4 L193.8 157.5 L195.6 158.5 L197.2 159.5 L198.9 160.5 L200.4 161.4 L201.9 162.3 L203.4 163.2 L204.8 164 L206.2 164.8 L207.4 165.5 L208.7 166.2 L209.8 166.9 L210.9 167.5 L211.9 168.1 L212.9 168.6 L213.8 169.1 L214.6 169.6 L215.4 170 L216.1 170.4 L216.7 170.7 L217.3 171 L217.8 171.3 L218.2 171.5 L218.5 171.7 L218.8 171.8 L219 172 L219.1 172 L219.2 172 L219.1 172 L219.1 172 L218.9 171.9 L218.7 171.8 L218.3 171.6 L218 171.4 L217.5 171.2 L217 170.9 L216.4 170.6 L215.7 170.3 L214.9 169.9 L214.1 169.5 L213.2 169.1 L212.3 168.6 L211.2 168.1 L210.1 167.6 L209 167 L207.7 166.4 L206.4 165.8 L205 165.1 L203.6 164.4 L202.1 163.7 L200.5 163 L198.9 162.2 L197.2 161.5 L195.5 160.7 L193.7 159.8 L191.8 159 L189.9 158.1 L187.9 157.2 L185.9 156.3 L183.8 155.4 L181.6 154.5 L179.5 153.5 L177.2 152.5 L174.9 151.5 L172.6 150.5 L170.3 149.5 L167.8 148.5 L165.4 147.5 L162.9 146.4 L160.4 145.4 L157.8 144.3 L155.3 143.2 L152.6 142.1 L150 141.1 L147.3 140 L144.6 138.9 L141.9 137.8 L139.2 136.7 L136.4 135.6 L133.6 134.5 L130.8 133.4 L128 132.3 L125.2 131.2 L122.4 130.1 L119.6 129.1 L116.7 128 L113.9 126.9 L111.1 125.8 L108.2 124.8 L105.4 123.7 L102.6 122.7 L99.8 121.7 L97 120.6 L94.2 119.6 L91.4 118.6 L88.6 117.7 L85.9 116.7 L83.2 115.7 L80.5 114.8 L77.8 113.9 L75.2 112.9 L72.5 112.1 L70 111.2 L67.4 110.3 L64.9 109.5 L62.4 108.6 L60 107.8 L57.6 107.1 L55.2 106.3 L52.9 105.5 L50.7 104.8 L48.4 104.1 L46.3 103.4 L44.2 102.8 L42.1 102.1 L40.1 101.5 L38.2 100.9 L36.3 100.3 L34.4 99.8 L32.7 99.2 L30.9 98.7 L29.3 98.2 L27.7 97.8 L26.2 97.3 L24.8 96.9 L23.4 96.5 L22.1 96.1 L20.8 95.8 L19.7 95.4 L18.6 95.1 L17.5 94.9 L16.6 94.6 L15.7 94.4 L14.9 94.2 L14.2 94 L13.6 93.8 L13 93.6 L12.5 93.5 L12.1 93.4 L11.8 93.3 L11.5 93.3 L11.4 93.2 L11.3 93.2 L11.3 93.2 L11.3 93.2 L11.5 93.3 L11.7 93.3 L12 93.4 L12.4 93.5 L12.9 93.6 L13.4 93.7 L14.1 93.9 L14.8 94 L15.6 94.2 L16.4 94.4 L17.4 94.6 L18.4 94.8 L19.5 95 L20.6 95.3 L21.9 95.6 L23.2 95.8 L24.6 96.1 L26.1 96.4 L27.6 96.7 L29.2 97.1 L30.9 97.4 L32.6 97.7 L34.4 98.1 L36.3 98.4 L38.2 98.8 L40.2 99.2 L42.2 99.6 L44.3 99.9 L46.5 100.3 L48.7 100.7 L51 101.1 L53.3 101.5 L55.7 102 L58.2 102.4 L60.6 102.8 L63.2 103.2 L65.7 103.6 L68.3 104 L71 104.5 L73.7 104.9 L76.4 105.3 L79.1 105.7 L81.9 106.2 L84.8 106.6 L87.6 107 L90.5 107.4 L93.4 107.8 L96.3 108.2 L99.2 108.6 L102.2 109 L105.1 109.4 L108.1 109.8 L111.1 110.2 L114.1 110.6 L117.1 111 L120.1 111.3 L123.1 111.7 L126.1 112.1 L129.1 112.4 L132.1 112.8 L135.1 113.1 L138.1 113.4 L141.1 113.7 L144 114.1 L147 114.4 L149.9 114.7 L152.8 114.9 L155.7 115.2 L158.5 115.5 L161.4 115.8 L164.2 116 L166.9 116.3 L169.7 116.5 L172.3 116.7 L175 117 L177.6 117.2 L180.2 117.4 L182.7 117.6 L185.2 117.7 L187.7 117.9 L190.1 118.1 L192.4 118.3 L194.7 118.4 L196.9 118.5 L199.1 118.7 L201.2 118.8 L203.3 118.9 L205.3 119 L207.2 119.1 L209.1 119.2 L210.9 119.3 L212.6 119.4 L214.3 119.5 L215.9 119.6 L217.4 119.6 L218.9 119.7 L220.3 119.7 L221.6 119.8 L222.8 119.8 L224 119.8 L225.1 119.9 L226.1 119.9 L227 119.9 L227.9 119.9 L228.7 120 L229.4 120 L230 120 L230.5 120 L231 120 L231.3 120 L231.6 120 L231.8 120 L232 120 L232 120 " fill="none" stroke="#C8A24A" stroke-width="0.5" stroke-opacity="0.85"/><path d="M232 120 L232 119.4 L231.8 118.8 L231.6 118.2 L231.3 117.5 L230.9 116.9 L230.5 116.3 L229.9 115.7 L229.3 115.1 L228.6 114.6 L227.8 114 L226.9 113.4 L225.9 112.8 L224.9 112.3 L223.8 111.7 L222.6 111.2 L221.3 110.7 L219.9 110.2 L218.5 109.7 L217 109.2 L215.4 108.7 L213.8 108.3 L212 107.9 L210.2 107.4 L208.4 107 L206.5 106.6 L204.5 106.3 L202.4 105.9 L200.3 105.6 L198.1 105.3 L195.9 105 L193.6 104.7 L191.2 104.5 L188.8 104.3 L186.4 104.1 L183.9 103.9 L181.3 103.7 L178.7 103.6 L176.1 103.5 L173.4 103.4 L170.7 103.3 L167.9 103.3 L165.1 103.2 L162.3 103.2 L159.4 103.3 L156.5 103.3 L153.6 103.4 L150.7 103.5 L147.7 103.6 L144.7 103.8 L141.7 103.9 L138.7 104.1 L135.7 104.4 L132.6 104.6 L129.6 104.9 L126.5 105.2 L123.5 105.5 L120.4 105.9 L117.4 106.2 L114.3 106.6 L111.3 107 L108.2 107.5 L105.2 107.9 L102.2 108.4 L99.2 108.9 L96.2 109.4 L93.2 109.9 L90.3 110.5 L87.4 111.1 L84.5 111.7 L81.6 112.3 L78.8 112.9 L76 113.6 L73.2 114.3 L70.5 114.9 L67.8 115.6 L65.2 116.3 L62.6 117.1 L60 117.8 L57.5 118.6 L55.1 119.3 L52.6 120.1 L50.3 120.9 L48 121.7 L45.7 122.5 L43.6 123.3 L41.4 124.1 L39.4 124.9 L37.4 125.7 L35.4 126.6 L33.6 127.4 L31.8 128.2 L30 129.1 L28.4 129.9 L26.8 130.7 L25.2 131.6 L23.8 132.4 L22.4 133.2 L21.1 134.1 L19.9 134.9 L18.7 135.7 L17.7 136.5 L16.7 137.3 L15.8 138.1 L14.9 138.9 L14.2 139.7 L13.5 140.4 L12.9 141.2 L12.4 141.9 L12 142.6 L11.7 143.3 L11.4 144 L11.2 144.7 L11.1 145.3 L11.1 146 L11.2 146.6 L11.4 147.2 L11.6 147.7 L11.9 148.3 L12.3 148.8 L12.8 149.3 L13.4 149.8 L14 150.3 L14.7 150.7 L15.6 151.1 L16.4 151.5 L17.4 151.9 L18.4 152.2 L19.6 152.5 L20.7 152.8 L22 153 L23.4 153.2 L24.8 153.4 L26.2 153.5 L27.8 153.7 L29.4 153.7 L31.1 153.8 L32.9 153.8 L34.7 153.8 L36.5 153.8 L38.5 153.7 L40.5 153.6 L42.5 153.4 L44.7 153.3 L46.8 153.1 L49 152.8 L51.3 152.5 L53.6 152.2 L56 151.9 L58.4 151.5 L60.9 151.1 L63.4 150.7 L65.9 150.2 L68.5 149.7 L71.1 149.1 L73.8 148.6 L76.5 148 L79.2 147.3 L81.9 146.7 L84.7 146 L87.4 145.2 L90.3 144.5 L93.1 143.7 L95.9 142.9 L98.8 142 L101.6 141.1 L104.5 140.2 L107.4 139.3 L110.3 138.3 L113.2 137.4 L116.1 136.3 L119 135.3 L121.9 134.3 L124.7 133.2 L127.6 132.1 L130.5 131 L133.3 129.8 L136.2 128.6 L139 127.5 L141.8 126.3 L144.6 125.1 L147.3 123.8 L150.1 122.6 L152.8 121.3 L155.4 120.1 L158.1 118.8 L160.7 117.5 L163.3 116.2 L165.8 114.9 L168.3 113.6 L170.8 112.3 L173.2 110.9 L175.6 109.6 L177.9 108.3 L180.1 107 L182.4 105.6 L184.5 104.3 L186.7 103 L188.7 101.6 L190.7 100.3 L192.7 99 L194.6 97.7 L196.4 96.4 L198.2 95.1 L199.9 93.9 L201.5 92.6 L203.1 91.4 L204.6 90.1 L206.1 88.9 L207.5 87.7 L208.8 86.5 L210 85.4 L211.2 84.2 L212.3 83.1 L213.3 82 L214.2 80.9 L215.1 79.9 L215.9 78.9 L216.6 77.9 L217.3 76.9 L217.8 76 L218.3 75 L218.8 74.2 L219.1 73.3 L219.4 72.5 L219.6 71.7 L219.7 71 L219.7 70.3 L219.7 69.6 L219.6 69 L219.4 68.4 L219.1 67.8 L218.8 67.3 L218.3 66.8 L217.9 66.4 L217.3 66 L216.7 65.7 L215.9 65.3 L215.2 65.1 L214.3 64.9 L213.4 64.7 L212.4 64.6 L211.3 64.5 L210.2 64.4 L209 64.4 L207.7 64.5 L206.4 64.6 L205 64.7 L203.6 64.9 L202.1 65.2 L200.5 65.4 L198.9 65.8 L197.2 66.1 L195.4 66.6 L193.7 67 L191.8 67.6 L189.9 68.1 L188 68.7 L186 69.4 L183.9 70.1 L181.8 70.9 L179.7 71.6 L177.6 72.5 L175.3 73.4 L173.1 74.3 L170.8 75.3 L168.5 76.3 L166.2 77.3 L163.8 78.4 L161.4 79.6 L159 80.7 L156.5 81.9 L154.1 83.2 L151.6 84.5 L149.1 85.8 L146.5 87.2 L144 88.6 L141.5 90 L138.9 91.5 L136.3 93 L133.8 94.5 L131.2 96.1 L128.6 97.6 L126 99.2 L123.5 100.9 L120.9 102.5 L118.3 104.2 L115.8 105.9 L113.2 107.7 L110.7 109.4 L108.2 111.2 L105.7 113 L103.2 114.8 L100.7 116.6 L98.3 118.4 L95.9 120.3 L93.5 122.1 L91.1 124 L88.8 125.8 L86.4 127.7 L84.2 129.6 L81.9 131.4 L79.7 133.3 L77.6 135.2 L75.4 137.1 L73.4 138.9 L71.3 140.8 L69.3 142.7 L67.4 144.5 L65.4 146.4 L63.6 148.2 L61.8 150 L60 151.8 L58.3 153.6 L56.6 155.4 L55 157.1 L53.5 158.8 L52 160.5 L50.6 162.2 L49.2 163.9 L47.9 165.5 L46.6 167.1 L45.4 168.7 L44.3 170.2 L43.2 171.7 L42.2 173.2 L41.3 174.6 L40.4 176 L39.6 177.4 L38.8 178.7 L38.1 180 L37.5 181.2 L36.9 182.4 L36.4 183.6 L36 184.7 L35.7 185.8 L35.4 186.8 L35.2 187.8 L35 188.7 L34.9 189.6 L34.9 190.4 L34.9 191.2 L35 191.9 L35.2 192.5 L35.4 193.1 L35.7 193.7 L36.1 194.2 L36.5 194.6 L37 195 L37.6 195.4 L38.2 195.6 L38.9 195.8 L39.6 196 L40.4 196.1 L41.3 196.1 L42.2 196.1 L43.2 196 L44.2 195.8 L45.3 195.6 L46.4 195.4 L47.6 195 L48.9 194.7 L50.2 194.2 L51.5 193.7 L52.9 193.1 L54.3 192.5 L55.8 191.8 L57.3 191.1 L58.9 190.3 L60.5 189.4 L62.2 188.5 L63.9 187.5 L65.6 186.4 L67.4 185.4 L69.2 184.2 L71 183 L72.9 181.7 L74.8 180.4 L76.7 179.1 L78.6 177.6 L80.6 176.2 L82.6 174.7 L84.6 173.1 L86.6 171.5 L88.7 169.8 L90.7 168.1 L92.8 166.4 L94.9 164.6 L97 162.8 L99.1 160.9 L101.3 159 L103.4 157 L105.5 155 L107.7 153 L109.8 151 L111.9 148.9 L114.1 146.8 L116.2 144.6 L118.3 142.4 L120.4 140.2 L122.5 138 L124.6 135.8 L126.7 133.5 L128.7 131.2 L130.8 128.9 L132.8 126.6 L134.8 124.3 L136.8 121.9 L138.8 119.6 L140.7 117.2 L142.7 114.9 L144.5 112.5 L146.4 110.1 L148.2 107.8 L150 105.4 L151.8 103 L153.6 100.7 L155.3 98.3 L156.9 96 L158.6 93.7 L160.2 91.3 L161.7 89 L163.2 86.7 L164.7 84.5 L166.1 82.2 L167.5 80 L168.9 77.8 L170.2 75.6 L171.4 73.4 L172.6 71.3 L173.8 69.2 L174.9 67.2 L175.9 65.1 L176.9 63.2 L177.9 61.2 L178.8 59.3 L179.7 57.4 L180.5 55.6 L181.2 53.8 L181.9 52.1 L182.6 50.4 L183.2 48.7 L183.7 47.1 L184.2 45.6 L184.6 44.1 L185 42.7 L185.3 41.3 L185.6 40 L185.8 38.7 L186 37.5 L186.1 36.4 L186.2 35.3 L186.2 34.3 L186.1 33.3 L186 32.4 L185.9 31.6 L185.7 30.8 L185.4 30.1 L185.1 29.5 L184.8 28.9 L184.3 28.4 L183.9 28 L183.4 27.7 L182.8 27.4 L182.2 27.2 L181.6 27 L180.9 27 L180.2 27 L179.4 27 L178.5 27.2 L177.7 27.4 L176.8 27.7 L175.8 28.1 L174.8 28.5 L173.8 29 L172.7 29.6 L171.6 30.2 L170.5 30.9 L169.3 31.7 L168.1 32.6 L166.9 33.5 L165.6 34.5 L164.3 35.6 L163 36.7 L161.7 37.9 L160.3 39.2 L158.9 40.5 L157.5 41.9 L156 43.4 L154.6 44.9 L153.1 46.5 L151.6 48.1 L150.1 49.8 L148.5 51.6 L147 53.4 L145.4 55.3 L143.9 57.2 L142.3 59.2 L140.7 61.2 L139.1 63.3 L137.5 65.4 L135.9 67.6 L134.3 69.8 L132.7 72.1 L131.1 74.4 L129.5 76.8 L127.9 79.2 L126.3 81.6 L124.7 84 L123.1 86.5 L121.5 89.1 L120 91.6 L118.4 94.2 L116.9 96.8 L115.3 99.4 L113.8 102.1 L112.3 104.8 L110.8 107.4 L109.4 110.1 L107.9 112.9 L106.5 115.6 L105.1 118.3 L103.7 121.1 L102.4 123.8 L101 126.6 L99.7 129.3 L98.4 132.1 L97.2 134.8 L96 137.6 L94.8 140.3 L93.6 143 L92.5 145.7 L91.4 148.4 L90.3 151.1 L89.3 153.8 L88.2 156.4 L87.3 159.1 L86.3 161.7 L85.4 164.2 L84.6 166.8 L83.8 169.3 L83 171.7 L82.2 174.2 L81.5 176.6 L80.8 179 L80.2 181.3 L79.6 183.6 L79 185.8 L78.5 188 L78 190.1 L77.6 192.2 L77.2 194.3 L76.8 196.3 L76.5 198.2 L76.2 200.1 L76 201.9 L75.8 203.6 L75.6 205.3 L75.5 207 L75.4 208.6 L75.4 210.1 L75.4 211.5 L75.4 212.9 L75.5 214.2 L75.6 215.4 L75.8 216.6 L75.9 217.7 L76.2 218.7 L76.4 219.7 L76.7 220.5 L77.1 221.3 L77.4 222 L77.8 222.7 L78.3 223.3 L78.7 223.7 L79.2 224.2 L79.8 224.5 L80.3 224.7 L80.9 224.9 L81.5 225 L82.2 225 L82.9 224.9 L83.6 224.8 L84.3 224.6 L85.1 224.3 L85.8 223.9 L86.7 223.4 L87.5 222.9 L88.3 222.2 L89.2 221.5 L90.1 220.7 L91 219.9 L91.9 218.9 L92.9 217.9 L93.8 216.8 L94.8 215.7 L95.8 214.4 L96.8 213.1 L97.8 211.7 L98.8 210.3 L99.8 208.7 L100.9 207.1 L101.9 205.4 L103 203.7 L104 201.9 L105.1 200 L106.1 198.1 L107.2 196.1 L108.3 194.1 L109.3 191.9 L110.4 189.8 L111.5 187.5 L112.5 185.3 L113.6 182.9 L114.6 180.5 L115.7 178.1 L116.7 175.6 L117.7 173.1 L118.8 170.5 L119.8 167.9 L120.8 165.3 L121.7 162.6 L122.7 159.9 L123.7 157.1 L124.6 154.3 L125.6 151.5 L126.5 148.7 L127.4 145.8 L128.3 142.9 L129.1 140 L130 137.1 L130.8 134.1 L131.6 131.1 L132.4 128.2 L133.1 125.2 L133.9 122.2 L134.6 119.2 L135.3 116.2 L136 113.2 L136.6 110.2 L137.2 107.2 L137.8 104.3 L138.4 101.3 L138.9 98.3 L139.4 95.4 L139.9 92.4 L140.4 89.5 L140.8 86.6 L141.2 83.8 L141.6 80.9 L142 78.1 L142.3 75.3 L142.6 72.6 L142.9 69.8 L143.1 67.1 L143.3 64.5 L143.5 61.9 L143.7 59.3 L143.8 56.8 L143.9 54.3 L144 51.9 L144 49.5 L144 47.2 L144 44.9 L144 42.7 L143.9 40.5 L143.8 38.4 L143.7 36.4 L143.6 34.4 L143.4 32.5 L143.2 30.7 L143 28.9 L142.8 27.2 L142.5 25.5 L142.2 23.9 L141.9 22.4 L141.6 21 L141.2 19.6 L140.8 18.4 L140.4 17.2 L140 16 L139.6 15 L139.1 14 L138.6 13.1 L138.1 12.3 L137.6 11.6 L137.1 11 L136.6 10.4 L136 9.9 L135.5 9.5 L134.9 9.2 L134.3 9 L133.7 8.8 L133.1 8.8 L132.5 8.8 L131.8 8.9 L131.2 9.1 L130.5 9.4 L129.9 9.8 L129.2 10.2 L128.6 10.7 L127.9 11.4 L127.2 12.1 L126.5 12.8 L125.9 13.7 L125.2 14.6 L124.5 15.7 L123.8 16.8 L123.2 18 L122.5 19.2 L121.8 20.6 L121.2 22 L120.5 23.5 L119.9 25 L119.2 26.7 L118.6 28.4 L118 30.1 L117.4 32 L116.7 33.9 L116.1 35.9 L115.6 37.9 L115 40 L114.4 42.2 L113.9 44.4 L113.3 46.7 L112.8 49 L112.3 51.4 L111.8 53.9 L111.4 56.4 L110.9 58.9 L110.5 61.5 L110 64.2 L109.6 66.9 L109.3 69.6 L108.9 72.3 L108.6 75.1 L108.2 78 L107.9 80.8 L107.6 83.7 L107.4 86.7 L107.1 89.6 L106.9 92.6 L106.7 95.6 L106.6 98.6 L106.4 101.6 L106.3 104.7 L106.2 107.7 L106.1 110.8 L106 113.8 L106 116.9 L106 120 L106 123.1 L106 126.2 L106.1 129.2 L106.2 132.3 L106.3 135.3 L106.4 138.4 L106.6 141.4 L106.7 144.4 L106.9 147.4 L107.1 150.4 L107.4 153.3 L107.6 156.3 L107.9 159.2 L108.2 162 L108.6 164.9 L108.9 167.7 L109.3 170.4 L109.6 173.1 L110 175.8 L110.5 178.5 L110.9 181.1 L111.4 183.6 L111.8 186.1 L112.3 188.6 L112.8 191 L113.3 193.3 L113.9 195.6 L114.4 197.8 L115 200 L115.6 202.1 L116.1 204.1 L116.7 206.1 L117.4 208 L118 209.9 L118.6 211.6 L119.2 213.3 L119.9 215 L120.5 216.5 L121.2 218 L121.8 219.4 L122.5 220.8 L123.2 222 L123.8 223.2 L124.5 224.3 L125.2 225.4 L125.9 226.3 L126.5 227.2 L127.2 227.9 L127.9 228.6 L128.6 229.3 L129.2 229.8 L129.9 230.2 L130.5 230.6 L131.2 230.9 L131.8 231.1 L132.5 231.2 L133.1 231.2 L133.7 231.2 L134.3 231 L134.9 230.8 L135.5 230.5 L136 230.1 L136.6 229.6 L137.1 229 L137.6 228.4 L138.1 227.7 L138.6 226.9 L139.1 226 L139.6 225 L140 224 L140.4 222.8 L140.8 221.6 L141.2 220.4 L141.6 219 L141.9 217.6 L142.2 216.1 L142.5 214.5 L142.8 212.8 L143 211.1 L143.2 209.3 L143.4 207.5 L143.6 205.6 L143.7 203.6 L143.8 201.6 L143.9 199.5 L144 197.3 L144 195.1 L144 192.8 L144 190.5 L144 188.1 L143.9 185.7 L143.8 183.2 L143.7 180.7 L143.5 178.1 L143.3 175.5 L143.1 172.9 L142.9 170.2 L142.6 167.4 L142.3 164.7 L142 161.9 L141.6 159.1 L141.2 156.2 L140.8 153.4 L140.4 150.5 L139.9 147.6 L139.4 144.6 L138.9 141.7 L138.4 138.7 L137.8 135.7 L137.2 132.8 L136.6 129.8 L136 126.8 L135.3 123.8 L134.6 120.8 L133.9 117.8 L133.1 114.8 L132.4 111.8 L131.6 108.9 L130.8 105.9 L130 102.9 L129.1 100 L128.3 97.1 L127.4 94.2 L126.5 91.3 L125.6 88.5 L124.6 85.7 L123.7 82.9 L122.7 80.1 L121.7 77.4 L120.8 74.7 L119.8 72.1 L118.8 69.5 L117.7 66.9 L116.7 64.4 L115.7 61.9 L114.6 59.5 L113.6 57.1 L112.5 54.7 L111.5 52.5 L110.4 50.2 L109.3 48.1 L108.3 45.9 L107.2 43.9 L106.1 41.9 L105.1 40 L104 38.1 L103 36.3 L101.9 34.6 L100.9 32.9 L99.8 31.3 L98.8 29.7 L97.8 28.3 L96.8 26.9 L95.8 25.6 L94.8 24.3 L93.8 23.2 L92.9 22.1 L91.9 21.1 L91 20.1 L90.1 19.3 L89.2 18.5 L88.3 17.8 L87.5 17.1 L86.7 16.6 L85.8 16.1 L85.1 15.7 L84.3 15.4 L83.6 15.2 L82.9 15.1 L82.2 15 L81.5 15 L80.9 15.1 L80.3 15.3 L79.8 15.5 L79.2 15.8 L78.7 16.3 L78.3 16.7 L77.8 17.3 L77.4 18 L77.1 18.7 L76.7 19.5 L76.4 20.3 L76.2 21.3 L75.9 22.3 L75.8 23.4 L75.6 24.6 L75.5 25.8 L75.4 27.1 L75.4 28.5 L75.4 29.9 L75.4 31.4 L75.5 33 L75.6 34.7 L75.8 36.4 L76 38.1 L76.2 39.9 L76.5 41.8 L76.8 43.7 L77.2 45.7 L77.6 47.8 L78 49.9 L78.5 52 L79 54.2 L79.6 56.4 L80.2 58.7 L80.8 61 L81.5 63.4 L82.2 65.8 L83 68.3 L83.8 70.7 L84.6 73.2 L85.4 75.8 L86.3 78.3 L87.3 80.9 L88.2 83.6 L89.3 86.2 L90.3 88.9 L91.4 91.6 L92.5 94.3 L93.6 97 L94.8 99.7 L96 102.4 L97.2 105.2 L98.4 107.9 L99.7 110.7 L101 113.4 L102.4 116.2 L103.7 118.9 L105.1 121.7 L106.5 124.4 L107.9 127.1 L109.4 129.9 L110.8 132.6 L112.3 135.2 L113.8 137.9 L115.3 140.6 L116.9 143.2 L118.4 145.8 L120 148.4 L121.5 150.9 L123.1 153.5 L124.7 156 L126.3 158.4 L127.9 160.8 L129.5 163.2 L131.1 165.6 L132.7 167.9 L134.3 170.2 L135.9 172.4 L137.5 174.6 L139.1 176.7 L140.7 178.8 L142.3 180.8 L143.9 182.8 L145.4 184.7 L147 186.6 L148.5 188.4 L150.1 190.2 L151.6 191.9 L153.1 193.5 L154.6 195.1 L156 196.6 L157.5 198.1 L158.9 199.5 L160.3 200.8 L161.7 202.1 L163 203.3 L164.3 204.4 L165.6 205.5 L166.9 206.5 L168.1 207.4 L169.3 208.3 L170.5 209.1 L171.6 209.8 L172.7 210.4 L173.8 211 L174.8 211.5 L175.8 211.9 L176.8 212.3 L177.7 212.6 L178.5 212.8 L179.4 213 L180.2 213 L180.9 213 L181.6 213 L182.2 212.8 L182.8 212.6 L183.4 212.3 L183.9 212 L184.3 211.6 L184.8 211.1 L185.1 210.5 L185.4 209.9 L185.7 209.2 L185.9 208.4 L186 207.6 L186.1 206.7 L186.2 205.7 L186.2 204.7 L186.1 203.6 L186 202.5 L185.8 201.3 L185.6 200 L185.3 198.7 L185 197.3 L184.6 195.9 L184.2 194.4 L183.7 192.9 L183.2 191.3 L182.6 189.6 L181.9 187.9 L181.2 186.2 L180.5 184.4 L179.7 182.6 L178.8 180.7 L177.9 178.8 L176.9 176.8 L175.9 174.9 L174.9 172.8 L173.8 170.8 L172.6 168.7 L171.4 166.6 L170.2 164.4 L168.9 162.2 L167.5 160 L166.1 157.8 L164.7 155.5 L163.2 153.3 L161.7 151 L160.2 148.7 L158.6 146.3 L156.9 144 L155.3 141.7 L153.6 139.3 L151.8 137 L150 134.6 L148.2 132.2 L146.4 129.9 L144.5 127.5 L142.7 125.1 L140.7 122.8 L138.8 120.4 L136.8 118.1 L134.8 115.7 L132.8 113.4 L130.8 111.1 L128.7 108.8 L126.7 106.5 L124.6 104.2 L122.5 102 L120.4 99.8 L118.3 97.6 L116.2 95.4 L114.1 93.2 L111.9 91.1 L109.8 89 L107.7 87 L105.5 85 L103.4 83 L101.3 81 L99.1 79.1 L97 77.2 L94.9 75.4 L92.8 73.6 L90.7 71.9 L88.7 70.2 L86.6 68.5 L84.6 66.9 L82.6 65.3 L80.6 63.8 L78.6 62.4 L76.7 60.9 L74.8 59.6 L72.9 58.3 L71 57 L69.2 55.8 L67.4 54.6 L65.6 53.6 L63.9 52.5 L62.2 51.5 L60.5 50.6 L58.9 49.7 L57.3 48.9 L55.8 48.2 L54.3 47.5 L52.9 46.9 L51.5 46.3 L50.2 45.8 L48.9 45.3 L47.6 45 L46.4 44.6 L45.3 44.4 L44.2 44.2 L43.2 44 L42.2 43.9 L41.3 43.9 L40.4 43.9 L39.6 44 L38.9 44.2 L38.2 44.4 L37.6 44.6 L37 45 L36.5 45.4 L36.1 45.8 L35.7 46.3 L35.4 46.9 L35.2 47.5 L35 48.1 L34.9 48.8 L34.9 49.6 L34.9 50.4 L35 51.3 L35.2 52.2 L35.4 53.2 L35.7 54.2 L36 55.3 L36.4 56.4 L36.9 57.6 L37.5 58.8 L38.1 60 L38.8 61.3 L39.6 62.6 L40.4 64 L41.3 65.4 L42.2 66.8 L43.2 68.3 L44.3 69.8 L45.4 71.3 L46.6 72.9 L47.9 74.5 L49.2 76.1 L50.6 77.8 L52 79.5 L53.5 81.2 L55 82.9 L56.6 84.6 L58.3 86.4 L60 88.2 L61.8 90 L63.6 91.8 L65.4 93.6 L67.4 95.5 L69.3 97.3 L71.3 99.2 L73.4 101.1 L75.4 102.9 L77.6 104.8 L79.7 106.7 L81.9 108.6 L84.2 110.4 L86.4 112.3 L88.8 114.2 L91.1 116 L93.5 117.9 L95.9 119.7 L98.3 121.6 L100.7 123.4 L103.2 125.2 L105.7 127 L108.2 128.8 L110.7 130.6 L113.2 132.3 L115.8 134.1 L118.3 135.8 L120.9 137.5 L123.5 139.1 L126 140.8 L128.6 142.4 L131.2 143.9 L133.8 145.5 L136.3 147 L138.9 148.5 L141.5 150 L144 151.4 L146.5 152.8 L149.1 154.2 L151.6 155.5 L154.1 156.8 L156.5 158.1 L159 159.3 L161.4 160.4 L163.8 161.6 L166.2 162.7 L168.5 163.7 L170.8 164.7 L173.1 165.7 L175.3 166.6 L177.6 167.5 L179.7 168.4 L181.8 169.1 L183.9 169.9 L186 170.6 L188 171.3 L189.9 171.9 L191.8 172.4 L193.7 173 L195.4 173.4 L197.2 173.9 L198.9 174.2 L200.5 174.6 L202.1 174.8 L203.6 175.1 L205 175.3 L206.4 175.4 L207.7 175.5 L209 175.6 L210.2 175.6 L211.3 175.5 L212.4 175.4 L213.4 175.3 L214.3 175.1 L215.2 174.9 L215.9 174.7 L216.7 174.3 L217.3 174 L217.9 173.6 L218.3 173.2 L218.8 172.7 L219.1 172.2 L219.4 171.6 L219.6 171 L219.7 170.4 L219.7 169.7 L219.7 169 L219.6 168.3 L219.4 167.5 L219.1 166.7 L218.8 165.8 L218.3 165 L217.8 164 L217.3 163.1 L216.6 162.1 L215.9 161.1 L215.1 160.1 L214.2 159.1 L213.3 158 L212.3 156.9 L211.2 155.8 L210 154.6 L208.8 153.5 L207.5 152.3 L206.1 151.1 L204.6 149.9 L203.1 148.6 L201.5 147.4 L199.9 146.1 L198.2 144.9 L196.4 143.6 L194.6 142.3 L192.7 141 L190.7 139.7 L188.7 138.4 L186.7 137 L184.5 135.7 L182.4 134.4 L180.1 133 L177.9 131.7 L175.6 130.4 L173.2 129.1 L170.8 127.7 L168.3 126.4 L165.8 125.1 L163.3 123.8 L160.7 122.5 L158.1 121.2 L155.4 119.9 L152.8 118.7 L150.1 117.4 L147.3 116.2 L144.6 114.9 L141.8 113.7 L139 112.5 L136.2 111.4 L133.3 110.2 L130.5 109 L127.6 107.9 L124.7 106.8 L121.9 105.7 L119 104.7 L116.1 103.7 L113.2 102.6 L110.3 101.7 L107.4 100.7 L104.5 99.8 L101.6 98.9 L98.8 98 L95.9 97.1 L93.1 96.3 L90.3 95.5 L87.4 94.8 L84.7 94 L81.9 93.3 L79.2 92.7 L76.5 92 L73.8 91.4 L71.1 90.9 L68.5 90.3 L65.9 89.8 L63.4 89.3 L60.9 88.9 L58.4 88.5 L56 88.1 L53.6 87.8 L51.3 87.5 L49 87.2 L46.8 86.9 L44.7 86.7 L42.5 86.6 L40.5 86.4 L38.5 86.3 L36.5 86.2 L34.7 86.2 L32.9 86.2 L31.1 86.2 L29.4 86.3 L27.8 86.3 L26.2 86.5 L24.8 86.6 L23.4 86.8 L22 87 L20.7 87.2 L19.6 87.5 L18.4 87.8 L17.4 88.1 L16.4 88.5 L15.6 88.9 L14.7 89.3 L14 89.7 L13.4 90.2 L12.8 90.7 L12.3 91.2 L11.9 91.7 L11.6 92.3 L11.4 92.8 L11.2 93.4 L11.1 94 L11.1 94.7 L11.2 95.3 L11.4 96 L11.7 96.7 L12 97.4 L12.4 98.1 L12.9 98.8 L13.5 99.6 L14.2 100.3 L14.9 101.1 L15.8 101.9 L16.7 102.7 L17.7 103.5 L18.7 104.3 L19.9 105.1 L21.1 105.9 L22.4 106.8 L23.8 107.6 L25.2 108.4 L26.8 109.3 L28.4 110.1 L30 110.9 L31.8 111.8 L33.6 112.6 L35.4 113.4 L37.4 114.3 L39.4 115.1 L41.4 115.9 L43.6 116.7 L45.7 117.5 L48 118.3 L50.3 119.1 L52.6 119.9 L55.1 120.7 L57.5 121.4 L60 122.2 L62.6 122.9 L65.2 123.7 L67.8 124.4 L70.5 125.1 L73.2 125.7 L76 126.4 L78.8 127.1 L81.6 127.7 L84.5 128.3 L87.4 128.9 L90.3 129.5 L93.2 130.1 L96.2 130.6 L99.2 131.1 L102.2 131.6 L105.2 132.1 L108.2 132.5 L111.3 133 L114.3 133.4 L117.4 133.8 L120.4 134.1 L123.5 134.5 L126.5 134.8 L129.6 135.1 L132.6 135.4 L135.7 135.6 L138.7 135.9 L141.7 136.1 L144.7 136.2 L147.7 136.4 L150.7 136.5 L153.6 136.6 L156.5 136.7 L159.4 136.7 L162.3 136.8 L165.1 136.8 L167.9 136.7 L170.7 136.7 L173.4 136.6 L176.1 136.5 L178.7 136.4 L181.3 136.3 L183.9 136.1 L186.4 135.9 L188.8 135.7 L191.2 135.5 L193.6 135.3 L195.9 135 L198.1 134.7 L200.3 134.4 L202.4 134.1 L204.5 133.7 L206.5 133.4 L208.4 133 L210.2 132.6 L212 132.1 L213.8 131.7 L215.4 131.3 L217 130.8 L218.5 130.3 L219.9 129.8 L221.3 129.3 L222.6 128.8 L223.8 128.3 L224.9 127.7 L225.9 127.2 L226.9 126.6 L227.8 126 L228.6 125.4 L229.3 124.9 L229.9 124.3 L230.5 123.7 L230.9 123.1 L231.3 122.5 L231.6 121.8 L231.8 121.2 L232 120.6 L232 120 " fill="none" stroke="#C8A24A" stroke-width="0.45" stroke-opacity="0.6"/><path d="M232 120 L232 119.7 L231.9 119.5 L231.9 119.2 L231.7 119 L231.6 118.7 L231.4 118.4 L231.2 118.2 L231 117.9 L230.7 117.7 L230.4 117.4 L230.1 117.2 L229.7 117 L229.3 116.7 L228.9 116.5 L228.5 116.3 L228 116.1 L227.5 115.8 L226.9 115.6 L226.3 115.4 L225.7 115.2 L225.1 115 L224.4 114.9 L223.8 114.7 L223 114.5 L222.3 114.3 L221.5 114.2 L220.7 114 L219.9 113.9 L219 113.8 L218.1 113.6 L217.2 113.5 L216.3 113.4 L215.3 113.3 L214.3 113.3 L213.3 113.2 L212.2 113.1 L211.2 113.1 L210.1 113 L209 113 L207.8 113 L206.7 113 L205.5 113 L204.3 113 L203 113 L201.8 113.1 L200.5 113.1 L199.2 113.2 L197.9 113.3 L196.6 113.4 L195.2 113.5 L193.9 113.6 L192.5 113.7 L191.1 113.9 L189.6 114 L188.2 114.2 L186.7 114.4 L185.3 114.6 L183.8 114.8 L182.3 115 L180.7 115.3 L179.2 115.5 L177.7 115.8 L176.1 116.1 L174.5 116.4 L172.9 116.7 L171.3 117 L169.7 117.3 L168.1 117.7 L166.5 118.1 L164.9 118.4 L163.2 118.8 L161.6 119.2 L159.9 119.7 L158.2 120.1 L156.6 120.6 L154.9 121 L153.2 121.5 L151.5 122 L149.8 122.5 L148.1 123 L146.4 123.6 L144.7 124.1 L143 124.7 L141.3 125.2 L139.6 125.8 L137.9 126.4 L136.2 127 L134.5 127.7 L132.8 128.3 L131.1 129 L129.4 129.6 L127.7 130.3 L126 131 L124.3 131.7 L122.7 132.4 L121 133.1 L119.3 133.8 L117.6 134.6 L116 135.3 L114.3 136.1 L112.7 136.8 L111.1 137.6 L109.4 138.4 L107.8 139.2 L106.2 140 L104.6 140.8 L103 141.6 L101.5 142.5 L99.9 143.3 L98.4 144.1 L96.8 145 L95.3 145.8 L93.8 146.7 L92.3 147.6 L90.8 148.4 L89.3 149.3 L87.9 150.2 L86.5 151.1 L85 151.9 L83.6 152.8 L82.3 153.7 L80.9 154.6 L79.5 155.5 L78.2 156.4 L76.9 157.3 L75.6 158.2 L74.3 159.1 L73.1 160 L71.8 160.9 L70.6 161.9 L69.4 162.8 L68.3 163.7 L67.1 164.6 L66 165.5 L64.9 166.3 L63.8 167.2 L62.7 168.1 L61.7 169 L60.6 169.9 L59.7 170.8 L58.7 171.6 L57.7 172.5 L56.8 173.4 L55.9 174.2 L55 175.1 L54.2 175.9 L53.3 176.7 L52.5 177.6 L51.8 178.4 L51 179.2 L50.3 180 L49.6 180.8 L48.9 181.5 L48.2 182.3 L47.6 183.1 L47 183.8 L46.4 184.5 L45.8 185.2 L45.3 186 L44.8 186.6 L44.3 187.3 L43.9 188 L43.5 188.6 L43.1 189.3 L42.7 189.9 L42.3 190.5 L42 191.1 L41.7 191.7 L41.4 192.2 L41.2 192.8 L41 193.3 L40.8 193.8 L40.6 194.3 L40.4 194.8 L40.3 195.2 L40.2 195.7 L40.1 196.1 L40.1 196.5 L40.1 196.8 L40.1 197.2 L40.1 197.5 L40.1 197.9 L40.2 198.1 L40.3 198.4 L40.4 198.7 L40.6 198.9 L40.7 199.1 L40.9 199.3 L41.1 199.4 L41.3 199.6 L41.6 199.7 L41.9 199.8 L42.1 199.9 L42.5 199.9 L42.8 199.9 L43.2 199.9 L43.5 199.9 L43.9 199.9 L44.3 199.8 L44.8 199.7 L45.2 199.6 L45.7 199.4 L46.2 199.2 L46.7 199 L47.2 198.8 L47.8 198.6 L48.3 198.3 L48.9 198 L49.5 197.7 L50.1 197.3 L50.7 196.9 L51.4 196.5 L52 196.1 L52.7 195.7 L53.4 195.2 L54 194.7 L54.8 194.2 L55.5 193.6 L56.2 193 L56.9 192.4 L57.7 191.8 L58.5 191.1 L59.2 190.4 L60 189.7 L60.8 189 L61.6 188.2 L62.4 187.5 L63.3 186.7 L64.1 185.8 L64.9 185 L65.8 184.1 L66.6 183.2 L67.5 182.3 L68.4 181.3 L69.2 180.3 L70.1 179.4 L71 178.3 L71.9 177.3 L72.8 176.2 L73.7 175.1 L74.5 174 L75.4 172.9 L76.3 171.7 L77.2 170.6 L78.1 169.4 L79.1 168.2 L80 166.9 L80.9 165.7 L81.8 164.4 L82.7 163.1 L83.6 161.8 L84.5 160.5 L85.4 159.1 L86.3 157.7 L87.2 156.4 L88.1 155 L88.9 153.5 L89.8 152.1 L90.7 150.7 L91.6 149.2 L92.4 147.7 L93.3 146.2 L94.2 144.7 L95 143.2 L95.9 141.6 L96.7 140.1 L97.5 138.5 L98.4 137 L99.2 135.4 L100 133.8 L100.8 132.2 L101.6 130.6 L102.4 128.9 L103.2 127.3 L103.9 125.7 L104.7 124 L105.4 122.4 L106.2 120.7 L106.9 119 L107.6 117.3 L108.3 115.7 L109 114 L109.7 112.3 L110.4 110.6 L111 108.9 L111.7 107.2 L112.3 105.5 L113 103.8 L113.6 102.1 L114.2 100.4 L114.8 98.7 L115.3 97 L115.9 95.3 L116.4 93.6 L117 91.9 L117.5 90.2 L118 88.5 L118.5 86.8 L119 85.1 L119.4 83.4 L119.9 81.8 L120.3 80.1 L120.8 78.4 L121.2 76.8 L121.6 75.1 L121.9 73.5 L122.3 71.9 L122.7 70.3 L123 68.7 L123.3 67.1 L123.6 65.5 L123.9 63.9 L124.2 62.3 L124.5 60.8 L124.7 59.3 L125 57.7 L125.2 56.2 L125.4 54.7 L125.6 53.3 L125.8 51.8 L126 50.4 L126.1 48.9 L126.3 47.5 L126.4 46.1 L126.5 44.8 L126.6 43.4 L126.7 42.1 L126.8 40.8 L126.9 39.5 L126.9 38.2 L127 37 L127 35.7 L127 34.5 L127 33.3 L127 32.2 L127 31 L127 29.9 L126.9 28.8 L126.9 27.8 L126.8 26.7 L126.7 25.7 L126.7 24.7 L126.6 23.7 L126.5 22.8 L126.4 21.9 L126.2 21 L126.1 20.1 L126 19.3 L125.8 18.5 L125.7 17.7 L125.5 17 L125.3 16.2 L125.1 15.6 L125 14.9 L124.8 14.3 L124.6 13.7 L124.4 13.1 L124.2 12.5 L123.9 12 L123.7 11.5 L123.5 11.1 L123.3 10.7 L123 10.3 L122.8 9.9 L122.6 9.6 L122.3 9.3 L122.1 9 L121.8 8.8 L121.6 8.6 L121.3 8.4 L121 8.3 L120.8 8.1 L120.5 8.1 L120.3 8 L120 8 L119.7 8 L119.5 8.1 L119.2 8.1 L119 8.3 L118.7 8.4 L118.4 8.6 L118.2 8.8 L117.9 9 L117.7 9.3 L117.4 9.6 L117.2 9.9 L117 10.3 L116.7 10.7 L116.5 11.1 L116.3 11.5 L116.1 12 L115.8 12.5 L115.6 13.1 L115.4 13.7 L115.2 14.3 L115 14.9 L114.9 15.6 L114.7 16.2 L114.5 17 L114.3 17.7 L114.2 18.5 L114 19.3 L113.9 20.1 L113.8 21 L113.6 21.9 L113.5 22.8 L113.4 23.7 L113.3 24.7 L113.3 25.7 L113.2 26.7 L113.1 27.8 L113.1 28.8 L113 29.9 L113 31 L113 32.2 L113 33.3 L113 34.5 L113 35.7 L113 37 L113.1 38.2 L113.1 39.5 L113.2 40.8 L113.3 42.1 L113.4 43.4 L113.5 44.8 L113.6 46.1 L113.7 47.5 L113.9 48.9 L114 50.4 L114.2 51.8 L114.4 53.3 L114.6 54.7 L114.8 56.2 L115 57.7 L115.3 59.3 L115.5 60.8 L115.8 62.3 L116.1 63.9 L116.4 65.5 L116.7 67.1 L117 68.7 L117.3 70.3 L117.7 71.9 L118.1 73.5 L118.4 75.1 L118.8 76.8 L119.2 78.4 L119.7 80.1 L120.1 81.8 L120.6 83.4 L121 85.1 L121.5 86.8 L122 88.5 L122.5 90.2 L123 91.9 L123.6 93.6 L124.1 95.3 L124.7 97 L125.2 98.7 L125.8 100.4 L126.4 102.1 L127 103.8 L127.7 105.5 L128.3 107.2 L129 108.9 L129.6 110.6 L130.3 112.3 L131 114 L131.7 115.7 L132.4 117.3 L133.1 119 L133.8 120.7 L134.6 122.4 L135.3 124 L136.1 125.7 L136.8 127.3 L137.6 128.9 L138.4 130.6 L139.2 132.2 L140 133.8 L140.8 135.4 L141.6 137 L142.5 138.5 L143.3 140.1 L144.1 141.6 L145 143.2 L145.8 144.7 L146.7 146.2 L147.6 147.7 L148.4 149.2 L149.3 150.7 L150.2 152.1 L151.1 153.5 L151.9 155 L152.8 156.4 L153.7 157.7 L154.6 159.1 L155.5 160.5 L156.4 161.8 L157.3 163.1 L158.2 164.4 L159.1 165.7 L160 166.9 L160.9 168.2 L161.9 169.4 L162.8 170.6 L163.7 171.7 L164.6 172.9 L165.5 174 L166.3 175.1 L167.2 176.2 L168.1 177.3 L169 178.3 L169.9 179.4 L170.8 180.3 L171.6 181.3 L172.5 182.3 L173.4 183.2 L174.2 184.1 L175.1 185 L175.9 185.8 L176.7 186.7 L177.6 187.5 L178.4 188.2 L179.2 189 L180 189.7 L180.8 190.4 L181.5 191.1 L182.3 191.8 L183.1 192.4 L183.8 193 L184.5 193.6 L185.2 194.2 L186 194.7 L186.6 195.2 L187.3 195.7 L188 196.1 L188.6 196.5 L189.3 196.9 L189.9 197.3 L190.5 197.7 L191.1 198 L191.7 198.3 L192.2 198.6 L192.8 198.8 L193.3 199 L193.8 199.2 L194.3 199.4 L194.8 199.6 L195.2 199.7 L195.7 199.8 L196.1 199.9 L196.5 199.9 L196.8 199.9 L197.2 199.9 L197.5 199.9 L197.9 199.9 L198.1 199.8 L198.4 199.7 L198.7 199.6 L198.9 199.4 L199.1 199.3 L199.3 199.1 L199.4 198.9 L199.6 198.7 L199.7 198.4 L199.8 198.1 L199.9 197.9 L199.9 197.5 L199.9 197.2 L199.9 196.8 L199.9 196.5 L199.9 196.1 L199.8 195.7 L199.7 195.2 L199.6 194.8 L199.4 194.3 L199.2 193.8 L199 193.3 L198.8 192.8 L198.6 192.2 L198.3 191.7 L198 191.1 L197.7 190.5 L197.3 189.9 L196.9 189.3 L196.5 188.6 L196.1 188 L195.7 187.3 L195.2 186.6 L194.7 186 L194.2 185.2 L193.6 184.5 L193 183.8 L192.4 183.1 L191.8 182.3 L191.1 181.5 L190.4 180.8 L189.7 180 L189 179.2 L188.2 178.4 L187.5 177.6 L186.7 176.7 L185.8 175.9 L185 175.1 L184.1 174.2 L183.2 173.4 L182.3 172.5 L181.3 171.6 L180.3 170.8 L179.4 169.9 L178.3 169 L177.3 168.1 L176.2 167.2 L175.1 166.3 L174 165.5 L172.9 164.6 L171.7 163.7 L170.6 162.8 L169.4 161.9 L168.2 160.9 L166.9 160 L165.7 159.1 L164.4 158.2 L163.1 157.3 L161.8 156.4 L160.5 155.5 L159.1 154.6 L157.7 153.7 L156.4 152.8 L155 151.9 L153.5 151.1 L152.1 150.2 L150.7 149.3 L149.2 148.4 L147.7 147.6 L146.2 146.7 L144.7 145.8 L143.2 145 L141.6 144.1 L140.1 143.3 L138.5 142.5 L137 141.6 L135.4 140.8 L133.8 140 L132.2 139.2 L130.6 138.4 L128.9 137.6 L127.3 136.8 L125.7 136.1 L124 135.3 L122.4 134.6 L120.7 133.8 L119 133.1 L117.3 132.4 L115.7 131.7 L114 131 L112.3 130.3 L110.6 129.6 L108.9 129 L107.2 128.3 L105.5 127.7 L103.8 127 L102.1 126.4 L100.4 125.8 L98.7 125.2 L97 124.7 L95.3 124.1 L93.6 123.6 L91.9 123 L90.2 122.5 L88.5 122 L86.8 121.5 L85.1 121 L83.4 120.6 L81.8 120.1 L80.1 119.7 L78.4 119.2 L76.8 118.8 L75.1 118.4 L73.5 118.1 L71.9 117.7 L70.3 117.3 L68.7 117 L67.1 116.7 L65.5 116.4 L63.9 116.1 L62.3 115.8 L60.8 115.5 L59.3 115.3 L57.7 115 L56.2 114.8 L54.7 114.6 L53.3 114.4 L51.8 114.2 L50.4 114 L48.9 113.9 L47.5 113.7 L46.1 113.6 L44.8 113.5 L43.4 113.4 L42.1 113.3 L40.8 113.2 L39.5 113.1 L38.2 113.1 L37 113 L35.7 113 L34.5 113 L33.3 113 L32.2 113 L31 113 L29.9 113 L28.8 113.1 L27.8 113.1 L26.7 113.2 L25.7 113.3 L24.7 113.3 L23.7 113.4 L22.8 113.5 L21.9 113.6 L21 113.8 L20.1 113.9 L19.3 114 L18.5 114.2 L17.7 114.3 L17 114.5 L16.2 114.7 L15.6 114.9 L14.9 115 L14.3 115.2 L13.7 115.4 L13.1 115.6 L12.5 115.8 L12 116.1 L11.5 116.3 L11.1 116.5 L10.7 116.7 L10.3 117 L9.9 117.2 L9.6 117.4 L9.3 117.7 L9 117.9 L8.8 118.2 L8.6 118.4 L8.4 118.7 L8.3 119 L8.1 119.2 L8.1 119.5 L8 119.7 L8 120 L8 120.3 L8.1 120.5 L8.1 120.8 L8.3 121 L8.4 121.3 L8.6 121.6 L8.8 121.8 L9 122.1 L9.3 122.3 L9.6 122.6 L9.9 122.8 L10.3 123 L10.7 123.3 L11.1 123.5 L11.5 123.7 L12 123.9 L12.5 124.2 L13.1 124.4 L13.7 124.6 L14.3 124.8 L14.9 125 L15.6 125.1 L16.2 125.3 L17 125.5 L17.7 125.7 L18.5 125.8 L19.3 126 L20.1 126.1 L21 126.2 L21.9 126.4 L22.8 126.5 L23.7 126.6 L24.7 126.7 L25.7 126.7 L26.7 126.8 L27.8 126.9 L28.8 126.9 L29.9 127 L31 127 L32.2 127 L33.3 127 L34.5 127 L35.7 127 L37 127 L38.2 126.9 L39.5 126.9 L40.8 126.8 L42.1 126.7 L43.4 126.6 L44.8 126.5 L46.1 126.4 L47.5 126.3 L48.9 126.1 L50.4 126 L51.8 125.8 L53.3 125.6 L54.7 125.4 L56.2 125.2 L57.7 125 L59.3 124.7 L60.8 124.5 L62.3 124.2 L63.9 123.9 L65.5 123.6 L67.1 123.3 L68.7 123 L70.3 122.7 L71.9 122.3 L73.5 121.9 L75.1 121.6 L76.8 121.2 L78.4 120.8 L80.1 120.3 L81.8 119.9 L83.4 119.4 L85.1 119 L86.8 118.5 L88.5 118 L90.2 117.5 L91.9 117 L93.6 116.4 L95.3 115.9 L97 115.3 L98.7 114.8 L100.4 114.2 L102.1 113.6 L103.8 113 L105.5 112.3 L107.2 111.7 L108.9 111 L110.6 110.4 L112.3 109.7 L114 109 L115.7 108.3 L117.3 107.6 L119 106.9 L120.7 106.2 L122.4 105.4 L124 104.7 L125.7 103.9 L127.3 103.2 L128.9 102.4 L130.6 101.6 L132.2 100.8 L133.8 100 L135.4 99.2 L137 98.4 L138.5 97.5 L140.1 96.7 L141.6 95.9 L143.2 95 L144.7 94.2 L146.2 93.3 L147.7 92.4 L149.2 91.6 L150.7 90.7 L152.1 89.8 L153.5 88.9 L155 88.1 L156.4 87.2 L157.7 86.3 L159.1 85.4 L160.5 84.5 L161.8 83.6 L163.1 82.7 L164.4 81.8 L165.7 80.9 L166.9 80 L168.2 79.1 L169.4 78.1 L170.6 77.2 L171.7 76.3 L172.9 75.4 L174 74.5 L175.1 73.7 L176.2 72.8 L177.3 71.9 L178.3 71 L179.4 70.1 L180.3 69.2 L181.3 68.4 L182.3 67.5 L183.2 66.6 L184.1 65.8 L185 64.9 L185.8 64.1 L186.7 63.3 L187.5 62.4 L188.2 61.6 L189 60.8 L189.7 60 L190.4 59.2 L191.1 58.5 L191.8 57.7 L192.4 56.9 L193 56.2 L193.6 55.5 L194.2 54.8 L194.7 54 L195.2 53.4 L195.7 52.7 L196.1 52 L196.5 51.4 L196.9 50.7 L197.3 50.1 L197.7 49.5 L198 48.9 L198.3 48.3 L198.6 47.8 L198.8 47.2 L199 46.7 L199.2 46.2 L199.4 45.7 L199.6 45.2 L199.7 44.8 L199.8 44.3 L199.9 43.9 L199.9 43.5 L199.9 43.2 L199.9 42.8 L199.9 42.5 L199.9 42.1 L199.8 41.9 L199.7 41.6 L199.6 41.3 L199.4 41.1 L199.3 40.9 L199.1 40.7 L198.9 40.6 L198.7 40.4 L198.4 40.3 L198.1 40.2 L197.9 40.1 L197.5 40.1 L197.2 40.1 L196.8 40.1 L196.5 40.1 L196.1 40.1 L195.7 40.2 L195.2 40.3 L194.8 40.4 L194.3 40.6 L193.8 40.8 L193.3 41 L192.8 41.2 L192.2 41.4 L191.7 41.7 L191.1 42 L190.5 42.3 L189.9 42.7 L189.3 43.1 L188.6 43.5 L188 43.9 L187.3 44.3 L186.6 44.8 L186 45.3 L185.2 45.8 L184.5 46.4 L183.8 47 L183.1 47.6 L182.3 48.2 L181.5 48.9 L180.8 49.6 L180 50.3 L179.2 51 L178.4 51.8 L177.6 52.5 L176.7 53.3 L175.9 54.2 L175.1 55 L174.2 55.9 L173.4 56.8 L172.5 57.7 L171.6 58.7 L170.8 59.7 L169.9 60.6 L169 61.7 L168.1 62.7 L167.2 63.8 L166.3 64.9 L165.5 66 L164.6 67.1 L163.7 68.3 L162.8 69.4 L161.9 70.6 L160.9 71.8 L160 73.1 L159.1 74.3 L158.2 75.6 L157.3 76.9 L156.4 78.2 L155.5 79.5 L154.6 80.9 L153.7 82.3 L152.8 83.6 L151.9 85 L151.1 86.5 L150.2 87.9 L149.3 89.3 L148.4 90.8 L147.6 92.3 L146.7 93.8 L145.8 95.3 L145 96.8 L144.1 98.4 L143.3 99.9 L142.5 101.5 L141.6 103 L140.8 104.6 L140 106.2 L139.2 107.8 L138.4 109.4 L137.6 111.1 L136.8 112.7 L136.1 114.3 L135.3 116 L134.6 117.6 L133.8 119.3 L133.1 121 L132.4 122.7 L131.7 124.3 L131 126 L130.3 127.7 L129.6 129.4 L129 131.1 L128.3 132.8 L127.7 134.5 L127 136.2 L126.4 137.9 L125.8 139.6 L125.2 141.3 L124.7 143 L124.1 144.7 L123.6 146.4 L123 148.1 L122.5 149.8 L122 151.5 L121.5 153.2 L121 154.9 L120.6 156.6 L120.1 158.2 L119.7 159.9 L119.2 161.6 L118.8 163.2 L118.4 164.9 L118.1 166.5 L117.7 168.1 L117.3 169.7 L117 171.3 L116.7 172.9 L116.4 174.5 L116.1 176.1 L115.8 177.7 L115.5 179.2 L115.3 180.7 L115 182.3 L114.8 183.8 L114.6 185.3 L114.4 186.7 L114.2 188.2 L114 189.6 L113.9 191.1 L113.7 192.5 L113.6 193.9 L113.5 195.2 L113.4 196.6 L113.3 197.9 L113.2 199.2 L113.1 200.5 L113.1 201.8 L113 203 L113 204.3 L113 205.5 L113 206.7 L113 207.8 L113 209 L113 210.1 L113.1 211.2 L113.1 212.2 L113.2 213.3 L113.3 214.3 L113.3 215.3 L113.4 216.3 L113.5 217.2 L113.6 218.1 L113.8 219 L113.9 219.9 L114 220.7 L114.2 221.5 L114.3 222.3 L114.5 223 L114.7 223.8 L114.9 224.4 L115 225.1 L115.2 225.7 L115.4 226.3 L115.6 226.9 L115.8 227.5 L116.1 228 L116.3 228.5 L116.5 228.9 L116.7 229.3 L117 229.7 L117.2 230.1 L117.4 230.4 L117.7 230.7 L117.9 231 L118.2 231.2 L118.4 231.4 L118.7 231.6 L119 231.7 L119.2 231.9 L119.5 231.9 L119.7 232 L120 232 L120.3 232 L120.5 231.9 L120.8 231.9 L121 231.7 L121.3 231.6 L121.6 231.4 L121.8 231.2 L122.1 231 L122.3 230.7 L122.6 230.4 L122.8 230.1 L123 229.7 L123.3 229.3 L123.5 228.9 L123.7 228.5 L123.9 228 L124.2 227.5 L124.4 226.9 L124.6 226.3 L124.8 225.7 L125 225.1 L125.1 224.4 L125.3 223.8 L125.5 223 L125.7 222.3 L125.8 221.5 L126 220.7 L126.1 219.9 L126.2 219 L126.4 218.1 L126.5 217.2 L126.6 216.3 L126.7 215.3 L126.7 214.3 L126.8 213.3 L126.9 212.2 L126.9 211.2 L127 210.1 L127 209 L127 207.8 L127 206.7 L127 205.5 L127 204.3 L127 203 L126.9 201.8 L126.9 200.5 L126.8 199.2 L126.7 197.9 L126.6 196.6 L126.5 195.2 L126.4 193.9 L126.3 192.5 L126.1 191.1 L126 189.6 L125.8 188.2 L125.6 186.7 L125.4 185.3 L125.2 183.8 L125 182.3 L124.7 180.7 L124.5 179.2 L124.2 177.7 L123.9 176.1 L123.6 174.5 L123.3 172.9 L123 171.3 L122.7 169.7 L122.3 168.1 L121.9 166.5 L121.6 164.9 L121.2 163.2 L120.8 161.6 L120.3 159.9 L119.9 158.2 L119.4 156.6 L119 154.9 L118.5 153.2 L118 151.5 L117.5 149.8 L117 148.1 L116.4 146.4 L115.9 144.7 L115.3 143 L114.8 141.3 L114.2 139.6 L113.6 137.9 L113 136.2 L112.3 134.5 L111.7 132.8 L111 131.1 L110.4 129.4 L109.7 127.7 L109 126 L108.3 124.3 L107.6 122.7 L106.9 121 L106.2 119.3 L105.4 117.6 L104.7 116 L103.9 114.3 L103.2 112.7 L102.4 111.1 L101.6 109.4 L100.8 107.8 L100 106.2 L99.2 104.6 L98.4 103 L97.5 101.5 L96.7 99.9 L95.9 98.4 L95 96.8 L94.2 95.3 L93.3 93.8 L92.4 92.3 L91.6 90.8 L90.7 89.3 L89.8 87.9 L88.9 86.5 L88.1 85 L87.2 83.6 L86.3 82.3 L85.4 80.9 L84.5 79.5 L83.6 78.2 L82.7 76.9 L81.8 75.6 L80.9 74.3 L80 73.1 L79.1 71.8 L78.1 70.6 L77.2 69.4 L76.3 68.3 L75.4 67.1 L74.5 66 L73.7 64.9 L72.8 63.8 L71.9 62.7 L71 61.7 L70.1 60.6 L69.2 59.7 L68.4 58.7 L67.5 57.7 L66.6 56.8 L65.8 55.9 L64.9 55 L64.1 54.2 L63.3 53.3 L62.4 52.5 L61.6 51.8 L60.8 51 L60 50.3 L59.2 49.6 L58.5 48.9 L57.7 48.2 L56.9 47.6 L56.2 47 L55.5 46.4 L54.8 45.8 L54 45.3 L53.4 44.8 L52.7 44.3 L52 43.9 L51.4 43.5 L50.7 43.1 L50.1 42.7 L49.5 42.3 L48.9 42 L48.3 41.7 L47.8 41.4 L47.2 41.2 L46.7 41 L46.2 40.8 L45.7 40.6 L45.2 40.4 L44.8 40.3 L44.3 40.2 L43.9 40.1 L43.5 40.1 L43.2 40.1 L42.8 40.1 L42.5 40.1 L42.1 40.1 L41.9 40.2 L41.6 40.3 L41.3 40.4 L41.1 40.6 L40.9 40.7 L40.7 40.9 L40.6 41.1 L40.4 41.3 L40.3 41.6 L40.2 41.9 L40.1 42.1 L40.1 42.5 L40.1 42.8 L40.1 43.2 L40.1 43.5 L40.1 43.9 L40.2 44.3 L40.3 44.8 L40.4 45.2 L40.6 45.7 L40.8 46.2 L41 46.7 L41.2 47.2 L41.4 47.8 L41.7 48.3 L42 48.9 L42.3 49.5 L42.7 50.1 L43.1 50.7 L43.5 51.4 L43.9 52 L44.3 52.7 L44.8 53.4 L45.3 54 L45.8 54.8 L46.4 55.5 L47 56.2 L47.6 56.9 L48.2 57.7 L48.9 58.5 L49.6 59.2 L50.3 60 L51 60.8 L51.8 61.6 L52.5 62.4 L53.3 63.3 L54.2 64.1 L55 64.9 L55.9 65.8 L56.8 66.6 L57.7 67.5 L58.7 68.4 L59.7 69.2 L60.6 70.1 L61.7 71 L62.7 71.9 L63.8 72.8 L64.9 73.7 L66 74.5 L67.1 75.4 L68.3 76.3 L69.4 77.2 L70.6 78.1 L71.8 79.1 L73.1 80 L74.3 80.9 L75.6 81.8 L76.9 82.7 L78.2 83.6 L79.5 84.5 L80.9 85.4 L82.3 86.3 L83.6 87.2 L85 88.1 L86.5 88.9 L87.9 89.8 L89.3 90.7 L90.8 91.6 L92.3 92.4 L93.8 93.3 L95.3 94.2 L96.8 95 L98.4 95.9 L99.9 96.7 L101.5 97.5 L103 98.4 L104.6 99.2 L106.2 100 L107.8 100.8 L109.4 101.6 L111.1 102.4 L112.7 103.2 L114.3 103.9 L116 104.7 L117.6 105.4 L119.3 106.2 L121 106.9 L122.7 107.6 L124.3 108.3 L126 109 L127.7 109.7 L129.4 110.4 L131.1 111 L132.8 111.7 L134.5 112.3 L136.2 113 L137.9 113.6 L139.6 114.2 L141.3 114.8 L143 115.3 L144.7 115.9 L146.4 116.4 L148.1 117 L149.8 117.5 L151.5 118 L153.2 118.5 L154.9 119 L156.6 119.4 L158.2 119.9 L159.9 120.3 L161.6 120.8 L163.2 121.2 L164.9 121.6 L166.5 121.9 L168.1 122.3 L169.7 122.7 L171.3 123 L172.9 123.3 L174.5 123.6 L176.1 123.9 L177.7 124.2 L179.2 124.5 L180.7 124.7 L182.3 125 L183.8 125.2 L185.3 125.4 L186.7 125.6 L188.2 125.8 L189.6 126 L191.1 126.1 L192.5 126.3 L193.9 126.4 L195.2 126.5 L196.6 126.6 L197.9 126.7 L199.2 126.8 L200.5 126.9 L201.8 126.9 L203 127 L204.3 127 L205.5 127 L206.7 127 L207.8 127 L209 127 L210.1 127 L211.2 126.9 L212.2 126.9 L213.3 126.8 L214.3 126.7 L215.3 126.7 L216.3 126.6 L217.2 126.5 L218.1 126.4 L219 126.2 L219.9 126.1 L220.7 126 L221.5 125.8 L222.3 125.7 L223 125.5 L223.8 125.3 L224.4 125.1 L225.1 125 L225.7 124.8 L226.3 124.6 L226.9 124.4 L227.5 124.2 L228 123.9 L228.5 123.7 L228.9 123.5 L229.3 123.3 L229.7 123 L230.1 122.8 L230.4 122.6 L230.7 122.3 L231 122.1 L231.2 121.8 L231.4 121.6 L231.6 121.3 L231.7 121 L231.9 120.8 L231.9 120.5 L232 120.3 L232 120 " fill="none" stroke="#C8A24A" stroke-width="0.4" stroke-opacity="0.55"/></svg>